 <svg xmlns="http://www.w3.org/2000/svg" style="display: none">
        <defs>
          <symbol
            id="icon-time"
            width="22"
            height="22"
            viewBox="0 0 24 24"
            fill="none"
            stroke="currentColor"
            stroke-width="2"
            stroke-linecap="round"
            stroke-linejoin="round"
          >
            <circle cx="12" cy="12" r="10"></circle>
            <polyline points="12 6 12 12 16 14"></polyline>
          </symbol>
          <symbol
            id="icon-check"
            width="22"
            height="22"
            viewBox="0 0 24 24"
            fill="none"
            stroke="currentColor"
            stroke-width="2"
            stroke-linecap="round"
            stroke-linejoin="round"
          >
            <path d="M22 11.08V12a10 10 0 1 1-5.93-9.14"></path>
            <polyline points="22 4 12 14.01 9 11.01"></polyline>
          </symbol>
          <symbol id="result-star" viewBox="0 0 24 24">
            <polygon
              points="12 2 15.09 8.26 22 9.27 17 14.14 18.18 21.02 12 17.77 5.82 21.02 7 14.14 2 9.27 8.91 8.26 12 2"
            ></polygon>
          </symbol>
          <symbol
            id="beeSvg-element"
            viewBox="0 0 89.09 54.06"
            width="100%"
            height="100%"
          >
            <defs>
              <style>
                .cls-1,
                .cls-2,
                .cls-3,
                .cls-4 {
                  stroke: #000;
                  stroke-miterlimit: 10;
                }

                .cls-1,
                .cls-4 {
                  fill: none;
                }

                .cls-2 {
                  fill: #99ecff;
                }

                .cls-3,
                .cls-4 {
                  stroke-linecap: round;
                }

                .cls-5 {
                  fill: #fff;
                }

                .cls-6 {
                  fill: #e25921;
                }

                .cls-7 {
                  fill: #202020;
                }

                .cls-8 {
                  fill: #ffde6e;
                }
              </style>
            </defs>
            <g>
              <path
                class="cls-8"
                d="M24.29,53.56c-7.61,0-14.04-3.67-16.8-9.57-2.04-4.37-1.9-9.45.4-14.3,2.31-4.88,6.53-8.94,11.87-11.44,3.44-1.61,7.18-2.46,10.81-2.46,7.61,0,14.04,3.67,16.8,9.57,4.23,9.06-1.28,20.6-12.27,25.73-3.44,1.61-7.18,2.46-10.81,2.46Z"
              />
              <path
                d="M30.57,15.3v1s0,0,0,0c7.41,0,13.67,3.56,16.35,9.28,1.98,4.23,1.84,9.16-.4,13.87-2.26,4.78-6.39,8.75-11.63,11.2-3.38,1.58-7.04,2.41-10.6,2.41-7.41,0-13.67-3.56-16.35-9.28-1.98-4.23-1.84-9.16.4-13.87,2.26-4.78,6.39-8.75,11.63-11.2,3.38-1.58,7.04,2.41,10.6,2.41v-1M30.57,15.3c-3.6,0-7.38.81-11.02,2.5-11.26,5.26-16.86,17.08-12.51,26.4,2.95,6.31,9.7,9.86,17.25,9.86,3.6,0,7.38-.81,11.02-2.5,11.26-5.26,16.86-17.08,12.51-26.4-2.95-6.31-9.7-9.86-17.25-9.86h0Z"
              />
            </g>
            <g>
              <path
                class="cls-8"
                d="M46,39.06c-8.55,0-15.5-6.44-15.5-14.36s6.95-14.36,15.5-14.36h.34c.61,0,2.46,0,4.65.76,5.23,1.82,10.52,7.07,10.52,13.6,0,7.92-6.96,14.36-15.5,14.36Z"
              />
              <path
                d="M46.34,10.85c.59,0,2.38,0,4.48.73,5.06,1.76,10.18,6.83,10.18,13.13,0,7.64-6.73,13.86-15,13.86s-15-6.22-15-13.86,6.73-13.86,15-13.86h.14s.2,0,.2,0M46.34,9.85c-.14,0-.25,0-.34,0-8.84,0-16,6.65-16,14.86s7.16,14.86,16,14.86,16-6.65,16-14.86c0-6.79-5.54-12.22-10.85-14.07-2.12-.74-3.93-.79-4.81-.79h0Z"
              />
            </g>
            <g>
              <path
                d="M41.2,24.21c-.94,0-1.71-.77-1.71-1.71s.77-1.71,1.71-1.71,1.71.77,1.71,1.71-.77,1.71-1.71,1.71Z"
              />
              <path
                d="M41.19,21.29c.66,0,1.21.54,1.21,1.21s-.54,1.21-1.21,1.21-1.21-.54-1.21-1.21.54-1.21,1.21-1.21M41.19,20.29c-1.22,0-2.21.99-2.21,2.21s.99,2.21,2.21,2.21,2.21-.99,2.21-2.21-.99-2.21-2.21-2.21h0Z"
              />
            </g>
            <g>
              <path
                d="M50.86,24.21c-.94,0-1.71-.77-1.71-1.71s.77-1.71,1.71-1.71,1.71.77,1.71,1.71-.77,1.71-1.71,1.71Z"
              />
              <path
                d="M50.86,21.29c.66,0,1.21.54,1.21,1.21s-.54,1.21-1.21,1.21-1.21-.54-1.21-1.21.54-1.21,1.21-1.21M50.86,20.29c-1.22,0-2.21.99-2.21,2.21s.99,2.21,2.21,2.21,2.21-.99,2.21-2.21-.99-2.21-2.21-2.21h0Z"
              />
            </g>
            <path
              class="cls-4"
              d="M42.86,27.02c.57,1.22,1.8,2,3.14,2s2.57-.78,3.14-2"
            />
            <path
              class="cls-4"
              d="M56.33,8.47c.42-.95.34-1.99-.22-2.66-.8-.96-2.26-.77-3-.47-1.57.63-2.52,2.82-2.18,5.43"
            />
            <path
              class="cls-4"
              d="M37.4,8.47c-.42-.95-.34-1.99.22-2.66.8-.96,2.26-.77,3-.47,1.57.63,2.52,2.82,2.18,5.43"
            />
            <path
              class="cls-3"
              d="M6.21,40.29c-.73.9-1.83,2.21-3.27,3.73-1.4,1.48-2.23,2.22-2.03,2.75.16.42.9.5,2.94.48,1.32-.01,3.13-.07,5.31-.24"
            />
            <path
              class="cls-1"
              d="M9.59,27.02c-.11,2.91.08,8.17,2.59,14.09,2.67,6.28,6.66,10.25,8.91,12.2"
            />
            <path
              class="cls-1"
              d="M23.98,17.06c-.11,3.93.33,9.95,3.34,16.85,3.06,7.01,7.53,12.09,10.74,15.19"
            />
            <path
              class="cls-1"
              d="M17.77,19.5c-.06,4.03.47,9.86,3.34,16.51,3.28,7.59,8.27,13.12,11.87,16.51"
            />
            <g>
              <path
                class="cls-7"
                d="M7.8,39.74c.08-.02.27-.07.23-.07l-.32.08.09-.02Z"
              />
              <path
                class="cls-7"
                d="M8.38,39.56c-.16.04-.43.11-.72.18.31-.07.18-.04.55-.13.04,0-.1.03-.22.06.08-.02-.07.02.13-.03.25-.07.26-.08.05-.03.07-.02.15-.04.21-.05Z"
              />
              <path class="cls-7" d="M8.84,39.18h-.04s.03,0,.04,0Z" />
              <path
                class="cls-7"
                d="M9,38.99s.04,0,.07,0c-.02,0-.04,0-.07,0Z"
              />
              <path
                class="cls-7"
                d="M9.36,38.94s-.02,0-.02,0c.03,0,.05,0,.02,0Z"
              />
              <path
                class="cls-7"
                d="M8.84,39.18l.1-.02c-.11.01-.08.01-.1.02Z"
              />
              <path
                class="cls-7"
                d="M7.6,39.7s.05,0,.09-.02c-.01,0-.03,0-.04,0h-.05Z"
              />
              <path class="cls-7" d="M9.11,39.21h0s.08-.01.13-.02l-.13.02Z" />
              <path
                class="cls-7"
                d="M9.17,39.25s-.26.05-.39.07c.11-.02.17-.03.19-.03.05,0,.12-.02.2-.04Z"
              />
              <path class="cls-7" d="M8.7,39.43h.04s-.02,0-.04,0Z" />
              <path
                class="cls-7"
                d="M9.17,39.16s.08-.01.1-.01c-.03,0-.07,0-.1.01Z"
              />
              <path
                class="cls-7"
                d="M6.95,37.84s.03-.01.05-.02c-.03,0-.05.02-.05.02Z"
              />
              <polygon
                class="cls-7"
                points="8.24 37.31 8.25 37.31 8.4 37.25 8.24 37.31"
              />
              <path class="cls-7" d="M9.72,38.86h0s.03,0,0,0Z" />
              <path
                class="cls-7"
                d="M9.5,38.34c-.25,0-.32,0-.6.02.11,0,.44,0,.6-.02Z"
              />
              <path class="cls-7" d="M7.63,39.69h0s0,0,0,0Z" />
              <path
                class="cls-7"
                d="M8.89,38.36h0s-.03,0-.03,0c.01,0,.02,0,.03,0Z"
              />
              <path
                class="cls-7"
                d="M9.54,38.76s-.09,0-.12,0c.03,0,.06,0,.12,0Z"
              />
              <path class="cls-7" d="M9.15,38.87h.04s-.04,0-.04,0Z" />
              <path
                class="cls-7"
                d="M9.15,38.72s.06,0,.02,0c-.01,0-.02,0-.03,0,.04,0,.06,0,.01,0Z"
              />
              <path
                class="cls-7"
                d="M9.14,38.67s-.04,0-.06,0h.02s.04,0,.04,0Z"
              />
              <path
                class="cls-7"
                d="M7.1,37.86c.08-.02.16-.04.24-.06-.19.05-.26.06-.24.06Z"
              />
              <path
                class="cls-7"
                d="M7.75,39.67c-.07.01-.1.02-.12.03,0,0,0,0,.02,0,.04,0,.08-.02.1-.02Z"
              />
              <path class="cls-7" d="M6.93,38.78h.04s-.04,0-.04,0Z" />
              <path class="cls-7" d="M7.17,38.09h-.03s0,0,.03,0Z" />
              <path
                class="cls-7"
                d="M6.93,38.74c.1,0,.16,0,.19-.01-.02,0-.04,0-.07,0h-.12Z"
              />
              <path class="cls-7" d="M7.34,37.8h0s0,0,0,0Z" />
              <path
                class="cls-7"
                d="M6.69,37.94s.35-.09.55-.15c.1-.02-.26.07-.44.12.1-.02.4-.1.41-.1-.06.02-.08.02-.15.04.29-.06.02,0,.38-.08-.03,0-.06.02-.09.02.18-.04.36-.09.49-.12,0,0,.23-.05,0,0,0,0-.09.02-.16.04l.1-.02c-.34.08-.12.03-.37.09.11-.02.39-.08.3-.06-.33.07-.11.03-.41.09l.12-.04c-.52.12.03,0-.52.13-.09.03.17-.04.07,0,.18-.04.27-.06.46-.1.33-.06-.83.19-.39.1.22-.05.64-.13.42-.08l-.38.08s.54-.11.29-.05c-.15.03-.13.02-.17.03-.3.07.21-.04.21-.04l-.33.07c.05,0,.3-.04.36-.04-.1.02-.2.04-.31.06.17-.02-.04.03-.23.07l.29-.04s-.13.02-.19.03c-.11.02.18-.03.3-.04.02,0-.17.03-.25.04.25-.03.53-.06.22,0h-.09c-.12.03.6-.06.33-.02h-.05c-.12.04.15.02-.29.08.42-.05-.19.04.4-.03-.29.04-.39.05-.59.08.03,0,.37-.03.43-.03l-.31.03.32-.03-.37.04h.08s.14-.02.23-.03c.14,0-.21.03-.37.05h.26c-.12,0-.17,0-.25,0,.31-.02-.32.03-.04.01.07,0,.18-.01.25-.02-.19.02-.19.03-.11.03l-.21.02c-.05.01.1.01.1.03.1,0,.47-.03.5-.03l-.33.02c.2-.01.12,0,.37-.02-.04,0-.37.03-.48.03h.11c-.1,0-.15,0-.27.01.2-.01-.33.03.03.01h-.1s.11.02.13.02c.28-.01.22,0,.45-.02-.09.01-.31.03-.29.04.14,0,.24,0,.41-.01-.26.01-.23.02-.42.03.04,0,.05.01.26.02.1,0,.15,0,.24-.01.04,0-.11.01-.23.02h-.03c.38,0-.74.07-.21.06h-.03s.28,0,.28,0c-.04,0-.19,0-.35.01.43,0-.06.03.22.03-.76.03.05.04-.43.06h.18c.17,0-.1,0-.14,0,.14,0,.16,0,.26,0,.22.03-.26.07-.42.11-.05.01.92-.01.5.01h-.33c.4.02-.01.06.32.07-.08,0-.17,0-.17,0-.24.01-.01.02.18.02-.02,0-.18,0-.28.01-.14,0,.31,0,.07.02-.04,0-.08,0-.1,0,.12,0-.03.02.25,0-.13.01.12.02-.04.03.31,0-.15.02.29.01-.45.01-.36.03-.15.03-.14,0-.14,0-.33.01,0,0,.09.01.32,0-.54.03.44.01-.26.04.24.01.41.03.52.04-.45.02-.05-.02-.52,0,.19.01.57,0,.47.03-.06,0-.2,0-.27,0,.19.01-.04.04.21.05-.04,0-.09,0-.12,0,.01,0-.07.01.14,0h-.06c.3-.01.62-.02.78-.03-.59.03-.15.02-.89.06.04,0,.14,0,.27-.01-.04,0-.12.01-.28.02.11,0,.33-.01.33,0-.1,0-.14,0-.25.01.19,0,.39-.01.3,0-.06,0-.14,0-.14,0,.03.01.52,0,.33.02-.43.02-.14.02-.51.04h.11s.18-.01.18-.01c0,0,.27,0,.14.01h-.15s.07.02.07.02l.14-.02c.19,0,.47-.04.37-.02-.04,0,0,0-.22.03h0c.12,0,.24-.01.15,0-.12,0-.41.03-.49.04.31-.02.09.01.42-.01-.08,0-.27.02-.31.03l.25-.02c-.08,0-.12.01-.28.03-.05.02.47-.05.27-.01-.02,0-.06,0-.1,0-.1.02.16.01.04.03-.37.03-.09,0-.41.03.07.01.45,0,.37.02h.04c.53-.06-.26.03,0,.02-.04,0-.18.02-.23.02-.08.02.13.01.3,0h-.14c-.12.04-.07.04-.13.06.14-.02.11-.01.31-.04-.77.13.42-.02-.22.1h-.12s.13.01.13.01c.23-.04.14-.02.31-.06.14-.02.24-.03.24-.03-.15.02-.37.06-.49.08.07-.01.15-.02.22-.03-.4.08.46-.07.19-.02l-.12.02c.06,0,.22-.03.19-.02-.26.04-.12.02-.34.05.02,0,.5-.07.24-.02-.07,0-.08,0-.15.02-.31.06-.23.05-.28.06h0s-.14.04-.14.04l.08-.02c.69-.12.13,0,.58-.08-.43.07-.25.04-.54.1-.08.02-.17.04-.26.06.24-.04-.19.05.17-.01-.1.02,0,0-.25.06.08,0,.17-.04.29-.06.33-.05-.39.11.06.04.19-.03.51-.09.67-.12-.15.03-.35.08-.35.08-.14.04-.11.04,0,.02-.08.02-.15.04-.26.06.03,0,.35-.08.21-.04-.11.02-.28.06-.38.09.09-.02.27-.05.35-.06-.17.04-.25.06-.36.08.08,0,.16-.01.42-.08l.09-.03s-.22.06-.27.07c-.21.04.09-.03.18-.06h.06c.55-.15-.09,0-.06-.02l.41-.09-.34.07c.11-.02.33-.08.39-.09.2-.05-.15.03.08-.03.03,0,.05-.01.07-.02l-.12.02c.09-.02.29-.07.23-.05.23-.06-.31.05,0-.02h.03c-.14.01-.3.06-.65.12l.74-.16-.3.06s.03-.01.15-.04c-.21.04-.13.03-.32.06.27-.06-.13,0,.35-.09-.23.04-.17.04-.33.06.51-.1-.09,0,.15-.04.27-.05.13-.02.36-.07-.45.08.1-.03.01-.02-.36.07-.15.02-.27.03.12-.02.19-.05.32-.08h.06c-.36.05-.3.03-.37.04.22-.03.3-.05.4-.06h0c-.12.01-.18.02-.22.02l.27-.04s-.32.04-.14,0c-.25.04-.7.11-.88.12.14-.02.37-.05.43-.06-.02,0-.11.01-.06,0l.23-.03c.1-.02-.19.03-.17.02.2-.03.14-.02.29-.04.02,0-.08.01,0,0,.04,0,.15-.03.3-.05-.11.01-.26.03-.29.04-.02,0,.23-.04.34-.05-.14.02,0,0-.29.03,0,0,.14-.02.22-.03-.13.01-.04-.01-.35.03h-.02s0,0-.01,0h0s0,0,0,0c-.29.02.16-.05.04-.04h.1c-.11,0-.07-.02-.28,0,0,0,.18-.02.3-.04-.07,0-.19.01-.02-.01.17-.01.15-.02.13,0,.08-.02.24-.03-.03-.01.25-.02.32-.04.24-.03l-.18.02s-.01,0,0-.01l.33-.03c.4-.05-.69.04-.01-.03-.23.02-.16.02-.43.04.05,0,.52-.06.52-.06.18-.02-.49.03-.36.01-.12.01-.43.04-.55.04.04-.01.5-.05.59-.05.01,0-.03,0-.07,0,.04,0,.09,0,.22-.01h-.12c.12,0,.11-.01.3-.02-.11,0-.19.01-.26.02.17-.02,0-.01.12-.03-.07,0-.2.02-.2.02.15-.02-.22,0-.28,0,.18-.02.43-.03.28-.03.12,0,.31-.02.41-.03-.23,0,.15-.02.19-.03h.1c-.06,0-.05,0-.05,0l-.24.02s.04,0,.14-.01c-.16,0-.39.02-.61.03.12-.01-.13,0,.18-.02-.11.02.32-.02.37-.01-.04,0-.04,0,0,0,.04,0,.07,0,.08,0,.28-.02-.36.02-.35,0,.18,0,.34-.02.3-.02,0,0-.3.01-.43.02.14-.01-.1,0-.09,0h-.06c-.18.01-.15.01-.21,0,.14,0,.1,0,.16,0-.31,0,.32-.03.11-.02.12,0,.33-.02.41-.02-.23,0,.24-.02.05-.02-.24.01-.18.01-.41.01h.17s-.35.01-.35.01c0,0,.15,0,.11,0-.19,0-.14,0-.33.01.36-.02-.21,0,.03-.02l.59-.02c.26-.02-.3,0-.16-.03h-.1c-.23.02-.03,0-.13,0,.2,0,.27-.01.39-.02-.15,0,.01-.01-.38,0l.26-.02c.11-.01-.56,0-.5,0,.21,0,.35,0,.51-.01,0,0,.04,0-.1,0,.12,0-.27,0-.08-.01-.09,0-.29,0-.28,0,.04,0,.1,0,.1,0-.1,0-.13,0-.35,0,.62-.03-.05-.03.48-.06-.07,0-.13-.01-.14-.02.06,0,.1,0,.08,0,.18-.01-.57,0-.36,0,.32-.01.17,0,.29,0,.65-.02-.09-.01.29-.03h.04c.22,0-.25,0-.2-.02,0,0,.06,0,.1,0-.33,0-.44,0-.53-.02.25,0,.13,0,.39,0-.04,0-.41,0-.49,0,.14,0,.26-.01.54-.02h.02c.36,0-.01,0,.05,0h.16c-.05-.01-.44,0-.42-.02h-.12c-.39,0,.22,0-.07,0h.39c-.1-.01-.38-.02-.46-.03.29,0,.44,0,.62,0,0,0-.03-.02-.22-.01.04,0,.13,0,.07,0-.31,0-.46,0-.46-.01.77-.02.19-.03.79-.05-.28-.01.12-.04.07-.06-.6.02-.02,0-.63.01-.04,0-.03,0,.01,0l.36-.03c.18,0,.13,0,.27,0,.05-.01.26-.01.42-.02-.22,0-.31,0-.23,0l-.28.02c-.33,0,.51-.03.19-.03h.19c-.11,0,0-.03-.49-.02.07,0,.24,0,.28,0,.07-.02-.52-.02-.22-.05h.15s-.28,0-.13-.01c.06,0,.15,0,.16,0-.05,0-.26,0-.18,0h.17c.19-.03-.41-.01-.51-.02.44-.02.58-.05.65-.06h.06c.05-.03-.37-.03-.54-.04.48-.05.2-.06.46-.1-.08,0-.34.02-.39.03.09-.01-.31,0,.1-.02h0c.39-.03.29-.04.3-.05l-.53.04c.76-.09-.29-.03.4-.11-.13,0-.13,0-.26,0l.28-.03c.07-.02.1-.04.04-.05l.2-.02s-.81.08-.83.07l.42-.05s.36-.09-.03-.06c.06,0,.18-.02.2-.02,0-.01.28-.08-.3,0,.37-.05.03-.03-.13-.01l.28-.04c-.35.04-.45.06-.55.06.04,0,.22-.04.15-.02.14-.03-.26.03-.12,0l.18-.02s-.07,0-.28.03c-.11.01.07-.03.32-.07-.15.02-.36.05-.28.04.09-.01.15-.02.18-.03.18-.05-.32.03-.06-.03.09-.02.14-.03.16-.03,0,.01-.02.03-.04.03.25-.04.3-.06.65-.11-.19.02-.61.08-.49.05.02,0,.05,0,.09-.02h.03s0,0-.04,0c.04-.01.07-.02.07-.02.21-.04.11-.04.12-.04-.28.05-.23.05-.46.09.02,0,.03,0,.05,0,0,0,.01,0,.03,0h-.02s.02,0,.02.01c-.14.02-.26.04-.11,0-.18.03-.36.06-.45.08.38-.09.59-.13.82-.19-.16.01-.11-.02-.63.08-.07.01.15-.04.23-.06.05,0,.04,0,.12-.02-.13.02-.06-.02-.42.06.16-.05.33-.07.27-.07l.11-.02c.56-.17-.93.18-.2-.04-.04.01-.07.02-.12.04.31-.13-.32.01.18-.18.1-.04-.13.03-.3.07l.29-.09-.34.1c-.25.07.69-.26.23-.13l-.19.07s-.12.02.1-.06c-.04.01-.2.07-.1.03l.15-.05-.26.08c.1-.05.59-.22.61-.25-.06.01-.44.14-.54.18,0,0-.09.04-.24.1l-.08.02c-.43.17-.88.34-1.18.46l.27-.1-.21.08h-.01c-.2.08-.02.01.1-.03-.11.04-.19.07-.23.09l.42-.15c-.17.06-.34.12-.43.16.19-.07.38-.14.51-.18-.2.07-.36.13-.19.07-.11.04-.19.07-.23.08.14-.05.06-.02.29-.1-.25.09.07-.01-.35.13.1-.03.33-.11.35-.11-.5.17-.03,0-.57.19.45-.14.2-.06.46-.13-.04.01-.11.03-.09.03-.04.01-.17.06-.26.08.38-.11.46-.13.69-.2-.36.11-.44.13-.79.23q.31-.09.56-.16c-.22.07-.11.03-.42.12.46-.13.09-.02.37-.1-.23.07-.44.12-.3.09-.14.04-.31.09-.31.09ZM7.54,37.85h0s-.02,0-.02,0c0,0,0,0,.02,0ZM7.55,37.86s0,0,0,0c.1-.02.18-.03.19-.03-.06.01-.12.02-.2.04ZM9.45,37.47s-.01,0-.07.02c0,0-.01,0-.03,0h-.03c.05,0,.1-.01.14-.02Z"
              />
              <path
                class="cls-7"
                d="M9.09,37.53s-.02,0-.02,0c-.02,0-.04.01-.06.01l.09-.02h0Z"
              />
              <path
                class="cls-7"
                d="M8.79,39.18h0s-.02,0-.04,0c.01,0,.02,0,.03,0Z"
              />
              <polygon
                class="cls-7"
                points="7.03 38.09 7.1 38.09 7.04 38.09 7.03 38.09"
              />
              <path
                class="cls-7"
                d="M7.85,39.42s-.05,0-.07.01c.02,0,.04,0,.07-.01Z"
              />
              <path class="cls-7" d="M7.8,39.48l-.1.02c.06-.01.08-.02.1-.02Z" />
              <path
                class="cls-7"
                d="M7.67,39.54s.08-.02.12-.02h0s-.12.02-.12.02Z"
              />
              <path
                class="cls-7"
                d="M7.27,38.96s0,0-.01,0c-.05,0-.03,0,.01,0Z"
              />
              <path
                class="cls-7"
                d="M7.94,39.09c-.05,0-.1,0-.13,0-.02,0-.03,0,.13,0Z"
              />
              <polygon
                class="cls-7"
                points="6.93 38.78 6.93 38.78 6.93 38.78 6.93 38.78"
              />
              <path
                class="cls-7"
                d="M7.81,39.09c-.06,0-.04,0,0,0,.02,0,.05,0,0,0Z"
              />
              <path class="cls-7" d="M7.58,39.75h-.01s.03,0,.04,0h-.03Z" />
              <path class="cls-7" d="M7.61,39.74h.03s0,0-.03,0Z" />
              <path class="cls-7" d="M7.72,39.72h-.07s0,.02.07,0Z" />
              <path class="cls-7" d="M7.69,39.66l-.1.02s.05-.01.1-.02Z" />
              <path
                class="cls-7"
                d="M7.66,39.65s-.21.06-.15.05l.08-.02c-.15.03.24-.07.07-.03Z"
              />
              <path
                class="cls-7"
                d="M8.88,39.34l-.08.02c.11-.02.25-.05.28-.06.32-.07-.24.05-.2.03Z"
              />
              <path
                class="cls-7"
                d="M9.03,39.28s.16-.03.22-.04c-.1.02-.12.02-.22.04Z"
              />
              <path class="cls-7" d="M9.01,39.1l.25-.03s-.1.01-.25.03Z" />
              <polygon
                class="cls-7"
                points="7.69 39.18 7.53 39.2 7.76 39.18 7.69 39.18"
              />
              <polygon
                class="cls-7"
                points="9.5 38.99 9.54 38.99 9.44 38.99 9.5 38.99"
              />
              <path class="cls-7" d="M9.39,38.67h-.31c.06.01.41,0,.31,0Z" />
              <path
                class="cls-7"
                d="M9.07,38.51c.16,0,.26-.01.1-.01-.02,0-.14.01-.1.01Z"
              />
              <polygon
                class="cls-7"
                points="9.55 37.91 9.66 37.9 9.57 37.9 9.55 37.91"
              />
            </g>
            <path
              d="M7.19,41.11c.29.89.67,1.77,1.14,2.59.18.33.54.59.9.69.2.06.4.07.6.03.2,0,.39-.07.56-.18.32-.21.6-.51.69-.9s.05-.8-.15-1.16c-.23-.41-.44-.83-.62-1.26l.15.36c-.13-.32-.26-.64-.36-.97-.12-.37-.35-.7-.69-.9-.17-.11-.36-.17-.56-.18-.2-.04-.4-.04-.6.03-.36.12-.71.34-.9.69s-.28.77-.15,1.16h0Z"
            />
            <path
              d="M6.56,34.18c-.08,1.81.06,3.6.37,5.38l1.85-1.85-.1-.04,1.05,1.05c-.15-.42-.12-1.09-.17-1.56-.19-1.95-2.76-1.91-3,0-.33,2.64.65,5.38,1.85,7.7,1.13,2.19,2.87,3.95,5.2,4.82.76.28,1.64-.32,1.85-1.05.23-.84-.29-1.56-1.05-1.85-1.65-.62-2.76-2.14-3.52-3.66-.91-1.85-1.59-3.89-1.33-5.97h-3c.06.61.11,1.22.18,1.83.1.82.46,1.31,1.25,1.62,1.17.47,2.02-.85,1.85-1.85-.26-1.51-.33-3.05-.26-4.58.09-1.93-2.91-1.93-3,0h0Z"
            />
            <path
              d="M7.08,36.28c-.15,3.01,1.19,5.77,2.51,8.38.36.7,1.4.96,2.05.54.72-.46.92-1.3.54-2.05-.3-.6-.61-1.2-.89-1.81-.06-.13-.12-.26-.18-.39-.02-.05-.18-.41-.08-.17-.13-.31-.25-.62-.36-.94-.21-.59-.38-1.19-.49-1.81-.02-.09-.03-.19-.05-.28-.02-.16-.03-.19-.01-.09.01.1.01.08,0-.09,0-.1-.02-.19-.02-.29-.02-.34-.02-.67,0-1.01.04-.78-.72-1.54-1.5-1.5-.85.04-1.46.66-1.5,1.5h0Z"
            />
            <path
              d="M6.38,36.01l-.17,1.05c-.06.2-.07.4-.03.6,0,.2.07.39.18.56.09.17.22.32.39.42.14.13.31.22.51.27l.4.05c.27,0,.52-.07.76-.2l.3-.23c.19-.19.31-.41.39-.66l.17-1.05c.06-.2.07-.4.03-.6,0-.2-.07-.39-.18-.56-.09-.17-.22-.32-.39-.42-.14-.13-.31-.22-.51-.27l-.4-.05c-.27,0-.52.07-.76.2l-.3.23c-.19.19-.31.41-.39.66h0Z"
            />
            <path
              d="M7.58,31.27c.02.6.01,1.21-.03,1.81l1.28-.53c-.11-.11.08.13,0,0s.03.14,0,0c0-.03-.02-.06-.02-.09v.1s0-.14,0-.17c0-.3.01-.57-.03-.87-.04-.25-.3-.46-.52-.52-.27-.07-.53.01-.73.19-.25.22-.4.54-.49.86-.03.12-.06.24-.09.36-.01.06-.03.12-.05.18-.02.05-.1.24,0,.03-.16.36-.11.82.27,1.03.33.18.85.11,1.03-.27.51-1.09.96-2.21,1.32-3.35.12-.37-.14-.84-.52-.92-.41-.09-.8.12-.92.52-.17.53-.35,1.06-.56,1.58-.05.13-.1.25-.15.37-.03.07-.05.13-.08.2.07-.16-.01.03-.02.05-.11.27-.23.53-.36.79l1.3.76c.12-.26.19-.52.25-.79.02-.08.09-.22.09-.3-.05.11-.06.13-.02.06.01-.03.03-.05.04-.07.04-.06.03-.05-.04.05.02-.02.04-.04.06-.06l-1.25-.33c-.03-.21,0,.05,0,.09,0,.06,0,.12,0,.18,0,.13-.01.27,0,.4.04.38.16.73.43,1.01.21.22.55.27.82.16s.44-.38.46-.69c.04-.6.05-1.21.03-1.81-.01-.39-.34-.77-.75-.75s-.76.33-.75.75h0Z"
            />
            <path
              d="M8.66,28.53c-.4,1.67-.52,3.4-.35,5.11.02.19.16.38.38.38.19,0,.4-.17.38-.38-.17-1.65-.06-3.31.32-4.91.05-.19-.06-.42-.26-.46s-.41.06-.46.26h0Z"
            />
            <path
              d="M8.52,31.4c.4,1.23.25,2.53.34,3.8s.42,2.61.94,3.83c.08.19.35.23.51.13.19-.11.21-.33.13-.51-.49-1.15-.78-2.4-.85-3.66s.04-2.57-.35-3.79c-.15-.46-.87-.26-.72.2h0Z"
            />
            <path
              d="M9.27,34.71c.49.99.36,2.16.47,3.22.12,1.17.36,2.32.6,3.47.08.38.62.33.72,0,.5-1.61-.39-3.1-.68-4.65l-.72.2c.53,2.25,1.12,4.48,1.77,6.7.12.41.72.32.74-.1.04-1.23-.1-2.45-.4-3.64-.12-.47-.83-.27-.72.2.37,1.58.96,3.09,1.75,4.51.24.42.86.05.65-.38l-.89-1.78c-.2-.39-.78-.11-.69.29.36,1.48.74,2.97,1.57,4.27.22.34.83.13.69-.29-.34-1.01-.87-1.92-1.57-2.73-.24-.28-.75.02-.63.36.29.85.68,1.66,1.17,2.42.26.4.9.04.65-.38-.52-.85-1.03-1.69-1.55-2.54-.22-.36-.81-.13-.69.29.33,1.1.7,2.22,1.55,3.02.29.27.69,0,.63-.36-.19-1.02-.52-2-.98-2.94l-.65.38c.55.91,1.17,1.78,1.84,2.61.23.29.75-.02.63-.36-.28-.76-.64-1.48-1.09-2.15-.27-.4-.9-.04-.65.38.45.74.88,1.49,1.29,2.25l.65-.38-.86-1.56c-.2-.37-.81-.12-.69.29.25.83.58,1.63.99,2.4.2.37.82.12.69-.29l-.48-1.49-.69.29c.48.67.98,1.32,1.51,1.95.3.36.74-.1.59-.45-.18-.44-.44-.82-.76-1.17-.25-.28-.74.01-.63.36.42,1.33,1.02,2.58,1.81,3.73.28.41.84.06.65-.38-.27-.63-.62-1.19-1.05-1.73-.27-.33-.81.1-.59.45s.47.66.76.93c.25.24.76,0,.63-.36-.23-.62-.51-1.21-.87-1.77-.26-.4-.89-.04-.65.38.35.59.76,1.14,1.24,1.63l.45-.59c-.96-.52-1.91-1.03-2.87-1.55-.34-.18-.68.18-.51.51.49.97,1.24,1.77,2.17,2.32.31.18.73-.19.51-.51-.24-.35-.48-.7-.72-1.05-.27-.39-.91-.03-.65.38s.52.81.79,1.22l.32-.56c-1.53-.13-2.91-.9-3.87-2.09-.27-.33-.83.1-.59.45,1.18,1.74,2.88,3.03,4.88,3.69.39.13.58-.36.36-.63-.5-.63-1.13-1.12-1.87-1.45-.44-.2-.78.37-.38.65,1.24.83,2.59,1.45,4.03,1.84.41.11.65-.46.29-.69-.92-.57-1.79-1.2-2.62-1.9-.36-.31-.88.19-.53.53.61.6,1.32,1.03,2.12,1.32.3.11.61-.29.42-.55l-1.19-1.72c-.27-.39-.89-.05-.65.38.71,1.27,1.71,2.34,2.94,3.13.33.21.68-.2.51-.51-.38-.73-.95-1.33-1.65-1.76-.41-.25-.79.4-.38.65.6.37,1.06.86,1.38,1.49l.51-.51c-1.12-.72-2.02-1.7-2.67-2.86l-.65.38,1.19,1.72.42-.55c-.68-.24-1.27-.63-1.79-1.13l-.53.53c.87.75,1.79,1.42,2.77,2.02l.29-.69c-1.38-.37-2.67-.97-3.85-1.77l-.38.65c.68.31,1.25.75,1.72,1.33l.36-.63c-1.8-.6-3.36-1.78-4.43-3.35l-.59.45c1.09,1.35,2.68,2.16,4.4,2.31.28.02.47-.34.32-.56-.26-.41-.52-.81-.79-1.22l-.65.38c.24.35.48.7.72,1.05l.51-.51c-.83-.49-1.47-1.19-1.9-2.05l-.51.51c.96.52,1.91,1.03,2.87,1.55.37.2.76-.28.45-.59-.44-.45-.81-.94-1.13-1.48l-.65.38c.33.5.59,1.03.8,1.59l.63-.36c-.25-.24-.46-.49-.65-.78l-.59.45c.39.48.69,1.01.93,1.57l.65-.38c-.75-1.1-1.33-2.28-1.73-3.55l-.63.36c.28.3.48.64.64,1.01l.59-.45c-.49-.58-.95-1.18-1.4-1.8-.23-.32-.82-.14-.69.29l.48,1.49.69-.29c-.37-.71-.68-1.45-.91-2.22l-.69.29.86,1.56c.23.42.87.05.65-.38-.41-.76-.83-1.51-1.29-2.25l-.65.38c.42.62.76,1.27,1.02,1.97l.63-.36c-.63-.78-1.2-1.6-1.72-2.46-.25-.42-.86-.05-.65.38.43.88.73,1.8.91,2.76l.63-.36c-.76-.72-1.07-1.71-1.36-2.69l-.69.29c.52.85,1.03,1.69,1.55,2.54l.65-.38c-.46-.7-.82-1.45-1.09-2.24l-.63.36c.61.71,1.07,1.52,1.38,2.4l.69-.29c-.8-1.24-1.15-2.67-1.5-4.09l-.69.29.89,1.78.65-.38c-.76-1.36-1.32-2.81-1.67-4.33l-.72.2c.29,1.13.41,2.28.37,3.44l.74-.1c-.65-2.22-1.24-4.45-1.77-6.7-.11-.47-.81-.27-.72.2.27,1.4,1.13,2.8.68,4.25h.72c-.26-1.25-.53-2.51-.61-3.79-.07-1.06-.04-2.11-.53-3.08-.22-.43-.86-.05-.65.38h0Z"
            />
            <path
              d="M20.12,31.17c1.28-.48,2.6-.82,3.96-1.01.2-.03.32-.29.26-.46-.07-.21-.25-.29-.46-.26-1.35.19-2.68.52-3.96,1.01-.18.07-.33.26-.26.46.06.18.26.34.46.26h0Z"
            />
            <path
              d="M18.97,27.3c1.1,2.04,1.87,3.92,2.52,6.17.16.56.8.97,1.38.79s.96-.78.79-1.38c-.68-2.32-1.6-4.58-2.75-6.71-.28-.52-1.04-.72-1.54-.4-.53.34-.7.98-.4,1.54h0Z"
            />
            <path
              d="M18.17,28.03c.41,1.43,1,2.8,1.61,4.15s1.15,2.88,1.9,4.24c1.36,2.48,2.93,4.99,4.86,7.06.99,1.06,2.58-.53,1.59-1.59-1.8-1.93-3.25-4.3-4.51-6.61-.68-1.24-1.16-2.57-1.73-3.86s-1.16-2.62-1.55-4-2.57-.8-2.17.6h0Z"
            />
            <path
              d="M22.49,38.82l.08.09c-.04-.06-.04-.05,0,0,.05.08.1.17.14.26.08.16.15.33.23.49.18.38.39.73.63,1.08.5.73,1.08,1.41,1.69,2.06,1.2,1.27,2.42,2.54,3.78,3.64.47.38,1.13.46,1.59,0,.4-.4.47-1.21,0-1.59-1.36-1.1-2.58-2.37-3.78-3.64-.55-.59-1.03-1.13-1.45-1.77-.47-.72-.72-1.59-1.32-2.22-.42-.44-1.17-.42-1.59,0s-.42,1.15,0,1.59h0Z"
            />
            <path
              d="M25.5,43.18c.66,1.61,1.7,2.98,3.02,4.1,1.39,1.18,2.96,2.09,4.54,2.98.51.29,1.25.14,1.54-.4s.14-1.23-.4-1.54c-1.37-.77-2.86-1.61-3.99-2.56-.56-.47-1.09-.99-1.55-1.56-.13-.16.15.2-.07-.09-.05-.06-.09-.12-.14-.19-.11-.16-.22-.32-.32-.48s-.19-.33-.28-.5c-.03-.07-.07-.14-.1-.21,0,0-.14-.32-.07-.15-.22-.54-.76-.99-1.38-.79-.52.17-1.02.8-.79,1.38h0Z"
            />
            <path
              d="M21.83,33.32c1.43,2.03,2.84,4.04,3.87,6.3.92,2.01,1.77,4.06,3.34,5.67,1.01,1.04,2.6-.55,1.59-1.59-1.46-1.5-2.2-3.52-3.07-5.39-1.02-2.2-2.41-4.15-3.8-6.13-.35-.5-.98-.73-1.54-.4-.49.29-.75,1.04-.4,1.54h0Z"
            />
            <path
              d="M21.96,30.94c.7,1.03,1.34,2.09,1.93,3.19.29.54.56,1.09.82,1.64.28.61.46,1.03.68,1.58s.76.99,1.38.79c.53-.17,1.02-.8.79-1.38-.97-2.44-2.18-4.78-3.66-6.95-.33-.49-1-.75-1.54-.4-.48.31-.76,1.02-.4,1.54h0Z"
            />
            <path
              d="M22.97,31.26c1.59,2.31,2.46,4.93,3.69,7.42s2.8,5.04,4.31,7.49c.76,1.23,2.71.1,1.94-1.14-1.52-2.45-3.03-4.91-4.31-7.49s-2.11-5.11-3.69-7.42c-.81-1.19-2.77-.06-1.94,1.14h0Z"
            />
            <path
              d="M27.37,44.51c.91,1.61,2.22,2.98,3.77,3.98.49.32,1.26.12,1.54-.4.3-.56.12-1.2-.4-1.54-.25-.16-.49-.33-.72-.51l.23.18c-.68-.54-1.3-1.15-1.83-1.84l.18.23c-.3-.39-.57-.8-.82-1.23-.29-.51-1.03-.73-1.54-.4s-.71.99-.4,1.54h0Z"
            />
            <path
              d="M28.79,44.87c.31.22.61.44.91.67l-.23-.18c.9.7,1.75,1.45,2.54,2.26.41.42,1.18.45,1.59,0,.43-.47.42-1.12,0-1.59-.08-.09-.16-.18-.24-.28-.39-.44-1.2-.43-1.59,0-.43.47-.42,1.12,0,1.59.08.09.16.18.24.28l1.59-1.59c-1.13-1.15-2.37-2.18-3.68-3.11-.23-.16-.61-.18-.87-.11s-.54.27-.67.52c-.14.26-.21.58-.11.87s.27.5.52.67h0Z"
            />
            <path
              d="M28.06,40.42c.11.22.21.44.31.66.05.12.1.24.15.35.02.05.05.11.07.16-.1-.24-.02-.04,0,0,.22.53.44,1.05.67,1.57.44.97.98,1.88,1.69,2.67.4.44,1.19.43,1.59,0,.43-.47.42-1.12,0-1.59-.08-.08-.15-.17-.22-.26-.18-.21.09.12,0,0-.03-.05-.07-.09-.1-.14-.14-.19-.27-.4-.39-.6-.24-.42-.46-.85-.65-1.29-.09-.21-.2-.42-.27-.63.05.14.05.11,0,0-.02-.05-.04-.11-.07-.16-.04-.11-.09-.21-.13-.32-.22-.52-.44-1.05-.69-1.56s-1.06-.72-1.54-.4c-.54.35-.68.97-.4,1.54h0Z"
            />
            <path
              d="M29.05,42.09c1.43,2.47,3,4.85,4.71,7.14.35.47.99.76,1.54.4.46-.3.78-1.03.4-1.54-1.71-2.29-3.28-4.67-4.71-7.14-.29-.51-1.03-.73-1.54-.4s-.72.99-.4,1.54h0Z"
            />
            <path
              d="M31.55,45.23c.31,1,1.06,1.71,1.74,2.47.32.35.63.71.93,1.08.15.19.31.38.46.57.04.05.13.22,0,0,.03.05.07.09.1.13.08.11.16.22.24.32.18.24.37.43.67.52.27.07.63.04.87-.11.47-.3.78-1.03.4-1.54-.61-.82-1.24-1.61-1.92-2.37-.29-.33-.59-.64-.88-.97-.07-.08-.14-.16-.21-.24-.09-.11.13.18.05.06-.03-.05-.07-.1-.1-.14-.05-.08-.09-.16-.14-.24-.1-.17.06.18.01.05-.02-.06-.04-.11-.06-.17-.17-.56-.79-.98-1.38-.79s-.97.78-.79,1.38h0Z"
            />
            <path
              d="M36.65,48.12h-.16c-.15,0-.3.03-.43.1-.14.05-.26.12-.36.23-.11.1-.19.22-.23.36-.07.13-.1.28-.1.43l.04.3c.05.19.15.36.29.5l.23.18c.18.1.36.15.57.15h.16c.15,0,.3-.03.43-.1.14-.05.26-.12.36-.23.11-.1.19-.22.23-.36.07-.13.1-.28.1-.43l-.04-.3c-.05-.19-.15-.36-.29-.5l-.23-.18c-.18-.1-.36-.15-.57-.15h0Z"
            />
            <path
              d="M34.74,48.37c-.82.49-1.67.96-2.53,1.38l1.54.4c-.36-.76-1.01-1.32-1.68-1.8-.28-.2-.58-.39-.86-.59-.08-.05-.16-.11-.23-.17-.25-.18.16.15-.07-.06-.14-.12-.28-.25-.41-.39-.4-.43-1.19-.44-1.59,0-.42.46-.43,1.13,0,1.59.52.56,1.18.96,1.81,1.39.13.09.25.18.38.27-.21-.15.03.03.06.05.07.06.14.12.2.18.05.05.11.11.16.16.08.08.12.14.03.02.11.15.2.3.28.46.27.57,1.03.66,1.54.4.86-.43,1.7-.89,2.53-1.38.5-.3.74-1.02.4-1.54s-1-.73-1.54-.4h0Z"
            />
            <path
              d="M18.1,19.96c-.02-.18.02.15.02.18.02.14.03.28.05.42.03.24.05.48.07.73.05.5.08,1.01.1,1.52.05,1.01.05,2.03,0,3.04-.02.59.53,1.15,1.12,1.12.63-.03,1.1-.49,1.12-1.12.09-2.17-.04-4.33-.34-6.48-.08-.59-.86-.96-1.38-.79-.64.21-.87.76-.79,1.38h0Z"
            />
            <path
              d="M18.27,21.16c-.04.9-.08,1.8.04,2.69.06.51.15,1,.32,1.49.18.51.42,1,.68,1.47.28.52,1.04.72,1.54.4.53-.34.7-.98.4-1.54-.11-.2-.21-.39-.31-.6-.03-.06-.05-.12-.08-.17-.05-.1-.05-.12-.02-.04.05.13-.06-.18-.07-.21-.07-.2-.12-.4-.16-.61-.02-.09-.03-.18-.05-.27-.02-.13-.02-.12,0,.03,0-.04-.01-.09-.02-.14-.09-.83-.05-1.68-.02-2.51.03-.59-.54-1.15-1.12-1.12-.63.03-1.1.49-1.12,1.12h0Z"
            />
            <path
              d="M19.44,23.69c.39,1.24.98,2.29,1.39,3.47s.7,2.39.87,3.63c.08.58.86.96,1.38.79.64-.21.87-.76.79-1.38-.17-1.24-.46-2.45-.87-3.63s-1.03-2.31-1.39-3.47c-.17-.56-.79-.98-1.38-.79s-.97.78-.79,1.38h0Z"
            />
            <path
              d="M20.31,24.79c.64,1.11,1.16,2,1.41,3.19.13.6.24,1.2.47,1.77.25.64.56,1.25.88,1.85.27.52,1.04.72,1.54.4.53-.34.7-.98.4-1.54-.15-.29-.3-.57-.44-.86s-.18-.38-.27-.62c-.22-.6-.31-1.22-.46-1.84-.3-1.25-.95-2.38-1.59-3.48-.3-.51-1.03-.73-1.54-.4s-.72.99-.4,1.54h0Z"
            />
            <path
              d="M21.08,22.56c.26.72.53,1.43.72,2.17.18.67.26,1.33.34,2.01.18,1.5.59,2.91,1.36,4.22.31.52,1.01.71,1.54.4s.71-1.01.4-1.54c-.65-1.11-.96-2.27-1.11-3.56-.17-1.51-.57-2.89-1.09-4.31-.21-.57-.76-.96-1.38-.79-.55.15-1,.81-.79,1.38h0Z"
            />
            <path
              d="M22.36,26.34c.5,2.27,1.04,4.53,1.61,6.79.14.57.81.97,1.38.79s.94-.77.79-1.38c-.57-2.25-1.1-4.52-1.61-6.79-.13-.58-.83-.97-1.38-.79-.6.2-.92.77-.79,1.38h0Z"
            />
            <path
              d="M21.49,22.09c.28-.73.16-1.52.25-2.27l-.04.3c.02-.15.05-.3.1-.44l-.11.27s.03-.06.05-.08l-.18.23.03-.03-.23.18.05-.03-.27.11c.05-.02.1-.03.16-.04l-.3.04c.23-.03.47-.05.69-.13s.43-.17.63-.29c.27-.15.52-.32.8-.44l-.27.11c.12-.05.25-.09.38-.11.26-.04.55-.3.67-.52.14-.24.2-.6.11-.87s-.26-.53-.52-.67c-.28-.15-.55-.16-.87-.11-.64.1-1.14.53-1.72.79l.27-.11c-.14.06-.28.1-.43.12l.3-.04c-.28.03-.53.05-.78.2-.22.13-.41.32-.53.55-.18.34-.22.72-.26,1.09-.05.46,0,.92-.07,1.38l.04-.3c-.03.17-.07.34-.13.5-.1.26-.02.64.11.87s.4.46.67.52c.29.07.61.05.87-.11s.41-.38.52-.67h0Z"
            />
            <path
              d="M20.74,20.07c.08.6.13,1.21.15,1.82.01.3.12.58.33.8.2.2.52.34.8.33s.59-.11.8-.33.34-.49.33-.8c-.02-.61-.07-1.22-.15-1.82,0-.15-.03-.3-.1-.43-.05-.14-.12-.26-.23-.36-.2-.2-.52-.34-.8-.33s-.59.11-.8.33l-.18.23c-.1.18-.15.36-.15.57h0Z"
            />
            <path
              d="M21.42,19.82c-.08.75-.01,1.5.08,2.25.11.83.22,1.65.34,2.48.04.26.3.55.52.67.24.14.6.2.87.11s.53-.26.67-.52c.15-.29.16-.55.11-.87-.05-.36-.1-.73-.15-1.09-.03-.19-.05-.38-.08-.57,0-.07-.05-.34,0-.05-.01-.09-.02-.17-.03-.26-.09-.72-.14-1.44-.07-2.16.06-.59-.56-1.15-1.12-1.12-.66.03-1.06.5-1.12,1.12h0Z"
            />
            <path
              class="cls-2"
              d="M19.36,18.4c-6.52-2.68-10.01-8.02-9.06-12.15.45-1.95,1.99-4.11,4.35-5.14,2.65-1.15,5.62-.55,7.39.71,5.43,3.88,3.15,14.68.93,15.23-.65.16-1.51-.51-2.5,0-.6.31-.93.88-1.11,1.34Z"
            />
            <path
              class="cls-2"
              d="M16.55,19c-.63.52-.94,1.19-1.1,1.65-6.86,1.6-12.8-.73-14.43-4.64-.77-1.85-.76-4.52.57-6.71,1.45-2.39,4.13-3.66,6.43-3.7,7.03-.12,11.59,11.19,10.25,12.56-.29.3-.93.18-1.72.85Z"
            />
            <g>
              <ellipse class="cls-5" cx="51.91" cy="21.8" rx=".18" ry=".2" />
              <path
                class="cls-5"
                d="M51.91,21.1c-.38,0-.68.31-.68.7s.3.7.68.7.68-.31.68-.7-.3-.7-.68-.7h0Z"
              />
            </g>
            <g>
              <ellipse class="cls-5" cx="42.18" cy="21.8" rx=".18" ry=".2" />
              <path
                class="cls-5"
                d="M42.18,21.1c-.38,0-.68.31-.68.7s.3.7.68.7.68-.31.68-.7-.3-.7-.68-.7h0Z"
              />
            </g>
            <g>
              <path
                class="cls-6"
                d="M54.25,27.22c-1.05,0-1.84-.47-1.84-.89s.79-.89,1.84-.89,1.84.47,1.84.89-.79.89-1.84.89Z"
              />
              <path
                class="cls-6"
                d="M54.25,25.94c.72,0,1.17.24,1.31.39-.14.15-.59.39-1.31.39s-1.17-.24-1.31-.39c.14-.15.59-.39,1.31-.39M54.25,24.94c-1.29,0-2.34.62-2.34,1.39s1.05,1.39,2.34,1.39,2.34-.62,2.34-1.39-1.05-1.39-2.34-1.39h0Z"
              />
            </g>
            <g>
              <path
                class="cls-6"
                d="M38.32,27.22c-1.05,0-1.84-.47-1.84-.89s.79-.89,1.84-.89,1.84.47,1.84.89-.79.89-1.84.89Z"
              />
              <path
                class="cls-6"
                d="M38.32,25.94c.72,0,1.17.24,1.31.39-.14.15-.59.39-1.31.39s-1.17-.24-1.31-.39c.14-.15.59-.39,1.31-.39M38.32,24.94c-1.29,0-2.34.62-2.34,1.39s1.05,1.39,2.34,1.39,2.34-.62,2.34-1.39-1.05-1.39-2.34-1.39h0Z"
              />
            </g>
            <path d="M56.09,10.23c1.93,0,1.93-3,0-3s-1.93,3,0,3h0Z" />
            <path d="M37.46,10.49c1.93,0,1.93-3,0-3s-1.93,3,0,3h0Z" />
          </symbol>
          <symbol id="flower-1-element" viewBox="0 0 97.07 94.2">
            <g id="Layer_20" data-name="Layer 20">
              <g id="Layer_12" data-name="Layer 12">
                <g id="Layer_4" data-name="Layer 4">
                  <g>
                    <path
                      fill="#eec2ff"
                      stroke="#3c0b00"
                      stroke-width="0.75"
                      stroke-miterlimit="10"
                      d="M41.82,47.21c-1.72-1.49-30.02-26.44-24.25-37.37.98-1.86,4.16-5.04,7.79-5.54,4.7-.64,8.77,3.11,11.52,4.74.43.25,1.9,1.2,3.47.8,1.61-.41,2.64-1.94,2.76-2.58.66-3.59,5.34-7.56,10.3-6.79,2.91.45,5.12,2.65,5.9,3.58,7.73,9.24-8.65,39.47-10.68,43.15h-6.81Z"
                    />
                    <path
                      fill="#eec2ff"
                      stroke="#3c0b00"
                      stroke-width="0.75"
                      stroke-miterlimit="10"
                      d="M47.23,44.53c.32-2.25,5.86-39.57,18.17-40.67,2.1-.19,6.49.75,8.88,3.52,3.09,3.59,2.16,9.05,2.29,12.25.02.5.02,2.25,1.21,3.34,1.22,1.12,3.07,1.16,3.66.92,3.37-1.39,9.25.37,11.3,4.95,1.2,2.69.56,5.73.2,6.9-3.56,11.51-37.82,14.21-42.02,14.51-1.23-1.91-2.47-3.81-3.7-5.72Z"
                    />
                    <path
                      fill="#eec2ff"
                      stroke="#3c0b00"
                      stroke-width="0.75"
                      stroke-miterlimit="10"
                      d="M51.2,46.16c2.22-.52,38.98-8.97,44.5,2.09.94,1.88,1.67,6.32-.04,9.55-2.22,4.19-7.64,5.31-10.57,6.6-.46.2-2.09.84-2.67,2.35-.6,1.55.04,3.28.48,3.75,2.53,2.63,3.03,8.75-.49,12.33-2.06,2.1-5.13,2.61-6.35,2.7-12.01.89-27.02-30.04-28.83-33.84,1.32-1.84,2.65-3.69,3.97-5.53Z"
                    />
                    <path
                      fill="#eec2ff"
                      stroke="#3c0b00"
                      stroke-width="0.75"
                      stroke-miterlimit="10"
                      d="M48.04,47.64c1.05,2.02,18.3,35.57,8.93,43.64-1.6,1.37-5.71,3.18-9.27,2.31-4.61-1.12-7.03-6.09-9-8.62-.31-.39-1.33-1.82-2.93-2.01-1.65-.2-3.17.84-3.51,1.39-1.93,3.1-7.73,5.09-12.07,2.56-2.54-1.48-3.8-4.33-4.18-5.49-3.82-11.43,22.46-33.59,25.69-36.28,2.11.83,4.23,1.66,6.34,2.49Z"
                    />
                    <path
                      fill="#eec2ff"
                      stroke="#3c0b00"
                      stroke-width="0.75"
                      stroke-miterlimit="10"
                      d="M45.8,49.91c-1.82,1.37-32.15,23.8-41.63,15.86-1.61-1.35-4.06-5.12-3.78-8.77.36-4.73,4.88-7.92,7.05-10.27.34-.37,1.58-1.61,1.51-3.22-.07-1.66-1.34-2.99-1.94-3.24-3.37-1.4-6.28-6.81-4.48-11.5,1.05-2.75,3.66-4.45,4.74-5.01,10.66-5.61,36.77,16.74,39.95,19.5-.48,2.22-.95,4.44-1.43,6.66Z"
                    />

                    <g>
                      <line
                        fill="#ffc210"
                        stroke="#3c0b00"
                        stroke-width="0.75"
                        stroke-miterlimit="10"
                        x1="47.23"
                        y1="43.25"
                        x2="42.56"
                        y2="28.27"
                      />
                      <circle
                        fill="#ffc210"
                        stroke="#3c0b00"
                        stroke-width="0.25"
                        stroke-miterlimit="10"
                        cx="42.18"
                        cy="28.31"
                        r="2.22"
                      />
                    </g>
                    <g>
                      <line
                        fill="#ffc210"
                        stroke="#3c0b00"
                        stroke-width="0.75"
                        stroke-miterlimit="10"
                        x1="50.98"
                        y1="43.25"
                        x2="61.94"
                        y2="32.02"
                      />
                      <circle
                        fill="#ffc210"
                        stroke="#3c0b00"
                        stroke-width="0.25"
                        stroke-miterlimit="10"
                        cx="61.72"
                        cy="31.71"
                        r="2.22"
                      />
                    </g>
                    <g>
                      <line
                        fill="#ffc210"
                        stroke="#3c0b00"
                        stroke-width="0.75"
                        stroke-miterlimit="10"
                        x1="51.58"
                        y1="48.13"
                        x2="64.54"
                        y2="56.96"
                      />
                      <circle
                        fill="#ffc210"
                        stroke="#3c0b00"
                        stroke-width="0.25"
                        stroke-miterlimit="10"
                        cx="64.82"
                        cy="56.69"
                        r="2.22"
                      />
                    </g>
                    <g>
                      <line
                        fill="#ffc210"
                        stroke="#3c0b00"
                        stroke-width="0.75"
                        stroke-miterlimit="10"
                        x1="47.34"
                        y1="50.24"
                        x2="43.34"
                        y2="65.41"
                      />
                      <circle
                        fill="#ffc210"
                        stroke="#3c0b00"
                        stroke-width="0.25"
                        stroke-miterlimit="10"
                        cx="43.68"
                        cy="65.58"
                        r="2.22"
                      />
                    </g>
                    <g>
                      <line
                        fill="#ffc210"
                        stroke="#3c0b00"
                        stroke-width="0.75"
                        stroke-miterlimit="10"
                        x1="43.8"
                        y1="45.63"
                        x2="28.16"
                        y2="44.43"
                      />
                      <circle
                        fill="#ffc210"
                        stroke="#3c0b00"
                        stroke-width="0.25"
                        stroke-miterlimit="10"
                        cx="28.05"
                        cy="44.8"
                        r="2.22"
                      />
                    </g>

                    <circle
                      fill="#ffc210"
                      stroke="#3c0b00"
                      stroke-width="0.75"
                      stroke-miterlimit="10"
                      cx="47.46"
                      cy="47.03"
                      r="9.77"
                    />
                  </g>
                </g>
              </g>
            </g>
          </symbol>
          <symbol id="flower-2-element" viewBox="0 0 97.07 94.2">
            <g id="Layer_20" data-name="Layer 20">
              <g id="Layer_12" data-name="Layer 12">
                <g id="Layer_4" data-name="Layer 4">
                  <g>
                    <path
                      fill="#ff9396"
                      stroke="#3c0b00"
                      stroke-width="0.75"
                      stroke-miterlimit="10"
                      d="M41.82,47.21c-1.72-1.49-30.02-26.44-24.25-37.37.98-1.86,4.16-5.04,7.79-5.54,4.7-.64,8.77,3.11,11.52,4.74.43.25,1.9,1.2,3.47.8,1.61-.41,2.64-1.94,2.76-2.58.66-3.59,5.34-7.56,10.3-6.79,2.91.45,5.12,2.65,5.9,3.58,7.73,9.24-8.65,39.47-10.68,43.15h-6.81Z"
                    />
                    <path
                      fill="#ff9396"
                      stroke="#3c0b00"
                      stroke-width="0.75"
                      stroke-miterlimit="10"
                      d="M47.23,44.53c.32-2.25,5.86-39.57,18.17-40.67,2.1-.19,6.49.75,8.88,3.52,3.09,3.59,2.16,9.05,2.29,12.25.02.5.02,2.25,1.21,3.34,1.22,1.12,3.07,1.16,3.66.92,3.37-1.39,9.25.37,11.3,4.95,1.2,2.69.56,5.73.2,6.9-3.56,11.51-37.82,14.21-42.02,14.51-1.23-1.91-2.47-3.81-3.7-5.72Z"
                    />
                    <path
                      fill="#ff9396"
                      stroke="#3c0b00"
                      stroke-width="0.75"
                      stroke-miterlimit="10"
                      d="M51.2,46.16c2.22-.52,38.98-8.97,44.5,2.09.94,1.88,1.67,6.32-.04,9.55-2.22,4.19-7.64,5.31-10.57,6.6-.46.2-2.09.84-2.67,2.35-.6,1.55.04,3.28.48,3.75,2.53,2.63,3.03,8.75-.49,12.33-2.06,2.1-5.13,2.61-6.35,2.7-12.01.89-27.02-30.04-28.83-33.84,1.32-1.84,2.65-3.69,3.97-5.53Z"
                    />
                    <path
                      fill="#ff9396"
                      stroke="#3c0b00"
                      stroke-width="0.75"
                      stroke-miterlimit="10"
                      d="M48.04,47.64c1.05,2.02,18.3,35.57,8.93,43.64-1.6,1.37-5.71,3.18-9.27,2.31-4.61-1.12-7.03-6.09-9-8.62-.31-.39-1.33-1.82-2.93-2.01-1.65-.2-3.17.84-3.51,1.39-1.93,3.1-7.73,5.09-12.07,2.56-2.54-1.48-3.8-4.33-4.18-5.49-3.82-11.43,22.46-33.59,25.69-36.28,2.11.83,4.23,1.66,6.34,2.49Z"
                    />
                    <path
                      fill="#ff9396"
                      stroke="#3c0b00"
                      stroke-width="0.75"
                      stroke-miterlimit="10"
                      d="M45.8,49.91c-1.82,1.37-32.15,23.8-41.63,15.86-1.61-1.35-4.06-5.12-3.78-8.77.36-4.73,4.88-7.92,7.05-10.27.34-.37,1.58-1.61,1.51-3.22-.07-1.66-1.34-2.99-1.94-3.24-3.37-1.4-6.28-6.81-4.48-11.5,1.05-2.75,3.66-4.45,4.74-5.01,10.66-5.61,36.77,16.74,39.95,19.5-.48,2.22-.95,4.44-1.43,6.66Z"
                    />

                    <g>
                      <line
                        fill="#ffc210"
                        stroke="#3c0b00"
                        stroke-width="0.75"
                        stroke-miterlimit="10"
                        x1="47.23"
                        y1="43.25"
                        x2="42.56"
                        y2="28.27"
                      />
                      <circle
                        fill="#ffc210"
                        stroke="#3c0b00"
                        stroke-width="0.25"
                        stroke-miterlimit="10"
                        cx="42.18"
                        cy="28.31"
                        r="2.22"
                      />
                    </g>
                    <g>
                      <line
                        fill="#ffc210"
                        stroke="#3c0b00"
                        stroke-width="0.75"
                        stroke-miterlimit="10"
                        x1="50.98"
                        y1="43.25"
                        x2="61.94"
                        y2="32.02"
                      />
                      <circle
                        fill="#ffc210"
                        stroke="#3c0b00"
                        stroke-width="0.25"
                        stroke-miterlimit="10"
                        cx="61.72"
                        cy="31.71"
                        r="2.22"
                      />
                    </g>
                    <g>
                      <line
                        fill="#ffc210"
                        stroke="#3c0b00"
                        stroke-width="0.75"
                        stroke-miterlimit="10"
                        x1="51.58"
                        y1="48.13"
                        x2="64.54"
                        y2="56.96"
                      />
                      <circle
                        fill="#ffc210"
                        stroke="#3c0b00"
                        stroke-width="0.25"
                        stroke-miterlimit="10"
                        cx="64.82"
                        cy="56.69"
                        r="2.22"
                      />
                    </g>
                    <g>
                      <line
                        fill="#ffc210"
                        stroke="#3c0b00"
                        stroke-width="0.75"
                        stroke-miterlimit="10"
                        x1="47.34"
                        y1="50.24"
                        x2="43.34"
                        y2="65.41"
                      />
                      <circle
                        fill="#ffc210"
                        stroke="#3c0b00"
                        stroke-width="0.25"
                        stroke-miterlimit="10"
                        cx="43.68"
                        cy="65.58"
                        r="2.22"
                      />
                    </g>
                    <g>
                      <line
                        fill="#ffc210"
                        stroke="#3c0b00"
                        stroke-width="0.75"
                        stroke-miterlimit="10"
                        x1="43.8"
                        y1="45.63"
                        x2="28.16"
                        y2="44.43"
                      />
                      <circle
                        fill="#ffc210"
                        stroke="#3c0b00"
                        stroke-width="0.25"
                        stroke-miterlimit="10"
                        cx="28.05"
                        cy="44.8"
                        r="2.22"
                      />
                    </g>

                    <circle
                      fill="#ffc210"
                      stroke="#3c0b00"
                      stroke-width="0.75"
                      stroke-miterlimit="10"
                      cx="47.46"
                      cy="47.03"
                      r="9.77"
                    />
                  </g>
                </g>
              </g>
            </g>
          </symbol>
          <symbol id="flower-3-element" viewBox="0 0 97.07 94.2">
            <g id="Layer_20" data-name="Layer 20">
              <g id="Layer_12" data-name="Layer 12">
                <g id="Layer_4" data-name="Layer 4">
                  <g>
                    <path
                      fill="#a1dfff"
                      stroke="#3c0b00"
                      stroke-width="0.75"
                      stroke-miterlimit="10"
                      d="M41.82,47.21c-1.72-1.49-30.02-26.44-24.25-37.37.98-1.86,4.16-5.04,7.79-5.54,4.7-.64,8.77,3.11,11.52,4.74.43.25,1.9,1.2,3.47.8,1.61-.41,2.64-1.94,2.76-2.58.66-3.59,5.34-7.56,10.3-6.79,2.91.45,5.12,2.65,5.9,3.58,7.73,9.24-8.65,39.47-10.68,43.15h-6.81Z"
                    />
                    <path
                      fill="#a1dfff"
                      stroke="#3c0b00"
                      stroke-width="0.75"
                      stroke-miterlimit="10"
                      d="M47.23,44.53c.32-2.25,5.86-39.57,18.17-40.67,2.1-.19,6.49.75,8.88,3.52,3.09,3.59,2.16,9.05,2.29,12.25.02.5.02,2.25,1.21,3.34,1.22,1.12,3.07,1.16,3.66.92,3.37-1.39,9.25.37,11.3,4.95,1.2,2.69.56,5.73.2,6.9-3.56,11.51-37.82,14.21-42.02,14.51-1.23-1.91-2.47-3.81-3.7-5.72Z"
                    />
                    <path
                      fill="#a1dfff"
                      stroke="#3c0b00"
                      stroke-width="0.75"
                      stroke-miterlimit="10"
                      d="M51.2,46.16c2.22-.52,38.98-8.97,44.5,2.09.94,1.88,1.67,6.32-.04,9.55-2.22,4.19-7.64,5.31-10.57,6.6-.46.2-2.09.84-2.67,2.35-.6,1.55.04,3.28.48,3.75,2.53,2.63,3.03,8.75-.49,12.33-2.06,2.1-5.13,2.61-6.35,2.7-12.01.89-27.02-30.04-28.83-33.84,1.32-1.84,2.65-3.69,3.97-5.53Z"
                    />
                    <path
                      fill="#a1dfff"
                      stroke="#3c0b00"
                      stroke-width="0.75"
                      stroke-miterlimit="10"
                      d="M48.04,47.64c1.05,2.02,18.3,35.57,8.93,43.64-1.6,1.37-5.71,3.18-9.27,2.31-4.61-1.12-7.03-6.09-9-8.62-.31-.39-1.33-1.82-2.93-2.01-1.65-.2-3.17.84-3.51,1.39-1.93,3.1-7.73,5.09-12.07,2.56-2.54-1.48-3.8-4.33-4.18-5.49-3.82-11.43,22.46-33.59,25.69-36.28,2.11.83,4.23,1.66,6.34,2.49Z"
                    />
                    <path
                      fill="#a1dfff"
                      stroke="#3c0b00"
                      stroke-width="0.75"
                      stroke-miterlimit="10"
                      d="M45.8,49.91c-1.82,1.37-32.15,23.8-41.63,15.86-1.61-1.35-4.06-5.12-3.78-8.77.36-4.73,4.88-7.92,7.05-10.27.34-.37,1.58-1.61,1.51-3.22-.07-1.66-1.34-2.99-1.94-3.24-3.37-1.4-6.28-6.81-4.48-11.5,1.05-2.75,3.66-4.45,4.74-5.01,10.66-5.61,36.77,16.74,39.95,19.5-.48,2.22-.95,4.44-1.43,6.66Z"
                    />

                    <g>
                      <line
                        fill="#ffc210"
                        stroke="#3c0b00"
                        stroke-width="0.75"
                        stroke-miterlimit="10"
                        x1="47.23"
                        y1="43.25"
                        x2="42.56"
                        y2="28.27"
                      />
                      <circle
                        fill="#ffc210"
                        stroke="#3c0b00"
                        stroke-width="0.25"
                        stroke-miterlimit="10"
                        cx="42.18"
                        cy="28.31"
                        r="2.22"
                      />
                    </g>
                    <g>
                      <line
                        fill="#ffc210"
                        stroke="#3c0b00"
                        stroke-width="0.75"
                        stroke-miterlimit="10"
                        x1="50.98"
                        y1="43.25"
                        x2="61.94"
                        y2="32.02"
                      />
                      <circle
                        fill="#ffc210"
                        stroke="#3c0b00"
                        stroke-width="0.25"
                        stroke-miterlimit="10"
                        cx="61.72"
                        cy="31.71"
                        r="2.22"
                      />
                    </g>
                    <g>
                      <line
                        fill="#ffc210"
                        stroke="#3c0b00"
                        stroke-width="0.75"
                        stroke-miterlimit="10"
                        x1="51.58"
                        y1="48.13"
                        x2="64.54"
                        y2="56.96"
                      />
                      <circle
                        fill="#ffc210"
                        stroke="#3c0b00"
                        stroke-width="0.25"
                        stroke-miterlimit="10"
                        cx="64.82"
                        cy="56.69"
                        r="2.22"
                      />
                    </g>
                    <g>
                      <line
                        fill="#ffc210"
                        stroke="#3c0b00"
                        stroke-width="0.75"
                        stroke-miterlimit="10"
                        x1="47.34"
                        y1="50.24"
                        x2="43.34"
                        y2="65.41"
                      />
                      <circle
                        fill="#ffc210"
                        stroke="#3c0b00"
                        stroke-width="0.25"
                        stroke-miterlimit="10"
                        cx="43.68"
                        cy="65.58"
                        r="2.22"
                      />
                    </g>
                    <g>
                      <line
                        fill="#ffc210"
                        stroke="#3c0b00"
                        stroke-width="0.75"
                        stroke-miterlimit="10"
                        x1="43.8"
                        y1="45.63"
                        x2="28.16"
                        y2="44.43"
                      />
                      <circle
                        fill="#ffc210"
                        stroke="#3c0b00"
                        stroke-width="0.25"
                        stroke-miterlimit="10"
                        cx="28.05"
                        cy="44.8"
                        r="2.22"
                      />
                    </g>

                    <circle
                      fill="#ffc210"
                      stroke="#3c0b00"
                      stroke-width="0.75"
                      stroke-miterlimit="10"
                      cx="47.46"
                      cy="47.03"
                      r="9.77"
                    />
                  </g>
                </g>
              </g>
            </g>
          </symbol>

<symbol id="shape-dice" viewBox="0 0 80.44 91">
  <polyline points="38.42 90.5 79.94 66.74 79.94 22.94 38.42 .5 1.94 24.26" style="fill: #fbb040; stroke: #f15a29; stroke-linecap: round; stroke-linejoin: round;"/>
  <polygon points="39.86 45.14 38.42 90.5 .5 68.9 1.94 24.26 39.86 45.14" style="fill: #f15a29; stroke: #f15a29; stroke-linecap: round; stroke-linejoin: round;"/>
  <line x1="39.86" y1="45.14" x2="79.94" y2="22.94" style="fill: #f15a29; stroke: #f15a29; stroke-miterlimit: 10;"/>
  <ellipse cx="10.69" cy="41.66" rx="5.17" ry="6" style="fill: #fbb040; stroke: #f15a29; stroke-miterlimit: 10;"/>
  <ellipse cx="19.39" cy="57.56" rx="5.17" ry="6.18" style="fill: #fbb040; stroke: #f15a29; stroke-miterlimit: 10;"/>
  <ellipse cx="28.43" cy="72.56" rx="5.43" ry="6.66" style="fill: #fbb040; stroke: #f15a29; stroke-miterlimit: 10;"/>
  <ellipse cx="38.78" cy="32.12" rx="6" ry="4.98" style="fill: #f15a29; stroke: #fbb040; stroke-miterlimit: 10;"/>
  <ellipse cx="24.55" cy="23.42" rx="6" ry="5.04" style="fill: #f15a29; stroke: #fbb040; stroke-miterlimit: 10;"/>
  <ellipse cx="38.78" cy="13.46" rx="6" ry="4.32" style="fill: #f15a29; stroke: #fbb040; stroke-miterlimit: 10;"/>
  <ellipse cx="54.17" cy="21.48" rx="6" ry="4.66" style="fill: #f15a29; stroke: #fbb040; stroke-miterlimit: 10;"/>
  <ellipse cx="49.82" cy="50.88" rx="5.04" ry="5.74" style="fill: #f15a29; stroke: #fbb040; stroke-miterlimit: 10;"/>
  <ellipse cx="69.62" cy="41.24" rx="4.68" ry="5.58" style="fill: #f15a29; stroke: #fbb040; stroke-miterlimit: 10;"/>
  <ellipse cx="72.5" cy="61.68" rx="4.32" ry="5.29" style="fill: #f15a29; stroke: #fbb040; stroke-miterlimit: 10;"/>
  <ellipse cx="52.39" cy="70.44" rx="5.19" ry="5.58" style="fill: #f15a29; stroke: #fbb040; stroke-miterlimit: 10;"/>
  <ellipse cx="61.68" cy="56.39" rx="4.1" ry="5.01" style="fill: #f15a29; stroke: #fbb040; stroke-miterlimit: 10;"/>
</symbol>

<symbol id="shape-book" viewBox="0 0 89.87 55.8">
  <polygon points=".65 10.75 37.55 .13 89.57 29.29 49.97 43.33 .65 10.75" style="fill: #bf1500; stroke: #000; stroke-miterlimit: 10; stroke-width: .25px;"/>
  <path d="M89.23,41.8c-13.21,4.59-26.41,9.18-39.62,13.77l.36-12.24,39.6-14.04c-.11,4.17-.23,8.34-.34,12.51Z" style="fill: #fff; stroke: #000; stroke-linecap: round; stroke-miterlimit: 10; stroke-width: .25px;"/>
  <path d="M.13,23.24c16.73,10.78,33.47,21.56,50.2,32.34l.36-12.24C34.01,32.47,17.33,21.61.65,10.75c-.17,4.16-.35,8.32-.52,12.48Z" style="fill: #bf1500; stroke: #000; stroke-miterlimit: 10; stroke-width: .25px;"/>
  <path d="M8.26,15.78v12.54l6.42,3.94v-12.44c-2.14-1.35-4.28-2.69-6.42-4.04Z" style="fill: #86bcbd; stroke: #000; stroke-miterlimit: 10; stroke-width: .25px;"/>
  <line x1="56.83" y1="47.59" x2="83.79" y2="38.54" style="fill: none; stroke: #000; stroke-linecap: round; stroke-miterlimit: 10; stroke-width: .5px;"/>
</symbol>

<symbol  id="shape-tent" viewBox="0 0 96.86 72.74">
  <path d="M5.05,69.37L48.01.73l30.96,68.64c-10.37,1.76-22.84,3.12-36.96,3.12-6.62,0-12.88-.3-18.73-.8-6.62-.56-12.72-1.39-18.23-2.32Z" style="fill: #99ad7a; stroke: #000; stroke-miterlimit: 10; stroke-width: .5px;"/>
  <path d="M78.97,69.37l12.72-9.6C77.21,39.93,62.73,20.09,48.25.25" style="fill: #546b41; stroke: #000; stroke-linecap: round; stroke-miterlimit: 10; stroke-width: .5px;"/>
  <path d="M28.09,48.01l-4.81,23.68c5.56.05,11.13.09,16.69.14,5.72.05,11.44.09,17.16.14l-.08-.4-4.24-21.88-24.72-1.68Z" style="fill: none; stroke: #000; stroke-miterlimit: 10; stroke-width: .5px;"/>
  <polygon points="28.09 44.41 28.09 48.01 52.81 49.69 52.81 47.05 28.09 44.41" style="fill: #99ad7a; stroke: #000; stroke-linecap: round; stroke-linejoin: round; stroke-width: .5px;"/>
  <line x1="36.37" y1="45.29" x2="36.37" y2="48.36" style="fill: none; stroke: #000; stroke-miterlimit: 10; stroke-width: .5px;"/>
  <line x1="33.91" y1="45.03" x2="33.91" y2="48.36" style="fill: none; stroke: #000; stroke-miterlimit: 10; stroke-width: .5px;"/>
  <line x1="44.83" y1="46.2" x2="44.83" y2="48.91" style="fill: none; stroke: #000; stroke-miterlimit: 10; stroke-width: .5px;"/>
  <line x1="47.47" y1="46.58" x2="47.47" y2="49.19" style="fill: none; stroke: #000; stroke-miterlimit: 10; stroke-width: .5px;"/>
  <polygon points=".25 65.17 3.37 65.17 5.89 70.33 3.97 71.17 .25 65.17" style="fill: #99ad7a; stroke: #000; stroke-linecap: round; stroke-linejoin: round; stroke-width: .5px;"/>
  <polygon points="78.25 69.37 80.77 70.45 83.41 63.49 80.17 62.29 78.25 69.37" style="fill: #99ad7a; stroke: #000; stroke-linejoin: round; stroke-width: .5px;"/>
  <polygon points="94.33 54.55 91.69 59.77 94.33 61.39 96.61 55.93 94.33 54.55" style="fill: #546b41; stroke: #000; stroke-linejoin: round; stroke-width: .5px;"/>
  <line x1="42.01" y1="12.57" x2="49.3" y2="12.77" style="fill: none; stroke: #000; stroke-linecap: round; stroke-miterlimit: 10; stroke-width: .5px;"/>
  <line x1="53.06" y1="12.24" x2="55.67" y2="10.48" style="fill: none; stroke: #000; stroke-miterlimit: 10; stroke-width: .5px;"/>
  <polyline points="39.25 48.93 38.75 62.63 23.36 71.65 28.3 48.01" style="fill: #b2a68c; stroke: #b2a68c; stroke-miterlimit: 10; stroke-width: .25px;"/>
  <path d="M38.11,62.89l17.25.43-2.55-13.5c-4.74-.27-9.48-.53-14.22-.8" style="fill: #a69a81; stroke: #a69a81; stroke-miterlimit: 10; stroke-width: .25px;"/>
  <path d="M55.35,63.24l1.69,8.75c-5.38.21-11,.31-16.85.26-5.85-.05-11.47-.24-16.85-.53,4.92-2.96,9.84-5.93,14.75-8.89l17.25.42Z" style="fill: #938a76; stroke: #938a76; stroke-miterlimit: 10; stroke-width: .1px;"/>
</symbol>

<symbol id="shape-baseball" viewBox="0 0 100 100">
            <circle cx="50" cy="50" r="40" fill="#ffffff" stroke="#2c3e50" stroke-width="2.5" />
            
            <path d="M 32,14 Q 48,50 32,86" fill="none" stroke="#bdc3c7" stroke-width="1.5" />
            <path d="M 32,14 Q 48,50 32,86" fill="none" stroke="#e74c3c" stroke-width="3" stroke-dasharray="3,4" />

            <path d="M 68,14 Q 52,50 68,86" fill="none" stroke="#bdc3c7" stroke-width="1.5" />
            <path d="M 68,14 Q 52,50 68,86" fill="none" stroke="#e74c3c" stroke-width="3" stroke-dasharray="3,4" />
</symbol>

<symbol id="shape-watermelon" viewBox="0 0 86.02 72.42">
  <path d="M4.56,52.09C18.21,34.92,31.87,17.75,45.52.59c3.69,20.74,7.39,41.49,11.08,62.23-10.97-.05-19.79-1.03-26.06-2-6.13-.94-9.83-1.87-13.29-3.03-5.41-1.81-9.7-3.98-12.7-5.71Z" style="fill: #e3525f; stroke: #000; stroke-miterlimit: 10; stroke-width: .5px;"/>
  <path d="M56.6,62.82c3.81-3.88,7.95-8.58,12.05-14.15,3.64-4.95,6.6-9.71,9-14.04L45.52.59" style="fill: #e3525f; stroke: #000; stroke-miterlimit: 10; stroke-width: .5px;"/>
  <path d="M56.6,62.82c.78,2.96,1.55,5.92,2.33,8.89-9.72,1.08-26.06,1.42-43.74-5.94-5.9-2.46-10.91-5.34-15.07-8.18,1.48-1.83,2.95-3.67,4.43-5.5,5.95,2.94,13.9,6.18,23.61,8.35,11.31,2.53,21.17,2.77,28.43,2.39Z" style="fill: #8dc471; stroke: #000; stroke-linecap: round; stroke-linejoin: round; stroke-width: .25px;"/>
  <path d="M78,34.44c2.62,2.58,5.24,5.16,7.87,7.74-2.53,4.46-6.07,9.81-10.98,15.3-5.61,6.28-11.28,10.84-15.92,14.04l-2.37-9.52c3.58-3.15,7.67-7.23,11.7-12.36,4.32-5.5,7.45-10.77,9.7-15.21Z" style="fill: #8dc471; stroke: #000; stroke-miterlimit: 10; stroke-width: .25px;"/>
  <path d="M81.94,38.32c-2.4,4.37-5.61,9.42-9.88,14.67-4.83,5.94-9.73,10.53-13.94,13.99-6.82.89-17.98,1.47-31.03-1.93-10.9-2.84-19.12-7.4-24.42-10.92" style="fill: none; stroke: #000; stroke-miterlimit: 10; stroke-width: .25px;"/>
  <ellipse cx="43.03" cy="15.43" rx="1.56" ry="1.03" transform="translate(13.85 50.61) rotate(-70.06)"  style="fill: #000; stroke-miterlimit: 10; stroke-width: .5px;"/>
  <ellipse cx="34.33" cy="23.95" rx="1.56" ry="1.03" transform="translate(-3.57 41.71) rotate(-60)"  style="fill: #000; stroke-miterlimit: 10; stroke-width: .5px;"/>
  <ellipse cx="43.03" cy="27.65" rx="1.56" ry="1.03" transform="translate(3.49 60.1) rotate(-72.11)"  style="fill: #000;stroke-miterlimit: 10; stroke-width: .5px;"/>
  <ellipse cx="37.33" cy="33.07" rx="1.56" ry="1.03" transform="translate(-3.9 61.12) rotate(-75.76)"  style="fill: #000;stroke-miterlimit: 10; stroke-width: .5px;"/>
  <ellipse cx="45.52" cy="38.83" rx="1.56" ry="1.03" transform="translate(-5.41 70.22) rotate(-72.11)"  style="fill: #000;stroke-miterlimit: 10; stroke-width: .5px;"/>
  <ellipse cx="33.31" cy="42.43" rx="1.56" ry="1.03" transform="translate(-18.06 58.89) rotate(-69.64)"  style="fill: #000;stroke-miterlimit: 10; stroke-width: .25px;"/>
  <ellipse cx="24.37" cy="35.63" rx="1.56" ry="1.03" transform="translate(-18.49 40.74) rotate(-62.43)"  style="fill: #000;stroke-miterlimit: 10; stroke-width: .5px;"/>
  <ellipse cx="59.96" cy="39.31" rx="1.03" ry="1.56"  style="fill: #000; stroke-miterlimit: 10; stroke-width: .5px;"/>
  <ellipse cx="55.09" cy="33.07" rx="1.03" ry="1.56" transform="translate(-4.12 8.12) rotate(-8.13)"  style="fill: #000;stroke-miterlimit: 10; stroke-width: .5px;"/>
  <ellipse cx="64.93" cy="28.63" rx="1.03" ry="1.56" transform="translate(-5.3 18.48) rotate(-15.57)"  style="fill: #000;stroke-miterlimit: 10; stroke-width: .5px;"/>
  <ellipse cx="58.87" cy="25.09" rx="1.03" ry="1.56" transform="translate(-5 21.13) rotate(-19.54)"  style="fill: #000;stroke-miterlimit: 10; stroke-width: .5px;"/>
  <ellipse cx="53.35" cy="23.58" rx="1.03" ry="1.56" transform="translate(-4.81 19.2) rotate(-19.54)"  style="fill: #000;stroke-miterlimit: 10; stroke-width: .5px;"/>
  <ellipse cx="54.1" cy="16.99" rx="1.03" ry="1.56" transform="translate(-1.82 26.37) rotate(-26.95)"  style="fill: #000;stroke-miterlimit: 10; stroke-width: .5px;"/>
</symbol>

<symbol id="shape-cake" viewBox="0 0 77.35 83.67">
  <path d="M73.28,74.12c.18,3.77-18.04,8.92-35.1,8.92S2.9,77.89,3.08,74.12c.19-3.97,20.69-6.39,35.1-6.39s34.91,2.42,35.1,6.39Z" style="fill: #fee7d7; stroke: #000; stroke-miterlimit: 10; stroke-width: .5px;"/>
  <polyline points="3.08 74.12 3.08 34.26 73.28 34.26 73.28 74.12" style="fill: #fee7d7; stroke: #000; stroke-miterlimit: 10; stroke-width: .5px;"/>
  <path d="M.47,35.52c-.29,1.1-.25,1.81-.13,7.32.07,3.14.11,5.68.13,7.26.02.11.16.81.81,1.17.61.33,1.37.2,1.8-.18.51-.46.49-1.24.45-2.7-.04-1.38-.26-1.88.09-2.34.34-.44.96-.53,1.44-.54.87.53,1.35,1.11,1.62,1.53.58.9.53,1.55,1.17,2.16.52.5,1.18.66,1.62.72.15.08.67.32,1.35.18.68-.14,1.07-.59,1.17-.72.24.93.74,2.28,1.8,3.6.39.48.79.88,1.17,1.21.32.08,1,.21,1.8,0,.99-.26,1.58-.87,1.8-1.12.73-.77,1.46-1.54,2.19-2.31.57-.35,1.15-.69,1.72-1.04.95-.17,1.91.27,2.39,1.1.45.79.38,1.79-.18,2.52-.26.8-.54,1.99-.45,3.42.04.65.14,1.22.27,1.71.03.13.34,1.25,1.44,1.71.9.37,1.96.16,2.7-.54.39-.72.78-1.44,1.17-2.16.03-1.1.06-2.19.09-3.29-.08-.42-.27-1.73.45-3.1,1.01-1.91,2.99-2.36,3.28-2.42.6.31,1.47.86,2.3,1.79,1.04,1.16,1.5,2.36,1.71,3.06.09.32.3.86.81,1.26.85.67,2.18.68,3.33,0,.51-.57,1.02-1.14,1.53-1.71.15-.91.77-1.67,1.62-1.98.9-.33,1.91-.12,2.61.54.9.27,1.8.54,2.7.81.9.27,1.8.54,2.7.81.54.13,1.48.28,2.61.09,1.19-.2,2.05-.68,2.52-.99,1.56-1.08,3.12-2.16,4.68-3.24.19-.09,1.27-.57,2.52-.09,1.23.47,1.71,1.51,1.8,1.71.51.85,1.02,1.75,1.53,2.7.33.62.64,1.23.93,1.83.68.17,1.56.27,2.04-.21.71-.69.06-2.1-.09-4.23-.08-1.08-.04-2.58.45-4.41.45-.27.9-.54,1.35-.81.24,2.19.48,4.38.72,6.57.05.07.39.58.99.63.61.05,1.22-.38,1.44-1.08.14-2.01.25-4.93.09-8.46-.19-4.12-.33-7.03-.99-9-2.91-8.62-19.87-10.52-29.4-11.58-8.83-.99-15.09-.34-20.64.24-8.95.93-13.37,2.49-17.04,4.56-2.99,1.69-6.89,3.96-7.98,8.04Z" style="fill: #f5a0bd; stroke: #000; stroke-miterlimit: 10; stroke-width: .5px;"/>
  <path d="M14.18,15.3c-.2,1.79-.35,3.72-.42,5.76-.09,2.42-.05,4.69.06,6.78.02.33.14,1.42,1.02,2.34.58.6,1.22.85,1.56.96.3-.11.74-.31,1.14-.72.97-.99.86-2.35.84-2.58l-.27-6.96c-.07-1.86-.14-3.72-.21-5.58" style="fill: #c50d27; stroke: #000; stroke-linecap: round; stroke-miterlimit: 10; stroke-width: .5px;"/>
  <g>
    <g>
      <path d="M15.8,14.19v-1.56c.22,0,.66-.02,1.05-.3.07-.05.35-.26.63-.96.15-.36.34-.96.37-1.74.06-.43.08-1.02-.07-1.68-.37-1.69-1.56-2.68-1.98-3" style="fill: #f9ed32; stroke: #000; stroke-linecap: round; stroke-miterlimit: 10; stroke-width: .5px;"/>
      <path d="M15.66,3.26c-.22,1.12-.44,2.24-.66,3.36-.24.47-.51,1.14-.66,1.98-.18.99-.13,1.83-.05,2.4-.06.58.19,1.13.65,1.44.56.37,1.17.21,1.26.18" style="fill: #f9ed32; stroke: #000; stroke-linecap: round; stroke-miterlimit: 10; stroke-width: .5px;"/>
    </g>
    <path d="M15.89,7.97c-.18.31-.36.62-.53.93-.04.17-.09.41-.1.71-.02.4-.02.6.11.74.23.24.68.12.75.11.08-.22.16-.44.24-.67-.04-.34-.08-.69-.12-1.03-.11-.27-.23-.53-.34-.8Z" style="fill: #d41c00; stroke: #d41c00; stroke-miterlimit: 10; stroke-width: .25px;"/>
  </g>
  <g>
    <path d="M30.42,20.28c.2,1.79.35,3.72.42,5.76.09,2.42.05,4.69-.06,6.78-.02.33-.14,1.42-1.02,2.34-.58.6-1.22.85-1.56.96-.3-.11-.74-.31-1.14-.72-.97-.99-.86-2.35-.84-2.58l.27-6.96c.07-1.86.14-3.72.21-5.58" style="fill: #c50d27; stroke: #000; stroke-linecap: round; stroke-miterlimit: 10; stroke-width: .5px;"/>
    <g>
      <g>
        <path d="M28.8,19.17v-1.56c-.22,0-.66-.02-1.05-.3-.07-.05-.35-.26-.63-.96-.15-.36-.34-.96-.37-1.74-.06-.43-.08-1.02.07-1.68.37-1.69,1.56-2.68,1.98-3" style="fill: #f9ed32; stroke: #000; stroke-linecap: round; stroke-miterlimit: 10; stroke-width: .5px;"/>
        <path d="M28.94,8.23c.22,1.12.44,2.24.66,3.36.24.47.51,1.14.66,1.98.18.99.13,1.83.05,2.4.06.58-.19,1.13-.65,1.44-.56.37-1.17.21-1.26.18" style="fill: #f9ed32; stroke: #000; stroke-linecap: round; stroke-miterlimit: 10; stroke-width: .5px;"/>
      </g>
      <path d="M28.71,12.94c.18.31.36.62.53.93.04.17.09.41.1.71.02.4.02.6-.11.74-.23.24-.68.12-.75.11-.08-.22-.16-.44-.24-.67.04-.34.08-.69.12-1.03.11-.27.23-.53.34-.8Z" style="fill: #d41c00; stroke: #d41c00; stroke-miterlimit: 10; stroke-width: .25px;"/>
    </g>
  </g>
  <g>
    <path d="M36.55,12.3c-.2,1.79-.35,3.72-.42,5.76-.09,2.42-.05,4.69.06,6.78.02.33.14,1.42,1.02,2.34.58.6,1.22.85,1.56.96.3-.11.74-.31,1.14-.72.97-.99.86-2.35.84-2.58l-.27-6.96c-.07-1.86-.14-3.72-.21-5.58" style="fill: #c50d27; stroke: #000; stroke-linecap: round; stroke-miterlimit: 10; stroke-width: .5px;"/>
    <g>
      <g>
        <path d="M38.17,11.19v-1.56c.22,0,.66-.02,1.05-.3.07-.05.35-.26.63-.96.15-.36.34-.96.37-1.74.06-.43.08-1.02-.07-1.68-.37-1.69-1.56-2.68-1.98-3" style="fill: #f9ed32; stroke: #000; stroke-linecap: round; stroke-miterlimit: 10; stroke-width: .5px;"/>
        <path d="M38.03.25c-.22,1.12-.44,2.24-.66,3.36-.24.47-.51,1.14-.66,1.98-.18.99-.13,1.83-.05,2.4-.06.58.19,1.13.65,1.44.56.37,1.17.21,1.26.18" style="fill: #f9ed32; stroke: #000; stroke-linecap: round; stroke-miterlimit: 10; stroke-width: .5px;"/>
      </g>
      <path d="M38.26,4.96c-.18.31-.36.62-.53.93-.04.17-.09.41-.1.71-.02.4-.02.6.11.74.23.24.68.12.75.11.08-.22.16-.44.24-.67-.04-.34-.08-.69-.12-1.03-.11-.27-.23-.53-.34-.8Z" style="fill: #d41c00; stroke: #d41c00; stroke-miterlimit: 10; stroke-width: .25px;"/>
    </g>
  </g>
  <g>
    <path d="M50.94,20.28c.2,1.79.35,3.72.42,5.76.09,2.42.05,4.69-.06,6.78-.02.33-.14,1.42-1.02,2.34-.58.6-1.22.85-1.56.96-.3-.11-.74-.31-1.14-.72-.97-.99-.86-2.35-.84-2.58l.27-6.96c.07-1.86.14-3.72.21-5.58" style="fill: #c50d27; stroke: #000; stroke-linecap: round; stroke-miterlimit: 10; stroke-width: .5px;"/>
    <g>
      <g>
        <path d="M49.32,19.17v-1.56c-.22,0-.66-.02-1.05-.3-.07-.05-.35-.26-.63-.96-.15-.36-.34-.96-.37-1.74-.06-.43-.08-1.02.07-1.68.37-1.69,1.56-2.68,1.98-3" style="fill: #f9ed32; stroke: #000; stroke-linecap: round; stroke-miterlimit: 10; stroke-width: .5px;"/>
        <path d="M49.46,8.23c.22,1.12.44,2.24.66,3.36.24.47.51,1.14.66,1.98.18.99.13,1.83.05,2.4.06.58-.19,1.13-.65,1.44-.56.37-1.17.21-1.26.18" style="fill: #f9ed32; stroke: #000; stroke-linecap: round; stroke-miterlimit: 10; stroke-width: .5px;"/>
      </g>
      <path d="M49.23,12.94c.18.31.36.62.53.93.04.17.09.41.1.71.02.4.02.6-.11.74-.23.24-.68.12-.75.11-.08-.22-.16-.44-.24-.67.04-.34.08-.69.12-1.03.11-.27.23-.53.34-.8Z" style="fill: #d41c00; stroke: #d41c00; stroke-miterlimit: 10; stroke-width: .25px;"/>
    </g>
  </g>
  <g>
    <path d="M59.44,17.27c-.2,1.79-.35,3.72-.42,5.76-.09,2.42-.05,4.69.06,6.78.02.33.14,1.42,1.02,2.34.58.6,1.22.85,1.56.96.3-.11.74-.31,1.14-.72.97-.99.86-2.35.84-2.58l-.27-6.96c-.07-1.86-.14-3.72-.21-5.58" style="fill: #c50d27; stroke: #000; stroke-linecap: round; stroke-miterlimit: 10; stroke-width: .5px;"/>
    <g>
      <g>
        <path d="M61.06,16.16v-1.56c.22,0,.66-.02,1.05-.3.07-.05.35-.26.63-.96.15-.36.34-.96.37-1.74.06-.43.08-1.02-.07-1.68-.37-1.69-1.56-2.68-1.98-3" style="fill: #f9ed32; stroke: #000; stroke-linecap: round; stroke-miterlimit: 10; stroke-width: .5px;"/>
        <path d="M60.92,5.22c-.22,1.12-.44,2.24-.66,3.36-.24.47-.51,1.14-.66,1.98-.18.99-.13,1.83-.05,2.4-.06.58.19,1.13.65,1.44.56.37,1.17.21,1.26.18" style="fill: #f9ed32; stroke: #000; stroke-linecap: round; stroke-miterlimit: 10; stroke-width: .5px;"/>
      </g>
      <path d="M61.15,9.93c-.18.31-.36.62-.53.93-.04.17-.09.41-.1.71-.02.4-.02.6.11.74.23.24.68.12.75.11.08-.22.16-.44.24-.67-.04-.34-.08-.69-.12-1.03-.11-.27-.23-.53-.34-.8Z" style="fill: #d41c00; stroke: #d41c00; stroke-miterlimit: 10; stroke-width: .25px;"/>
    </g>
  </g>
  <path d="M8.85,38.39c3.86,1.53,8.61,3.08,14.16,4.19,5.27,1.05,10.02,1.47,14.01,1.57,4.7-.07,10.23-.49,16.35-1.57,6.15-1.09,11.51-2.63,15.96-4.19" style="fill: none; stroke: #000; stroke-linecap: round; stroke-miterlimit: 10; stroke-width: .5px;"/>
</symbol>

<symbol id="shape-bd" viewBox="0 0 59.81 74.51">
  <path d="M50.26,67.14c-.06,3.03-9.86,5.55-14.76,6.31-3.15.49-6.02.51-10.56.54-4.83.04-7.24.05-10.02-.36-5.31-.79-14.39-3.48-14.42-6.49-.03-3.6,12.96-7.66,24.88-7.65,12.02,0,24.95,4.15,24.88,7.65Z" style="fill: #89b5dc; stroke: #89b5dc; stroke-miterlimit: 10;"/>
  <polyline points="50.26 67.14 25.37 11.53 .5 67.14" style="fill: #89b5dc; stroke: #89b5dc; stroke-miterlimit: 10;"/>
  <path d="M58.81,5.41c-.75,1.1-1.95,2.58-3.75,3.96-1.36,1.04-2.68,1.72-3.72,2.16-.82.42-2.62,1.18-4.59.63-1.07-.3-1.89-.78-2.34-1.35-2.13-2.73-4.26-5.46-6.39-8.19-.48-.39-2.11-1.6-4.5-1.62-2.73-.03-4.54,1.52-4.95,1.89-.43.28-1.13.82-1.71,1.71-.48.73-.69,1.43-.8,1.89-.23.99-.63,2.67-.69,5.04" style="fill: none; stroke: #89b5dc; stroke-linecap: round; stroke-miterlimit: 10; stroke-width: 2px;"/>
  <path d="M53.44,24.46c-1.56.81-4.07,1.84-7.29,2.07-1.63.12-3.06,0-4.23-.18-.46-.08-1.16-.27-1.89-.72-.16-.1-.62-.39-1.26-1.08,0,0-.93-1-1.6-2.24-.77-1.44-1.9-5.2-2.63-10.36-.1-.31-.71-2.14-2.58-2.98-2.17-.97-4.21.2-4.62.46-1.14.7-1.72,1.66-1.97,2.14" style="fill: none; stroke: #f6a353; stroke-linecap: round; stroke-miterlimit: 10; stroke-width: 2px;"/>
  <circle cx="28.38" cy="46.6" r="5.08" style="fill: #ef839b; stroke: #ef839b; stroke-linecap: round; stroke-linejoin: round;"/>
  <circle cx="20.2" cy="62.41" r="5.18" style="fill: #fad467; stroke: #fad467; stroke-linecap: round; stroke-linejoin: round;"/>
  <path d="M32.4,73.42c-.47-2.68,1.31-5.23,3.99-5.7,2.68-.47,5.23,1.31,5.7,3.99-1.36.51-3.05,1.02-5.02,1.35-1.76.29-3.33.38-4.66.37Z" style="fill: #f6a353; stroke: #f6a353; stroke-miterlimit: 10;"/>
  <path d="M34.82,32.78c-2.86,1.31-6.14.28-7.33-2.3s.18-5.74,3.04-7.06l4.29,9.36Z" style="fill: #fad467; stroke: #fad467; stroke-miterlimit: 10;"/>
  <path d="M10.97,44.08c2.86,1.32,4.21,4.49,3.01,7.07s-4.48,3.6-7.34,2.28l4.33-9.34Z" style="fill: #f6a353; stroke: #f6a353; stroke-miterlimit: 10;"/>
  <path d="M17.98,28.38c1.84.85,2.71,2.89,1.94,4.55s-2.88,2.32-4.72,1.46l2.79-6.02Z" style="fill: #90c99c; stroke: #90c99c; stroke-miterlimit: 10;"/>
  <path d="M47.05,60.23c-2.87,1.31-6.14.27-7.33-2.32s.18-5.74,3.05-7.05l4.28,9.37Z" style="fill: #90c99c; stroke: #90c99c; stroke-miterlimit: 10;"/>
</symbol>

<symbol id="shape-aqua" viewBox="0 0 78.64 61.54">
   <polygon points="1.51 13.7 1.51 41.6 41.47 60.5 41.47 28.46 1.51 13.7" style="fill: #86bcbd; stroke: #000; stroke-miterlimit: 10; stroke-width: .5px;"/>
  <polygon points="1.51 14.15 .25 13.7 .25 5.42 35.65 .26 77.89 15.02 77.89 22.82 76.75 22.82 41.47 28.46 1.51 14.15" style="fill: #674e3a; stroke: #000; stroke-miterlimit: 10; stroke-width: .5px;"/>
  <polyline points="35.65 .26 35.65 7.58 14.29 10.46 41.47 21.38 63.49 17.54 35.93 7.53" style="fill: #86bcbd; stroke: #000; stroke-miterlimit: 10; stroke-width: .5px;"/>
  <line x1=".25" y1="5.42" x2="14.29" y2="10.46" style="fill: none; stroke: #000; stroke-miterlimit: 10; stroke-width: .5px;"/>
  <line x1="63.49" y1="17.54" x2="77.89" y2="15.02" style="fill: none; stroke: #000; stroke-miterlimit: 10; stroke-width: .5px;"/>
  <polyline points="41.47 21.38 41.47 28.46 76.75 22.34 76.75 50.6 41.47 60.5 41.47 28.46" style="fill: #86bcbd; stroke: #000; stroke-miterlimit: 10; stroke-width: .5px;"/>
  <path d="M1.51,41.6c.35-.67,1.06-1.82,2.34-2.83,1.34-1.06,2.67-1.49,3.42-1.67,1.18-.27,2.82-.51,4.77-.4,2.1.11,3.82.58,5.01,1.01.97-.88,2.39-1.99,4.31-2.9,2.66-1.26,5.09-1.59,6.61-1.67,1.54-.15,3.68-.2,6.17.27,2.87.54,5.09,1.56,6.56,2.37,1.59.3,3.86.92,6.27,2.31,1.62.93,2.88,1.96,3.81,2.85.82-.26,2.66-.72,4.88-.19,1.65.39,2.82,1.16,3.47,1.67,1.46,1.27,2.92,2.54,4.38,3.81,1.74-.12,4.82-.09,8.26,1.32,2.23.91,3.89,2.11,5,3.06l-34.82,9.77" style="fill: #ecb272; stroke: #000; stroke-miterlimit: 10; stroke-width: .5px;"/>
  <line x1="41.47" y1="29" x2="41.47" y2="60.5" style="fill: #86bcbd; stroke: #000; stroke-miterlimit: 10; stroke-width: .5px;"/>
</symbol>

<symbol id="shape-mug" viewBox="0 0 54.55 64.12">
  <path d="M38.67,56.89c.18,2.65-9.76,6.48-19.21,6.48S.07,59.54.25,56.89c.19-2.8,11.66-4.26,19.21-4.26s19.02,1.47,19.21,4.26Z" style="fill: #ffb399; stroke: #ffb399; stroke-miterlimit: 10; stroke-width: .5px;"/>
  <path d="M37.45,58.69c-1.14.98-3.74.92-7.95.94-3.63,0-8.3,0-12.71,0-5.55-.2-10.31.51-14.59-.54-2.06-.84-1.76-3.48-1.87-5.62-.02-10.01-.02-35.89,0-45.74-.03-4.92.71-6.06,6.35-5.98,6.1-.03,14.48-.01,20.96-.02,2.52.02,4.82-.06,7.18.14,3.01.27,3.63,1.34,3.74,4.81.11,12.29,0,25.61.04,37.86,0,2.26,0,4.44,0,6.64-.02,4.11.06,6.45-1.09,7.46l-.06.05Z" style="fill: #ffb399; stroke: #ffb399; stroke-miterlimit: 10; stroke-width: .5px;"/>
  <path d="M37.44,3.45c.08,1.92-9.2,4.63-17.98,4.63S1.4,5.37,1.48,3.45C1.56,1.41,12.18.25,19.46.25s17.9,1.16,17.98,3.2Z" style="fill: #ffd6a6; stroke: #ff9a86; stroke-miterlimit: 10; stroke-width: .5px;"/>
  <path d="M34.53,4.66c0,1.46-8.19,2.86-15.07,2.86s-15.06-1.41-15.07-2.86c0-1.45,8.11-2.94,15.07-2.94s15.07,1.49,15.07,2.94Z" style="fill: #a97c50; stroke: #a97c50; stroke-miterlimit: 10; stroke-width: .5px;"/>
  <path d="M39.78,21.28c.74-1.09.76-1.6,1.4-2.28.74-.78,1.63-1.08,2.26-1.2.52.02,4.77.26,6.35,3.48,1.79,3.64-1.21,8.21-2.58,10.32-1.92,2.93-5.93,7.01-8.94,6.48-.35-.06-1.21-.28-1.7.24-.46.48-.18,1.16-.31,3.36-.09,1.45-.24,1.77,0,2.13.55.83,2.21.43,2.85.26,0,0,.24-.06.44-.13,3.01-1.05,7.13-6.22,7.13-6.22,3.15-3.95,4.74-5.96,5.53-7.79.87-2,1.26-3.74,1.44-5.29.18-1.58.34-3.15-.29-4.92-.67-1.89-1.87-2.96-2.59-3.6-1.54-1.37-3.02-1.84-5.06-2.52-1.66-.55-2.84-.7-4.52-.92-2.99-.39-3.51-.03-3.73.16-.94.79-.98,2.29-1.03,4.42,0,.32-.1,5.78,1.2,6.07.67.15,1.51-1.1,2.15-2.04Z" style="fill: #ffb399; stroke: #ffb399; stroke-miterlimit: 10; stroke-width: .5px;"/>
  <path d="M16.22,62.79c-.06-.4,1.44-1.22,9.38-3.12,1.5-.73,3.67-2.04,5.4-4.35,3.61-4.83,2.46-10.54,1.99-19.4-.25-4.84-.58-12.17-.75-21.36-.41-2.4-.83-4.8-1.24-7.2,2.38-1.31,4.77-2.62,7.15-3.93.12.31.27.77.4,1.34.31,1.38.25,2.41.21,3.72-.03.95-.04,2.31,0,4.01-.05,14.55-.1,29.11-.14,43.66,0,.19,0,1.5-.96,2.47-.23.23-.45.37-.74.54-1.73,1.01-2.95,1.45-2.95,1.45-4.76,1.7-7.87,2.16-7.87,2.16-4.24.63-9.78.74-9.89,0Z" style="fill: #ff9a86; stroke: #ff9a86; stroke-miterlimit: 10; stroke-width: .5px;"/>
  <path d="M38.61,12.5c1.13.02,2.41.11,3.82.34,1.52.25,2.86.61,4.01,1,.82.2,2.07.62,3.4,1.55,1.34.94,2.23,2.03,2.74,2.77-1.63.29-3.26.58-4.9.86-.57-.36-1.5-.84-2.72-1.03-.93-.15-1.73-.08-2.29.02-1.09.54-1.69,1.21-2.04,1.74-.3.46-.41.81-.86,1.52-.43.69-.86,1.19-1.16,1.52" style="fill: #ff9a86; stroke: #ff9a86; stroke-miterlimit: 10; stroke-width: .5px;"/>
  <path d="M38.61,38.11c.94-.16,2.34-.52,3.84-1.45,1.95-1.19,3.14-2.75,3.76-3.69.15,1.58.31,3.16.46,4.74-.81,1.12-2,2.54-3.67,3.89-1.68,1.36-3.29,2.19-4.5,2.7" style="fill: #ff9a86; stroke: #ff9a86; stroke-miterlimit: 10; stroke-width: .5px;"/>
  
  <circle cx="11.25" cy="25.66" r="2.86" style="fill: #000; stroke: #000; stroke-miterlimit: 10; stroke-width: .5px;"/>
  <circle cx="12.24" cy="23.86" r=".69" style="fill: #fff; stroke: #fff; stroke-miterlimit: 10; stroke-width: .5px;"/>
  
  <path d="M15.22,32.14c1.16,2.21,4.61,2.21,5.78,0h-5.78Z" style="fill: #ed1c24; stroke: #ed1c24; stroke-miterlimit: 10; stroke-width: .5px;"/>
  <path d="M19.46,7.53c.76-.09,2.1-.24,4-.48.22-.03,1.49-.31,2.97-1.03,1.02-.5,1.25-.78,1.29-1.08.08-.6-.67-1.19-1.06-1.5-.37-.29-.71-.46-1.27-.7-.59-.25-1.41-.57-2.43-.89,1.45.07,3.05.23,4.76.49,1.6.25,3.08.57,4.41.91.33.04.96.15,1.59.6.39.28.65.59.81.82-.17.23-.43.54-.83.82-.68.48-1.34.58-1.87.67-1.93.32-.34.23-3.27.67-1.42.21-2.74.41-4.61.55-1.26.1-2.78.17-4.5.16Z" style="fill: #754c29; stroke: #754c29; stroke-linecap: round; stroke-linejoin: round; stroke-width: .5px;"/>
  
  <circle cx="24.65" cy="25.55" r="2.86" style="fill: #000; stroke: #000; stroke-miterlimit: 10; stroke-width: .5px;"/>
  <circle cx="25.89" cy="23.86" r=".69" style="fill: #fff; stroke: #fff; stroke-miterlimit: 10; stroke-width: .5px;"/>
</symbol>

<symbol id="shape-rubix" viewBox="0 0 78.98 85.88">
  <polygon points=".34 13.99 3.58 60.07 40.12 85.63 40.12 31.09 .34 13.99" style="fill: #eaa0a1; stroke: #000; stroke-miterlimit: 10; stroke-width: .25px;"/>
  <polygon points="39.04 .13 .34 13.99 40.12 31.09 78.64 13.99 39.04 .13" style="fill: #f8be44; stroke: #000; stroke-miterlimit: 10; stroke-width: .25px;"/>
  <polygon points="78.64 13.99 76.3 59.35 40.12 85.63 40.12 31.09 78.64 13.99" style="fill: #39b54a; stroke: #000; stroke-miterlimit: 10; stroke-width: .25px;"/>
  <polyline points="14.71 67.86 12.91 19.4 51.4 4.46" style="fill: none; stroke: #000; stroke-miterlimit: 10; stroke-width: .25px;"/>
  <polyline points="27.57 76.85 26.46 25.22 64.94 9.2" style="fill: none; stroke: #000; stroke-miterlimit: 10; stroke-width: .25px;"/>
  <polyline points="1.43 29.48 39.49 49.81 77.8 30.21" style="fill: none; stroke: #000; stroke-miterlimit: 10; stroke-width: .25px;"/>
  <polyline points="2.54 45.32 39.49 67.86 77.02 45.32" style="fill: none; stroke: #000; stroke-miterlimit: 10; stroke-width: .25px;"/>
  <polyline points="13.73 9.2 53.03 25.36 52 76.85" style="fill: none; stroke: #000; stroke-miterlimit: 10; stroke-width: .25px;"/>
  <polyline points="26.97 4.46 65.96 19.62 64.16 68.17" style="fill: none; stroke: #000; stroke-miterlimit: 10; stroke-width: .25px;"/>
</symbol>

<symbol id="icon-sack" viewBox="0 0 42.54 41.94">
    <g id="Layer_1" data-name="Layer 1">
      <g id="Layer_3" data-name="Layer 3">
        <g id="Layer_4" data-name="Layer 4">
          <g id="Layer_7" data-name="Layer 7">
            <path d="M38.2,27.8s4.24,4.23,3.95,7.7c-.29,3.48-2.01,4.73-2.97,4.15s-1.37-2.02-1.37-2.02l.39-9.84Z" style="fill: none; stroke: #000; stroke-miterlimit: 10; stroke-width: .75px;"/>
            <path d="M33.19,9.65c-6.55-1.48-12.08-1.91-16.06-2-11.19-.26-13.99,2.1-15.31,3.73-1.3,1.61-1.15,2.75-1.31,13.44,0,.64-.02,1.31-.03,2.02-.16,9.18-.32,10.63,1.04,12.2.06.07.13.15.23.24,3.31,3.21,13.37,2.09,13.37,2.09,4.18-.48,9.64-1.05,17.24-1.71" style="fill: #957bc6; stroke: #000; stroke-miterlimit: 10; stroke-width: .75px;"/>
            <path d="M24.65,23.62s-4.83,2.18-11.17,2.06c-6.33-.12-12.94-2.57-12.94-2.57" style="fill: none; stroke: #000; stroke-miterlimit: 10; stroke-width: .75px;"/>
            <rect x="9.17" y="22.76" width="6.29" height="6.76" rx="1.69" ry="1.69" style="fill: #ffa329; stroke: #000; stroke-miterlimit: 10; stroke-width: .75px;"/>
            <path d="M11.85,7.53c-.19-1.03-.44-3.2.78-4.89,2.76-3.81,10.97-2.29,12.3.68,0,0,.19.43,0,4.7h0l-13.08-.5Z" style="fill: none; stroke: #000; stroke-miterlimit: 10; stroke-width: .75px;"/>
            <path d="M35.15,11.18c.41.55,1.34,2.02,1.91,9.47.11,1.45.24,3.09.33,4.78.02.41.05.82.06,1.23.26,5.44.13,11.13-1.74,12.73-.25.22-1.56.23-4.17.26-2.16.02-3.24.03-3.45-.1-3.59-2.09-5.47-22.72-.07-28.47,2-2.12,5.22-2.47,7.13.09Z" style="fill: #957bc6; stroke: #000; stroke-miterlimit: 10; stroke-width: .75px;"/>
            <path d="M31.23,15.92v18.81" style="fill: #fff; stroke: #000; stroke-linecap: round; stroke-linejoin: round;"/>
          </g>
          <g id="Layer_6" data-name="Layer 6">
            <g id="Layer_15" data-name="Layer 15">
              <path d="M17.99,13.85c.64-1,.29-1.86.88-2.22.07-.04.36-.2.6-.09.73.34.08,2.9.35,2.97.27.07.79-2.44,1.81-2.51.25-.02.57.11.69.34.36.67-.94,2.15-.6,2.51.04.05.22.19.29.43,0,0,.01.06.02.12.14.85-.03,2.1-.83,2.73-1.23.96-3.63.06-4.11-1.26-.26-.72-.15-1.62.22-2.25.25-.43.37-.31.67-.78Z" style="fill: #fff; stroke: #000; stroke-miterlimit: 10; stroke-width: .5px;"/>
            </g>
            <g id="Layer_14" data-name="Layer 14">
              <g>
                <line x1="19.07" y1="17.14" x2="19.37" y2="17.64" style="fill: #fff; stroke: #000; stroke-miterlimit: 10; stroke-width: .15px;"/>
                <line x1="19.5" y1="17.26" x2="19" y2="17.52" style="fill: #fff; stroke: #000; stroke-miterlimit: 10; stroke-width: .15px;"/>
              </g>
            </g>
            <g id="Layer_13" data-name="Layer 13">
              <ellipse cx="20.32" cy="16.78" rx=".14" ry=".13" transform="translate(-1.36 31.77) rotate(-74.22)" style="fill: #fff; stroke: #000; stroke-miterlimit: 10; stroke-width: .25px;"/>
            </g>
            <g id="Layer_12" data-name="Layer 12">
              <ellipse cx="18.6" cy="16.3" rx=".14" ry=".13" transform="translate(-2.14 29.76) rotate(-74.22)" style="fill: #fff; stroke: #000; stroke-miterlimit: 10; stroke-width: .25px;"/>
            </g>
          </g>
        </g>
      </g>
    </g>
    <g id="Layer_5" data-name="Layer 5">
      <g id="Layer_11" data-name="Layer 11">
        <path d="M3.17,35.31c-.26-.86-.94-1.08-.85-1.6,0-.06.06-.31.24-.39.56-.25,1.72,1.39,1.89,1.26.17-.12-1.02-1.66-.55-2.28.11-.15.34-.27.54-.23.57.12.78,1.6,1.15,1.59.05,0,.21-.03.39.05,0,0,.04.02.08.04.56.34,1.2,1.06,1.17,1.82-.05,1.19-1.76,2.13-2.76,1.75-.55-.2-1.01-.71-1.19-1.24-.12-.36,0-.37-.12-.77Z" style="fill: #fff; stroke: #000; stroke-miterlimit: 10; stroke-width: .5px;"/>
      </g>
      <g id="Layer_10" data-name="Layer 10">
        <g>
          <line x1="5.6" y1="36.32" x2="6.04" y2="36.39" style="fill: #fff; stroke: #000; stroke-miterlimit: 10; stroke-width: .15px;"/>
          <line x1="5.89" y1="36.13" x2="5.79" y2="36.54" style="fill: #fff; stroke: #000; stroke-miterlimit: 10; stroke-width: .15px;"/>
        </g>
      </g>
      <g id="Layer_9" data-name="Layer 9">
        <ellipse cx="6.02" cy="35.42" rx=".1" ry=".11" transform="translate(-18.66 9.31) rotate(-33.75)" style="fill: #fff; stroke: #000; stroke-miterlimit: 10; stroke-width: .25px;"/>
      </g>
      <g id="Layer_8" data-name="Layer 8">
        <ellipse cx="4.88" cy="36.17" rx=".1" ry=".11" transform="translate(-19.27 8.81) rotate(-33.75)" style="fill: #fff; stroke: #000; stroke-miterlimit: 10; stroke-width: .25px;"/>
      </g>
    </g>
  </symbol>

  <symbol id="icon-package" viewBox="0 0 39.11 39.52">
    <g id="Layer_4" data-name="Layer 4">
      <g>
        <path d="M4.7,2.75c-.02.07-.05.13-.07.19.15,10.14.3,20.28.46,30.42,7.52,1.97,15.04,3.94,22.56,5.92.23-10.84.47-21.69.7-32.53L4.7,2.75Z" style="fill: #ff9497; stroke: #000; stroke-miterlimit: 10; stroke-width: .25px;"/>
        <path d="M33.55,4.59C25.7,3.15,17.85,1.72,10,.28c.48.65.96,1.29,1.44,1.94-2.24.17-4.48.33-6.73.5,0,0,0,.01,0,.02,7.88,1.33,15.76,2.67,23.64,4l-1.29-1.83c2.17-.1,4.33-.21,6.5-.31Z" style="fill: #b26b70; stroke: #000; stroke-linecap: round; stroke-linejoin: round; stroke-width: .25px;"/>
        <path d="M29.34,31.41c.74,1.77,1.47,3.53,2.21,5.3-1.2.81-2.39,1.61-3.59,2.42.46-2.57.92-5.14,1.38-7.72Z" style="fill: #ffb8bd; stroke: #000; stroke-miterlimit: 10; stroke-width: .25px;"/>
        <path d="M10.49,5.51s.02-.05.02-.05c.09-.21.31-.6.45-.6.17,0,.28.6.33.97.23,2.03-.53,8.28-.64,9.38-.41,4.03.87,8.91,3.83,10.57.34.19,1.45.81,2.57.46,1.67-.53,2.25-2.87,2.86-5.52.86-3.67,1.39-5.97.77-8.51-.05-.22-.48-1.94-.04-3.85.07-.3.32-1.39.71-1.4.23,0,.41.35.46.46.47.95-.1,1.85-.24,3.09-.12,1.05.16,1.5.36,2.67.38,2.26-.33,2.71-1.15,8.38-.26,1.78-.29,2.44-.81,3.42-.32.6-1.19,2.23-2.9,2.62-1.51.34-2.81-.48-3.27-.77-2.08-1.31-2.76-3.58-3.38-5.81-.4-1.43-.54-3.55-.81-7.8,0,0-.3-4.7.87-7.69Z" style="fill: #603813; stroke: #000; stroke-miterlimit: 10; stroke-width: .25px;"/>
        <circle cx="15.36" cy="2.75" r=".69" style="fill: #603813; stroke: #000; stroke-miterlimit: 10; stroke-width: .25px;"/>
        <circle cx="25.99" cy="4.64" r=".68" style="fill: #603813; stroke: #000; stroke-miterlimit: 10; stroke-width: .25px;"/>
        <path d="M33.85,4.64c.33,9.9.65,19.79.98,29.69-1.78-1.02-3.57-2.05-5.35-3.07-.38-8.17-.75-16.34-1.13-24.5-.37-.57-.73-1.14-1.1-1.71,2.2-.13,4.41-.26,6.61-.4Z" style="fill: #b26b70; stroke: #000; stroke-miterlimit: 10; stroke-width: .25px;"/>
        <path d="M26.99,4.87c0,.5-.02,1-.02,1.5" style="fill: none; stroke: #000; stroke-miterlimit: 10; stroke-width: .25px;"/>
        <path d="M28.34,10.94c.34,6.77.68,13.55,1.02,20.32h0c.41.25,5.05,3.02,5.46,3.27-2.34,1.58-4.68,3.17-7.02,4.75.18-9.45.36-18.89.54-28.34Z" style="fill: #ffb8bd; stroke: #000; stroke-miterlimit: 10; stroke-width: .25px;"/>
      </g>
    </g>
  </symbol>

  <symbol id="icon-suitcase" viewBox="0 0 43.09 39.18">
    <g id="Layer_1" data-name="Layer 1">
      <g id="Layer_11" data-name="Layer 11">
        <path d="M6.34,35.88c.43,2.04,2.59,3.14,4.19,2.71,1.15-.31,2.02-1.4,2.12-2.71h-6.3Z" style="fill: #1a1a1a; stroke: #1a1a1a; stroke-miterlimit: 10;"/>
      </g>
      <g id="Layer_10" data-name="Layer 10">
        <path d="M30.2,35.88c.43,2.04,2.59,3.14,4.19,2.71,1.15-.31,2.02-1.4,2.12-2.71h-6.3Z" style="fill: #1a1a1a; stroke: #1a1a1a; stroke-miterlimit: 10;"/>
      </g>
      <g id="Layer_9" data-name="Layer 9">
        <g>
          <rect x=".5" y="5.67" width="42.09" height="29.71" rx="1.76" ry="1.76" style="fill: #2bf;"/>
          <path d="M40.83,6.17c.69,0,1.26.56,1.26,1.26v26.19c0,.69-.56,1.26-1.26,1.26H2.26c-.69,0-1.26-.56-1.26-1.26V7.43c0-.69.56-1.26,1.26-1.26h38.57M40.83,5.17H2.26c-1.25,0-2.26,1.01-2.26,2.26v26.19c0,1.25,1.01,2.26,2.26,2.26h38.57c1.25,0,2.26-1.01,2.26-2.26V7.43c0-1.25-1.01-2.26-2.26-2.26h0Z"/>
        </g>
      </g>
      <g id="Layer_8" data-name="Layer 8">
        <g>
          <path d="M9.82,5.48v-2.48c0-1.45,1.18-2.62,2.62-2.62h20.07c1.45,0,2.62,1.18,2.62,2.62v2.48H9.82Z" style="fill: #603813;"/>
          <path d="M32.52.75c1.24,0,2.25,1.01,2.25,2.25v2.1H10.2v-2.1c0-1.24,1.01-2.25,2.25-2.25h20.07M32.52,0H12.45c-1.66,0-3,1.34-3,3v2.81s.02.05.05.05h25.98s.05-.02.05-.05v-2.81c0-1.66-1.34-3-3-3h0Z"/>
        </g>
      </g>
      <g id="Layer_7" data-name="Layer 7">
        <g>
          <path d="M12.75,5.48v-.5c0-1.45,1.18-2.62,2.62-2.62h14.22c1.45,0,2.62,1.18,2.62,2.62v.5H12.75Z" style="fill: #fff;"/>
          <path d="M29.59,2.73c1.24,0,2.25,1.01,2.25,2.25v.12H13.12v-.12c0-1.24,1.01-2.25,2.25-2.25h14.22M29.59,1.98h-14.22c-1.66,0-3,1.34-3,3v.83s.02.05.05.05h20.13s.05-.02.05-.05v-.83c0-1.66-1.34-3-3-3h0Z"/>
        </g>
      </g>
      <g id="Layer_6" data-name="Layer 6">
        <g>
          <rect x="7.04" y="5.76" width="4.81" height="29.52" style="fill: #603813;"/>
          <path d="M11.6,6.01v29.02h-4.31V6.01h4.31M12.1,5.51h-5.31v30.02h5.31V5.51h0Z"/>
        </g>
      </g>
      <g id="Layer_5" data-name="Layer 5">
        <g>
          <rect x="31.85" y="5.76" width="4.81" height="29.52" style="fill: #603813;"/>
          <path d="M36.41,6.01v29.02h-4.31V6.01h4.31M36.91,5.51h-5.31v30.02h5.31V5.51h0Z"/>
        </g>
      </g>
      <g id="Layer_4" data-name="Layer 4">
        <path d="M37.99,7.06s2.32,1.06,2.58,3.22" style="fill: none; opacity: .6; stroke: #fff; stroke-linecap: round; stroke-miterlimit: 10; stroke-width: .5px;"/>
      </g>
      <g id="Layer_3" data-name="Layer 3">
        <ellipse cx="40.7" cy="11.33" rx=".28" ry=".44" style="fill: #fff; opacity: .6;"/>
      </g>
    </g>
    <g id="Layer_2" data-name="Layer 2">
      <g id="Layer_12" data-name="Layer 12">
        <g id="Layer_17" data-name="Layer 17">
          <path d="M27.37,9.68c.33-.49.13-.92.44-1.09.04-.02.19-.1.32-.04.39.18.07,1.44.22,1.48.15.04.39-1.2.94-1.22.13,0,.3.06.37.18.2.34-.48,1.05-.29,1.24.02.02.12.09.16.22,0,0,0,.03.01.06.09.42,0,1.04-.41,1.34-.65.46-1.94-.01-2.21-.67-.15-.36-.1-.8.09-1.11.13-.21.2-.15.35-.38Z" style="fill: #ffb77f; stroke: #000; stroke-miterlimit: 10; stroke-width: .25px;"/>
        </g>
        <g id="Layer_16" data-name="Layer 16">
          <circle cx="27.66" cy="10.69" r=".06" style="fill: #ffb77f; stroke: #000; stroke-miterlimit: 10; stroke-width: .25px;"/>
        </g>
        <g id="Layer_15" data-name="Layer 15">
          <circle cx="28.73" cy="10.86" r=".06" style="fill: #ffb77f; stroke: #000; stroke-miterlimit: 10; stroke-width: .25px;"/>
        </g>
        <g id="Layer_14" data-name="Layer 14">
          <line x1="28.03" y1="11.27" x2="28.1" y2="11.59" style="fill: #ffb77f; stroke: #000; stroke-miterlimit: 10; stroke-width: .15px;"/>
        </g>
        <g id="Layer_13" data-name="Layer 13">
          <line x1="28.21" y1="11.35" x2="27.92" y2="11.51" style="fill: #ffb77f; stroke: #000; stroke-miterlimit: 10; stroke-width: .15px;"/>
        </g>
      </g>
      <path d="M15.1,12.23l.57-.41-.24-.66c-.08-.21.17-.39.34-.26l.57.42.56-.43c.18-.14.42.04.35.25l-.22.67.58.4c.18.12.09.41-.13.41h-.71s-.2.67-.2.67c-.06.21-.36.22-.43,0l-.21-.67-.71.02c-.22,0-.32-.28-.14-.41Z" style="fill: #ffb77f; stroke: #000; stroke-miterlimit: 10; stroke-width: .15px;"/>
      <path d="M24.73,28.99l.87-.62-.36-1.01c-.08-.21.17-.39.34-.26l.86.64.85-.66c.18-.14.42.04.35.25l-.34,1.02.89.6c.18.12.09.41-.13.41h-1.07s-.3,1.02-.3,1.02c-.06.21-.36.22-.43,0l-.32-1.02-1.07.03c-.22,0-.32-.28-.14-.41Z" style="fill: #ffb77f; stroke: #000; stroke-miterlimit: 10; stroke-width: .15px;"/>
      <path d="M2.81,10.33v-.11l-.23-.06c-.4-.1-.44-.64-.07-.8l.28-.12v-.23c-.02-.43.53-.61.77-.26l.07.1.11-.05c.38-.18.77.25.54.61l-.12.19.18.25c.24.33-.07.78-.46.66l-.23-.07-.05.09c-.22.38-.79.22-.79-.21Z" style="fill: #442a15;"/>
      <path d="M39.83,32.61v-.12s-.18-.04-.18-.04c-.21-.05-.23-.34-.04-.42l.2-.09v-.18c-.01-.22.28-.32.4-.13l.07.1.11-.05c.2-.1.41.13.29.32l-.1.15.13.18c.13.17-.04.41-.24.35l-.17-.05-.06.1c-.11.2-.42.12-.42-.11Z" style="fill: #ffb77f; stroke: #000; stroke-miterlimit: 10; stroke-width: .15px;"/>
    </g>
  </symbol>

  <symbol id="icon-big-box" viewBox="0 0 59.79 43.53">
    <g id="Layer_2" data-name="Layer 2">
      <g id="Layer_7" data-name="Layer 7">
        <g>
          <path d="M18.33,6.98c-4.16,1.76-8.31,3.52-12.47,5.28-.05.05-.1.11-.16.16,12.55.08,25.09.16,37.64.23l9.21-5.67H18.33Z" style="fill: #c68b63; stroke: #000; stroke-miterlimit: 10; stroke-width: .25px;"/>
          <path d="M53.64,20.97c.09,3.47.17,6.94.26,10.4-3.2,2.34-6.4,4.67-9.61,7.01-.31-8.6-.63-17.2-.94-25.8" style="fill: #ffb77f; stroke: #000; stroke-miterlimit: 10; stroke-width: .25px;"/>
          <path d="M5.65,12.58c-1.74,1.72-3.48,3.44-5.22,5.16,1.23-.34,2.46-.68,3.68-1.02l1.54-4.14Z" style="fill: #ffb77f; stroke: #000; stroke-miterlimit: 10; stroke-width: .25px;"/>
          <path d="M6.37,24.24c.15,4.92.14,9.62,0,14.07,12.6-.04,25.2-.07,37.8-.11-.33-8.52-.65-17.04-.98-25.55l-37.47.06c.3,3.68.53,7.52.65,11.53Z" style="fill: #e5a070; stroke: #000; stroke-miterlimit: 10; stroke-width: .25px;"/>
          <path d="M5.77,12.35c-.08.08-.17.15-.25.22-.06.06-.11.13-.17.18-1.32,3.86-2.64,7.71-3.96,11.57h38.01c1.32-3.98,2.64-7.95,3.96-11.93-12.53-.01-25.05-.03-37.58-.04Z" style="fill: #ffb77f; stroke: #000; stroke-miterlimit: 10; stroke-width: .25px;"/>
          <path d="M51.23,22.88c.76-.68,1.52-1.37,2.27-2.05,2.04-1.84,4.08-3.69,6.12-5.53-2.21-2.77-4.42-5.55-6.63-8.32-3.21,1.9-6.43,3.8-9.64,5.69,2.63,3.4,5.25,6.81,7.88,10.21Z" style="fill: #ffb77f; stroke: #000; stroke-miterlimit: 10; stroke-width: .25px;"/>
        </g>
      </g>
    </g>
    <g id="Layer_10" data-name="Layer 10">
      <polygon points="12.1 36.31 10.96 35.51 9.85 36.34 10.26 35.02 9.12 34.21 10.51 34.19 10.92 32.86 11.37 34.18 12.76 34.16 11.65 34.99 12.1 36.31" style="fill: #ffb77f;"/>
      <polygon points="40.44 28.48 39.3 27.68 38.19 28.51 38.6 27.19 37.46 26.38 38.85 26.36 39.26 25.03 39.71 26.35 41.1 26.33 39.99 27.16 40.44 28.48" style="fill: #ffb77f;"/>
    </g>
  </symbol>
        </defs>
      </svg>
