<svg xmlns="http://www.w3.org/2000/svg" >
 <defs>
 <symbol id="island-castle" viewBox="0 0 230.7 321.68">
  <g id="Layer_1" data-name="Layer 1">
    <path d="M195.43,195.72c2.2-.38,8.51-1.27,14.69,1.06,1.94.73,4.75,1.79,5.9,3.93,2.01,3.73-2.35,8.2-6.39,10.34-.52.27-1.67.85-3.35,1.36-5,1.51-9.72.95-11.84.59" style="fill: #fffae5; stroke: #6f3d00; stroke-linecap: round; stroke-linejoin: round;"/>
    <path d="M38.25,193.69c-3.13-.54-12.11-1.79-20.9,1.49-2.76,1.03-6.76,2.52-8.4,5.54-2.85,5.26,3.34,11.57,9.09,14.58.73.38,2.38,1.19,4.77,1.91,7.11,2.13,13.82,1.34,16.85.83" style="fill: #fffae5; stroke: #6f3d00; stroke-linecap: round; stroke-linejoin: round;"/>
    <g id="Layer_11" data-name="Layer 11">
      <g id="Layer_3" data-name="Layer 3">
        <g>
          <path d="M61.05,168.21c2.67-.04,6.76.1,9.02-.09.99-.06,1.51-.6,1.53-1.31.14-1.91-.03-7.03.1-8.94,0-.82.69-1.34,1.83-1.35,2.06-.09,6.17-.05,8.49-.04.56,0,1.57.04,1.63.35.23,5.5.96,49.5,1.04,53.42-.02.16-.08.25-.26.31-.33.11-1.2.1-2.83.1-5.96-.03-16.14.02-20.54,0" style="fill: #ea9905; stroke: #694507; stroke-miterlimit: 10;"/>
          <path d="M167.86,168.21c-2.67-.04-6.76.1-9.02-.09-.99-.06-1.51-.6-1.53-1.31-.14-1.91.03-7.03-.1-8.94,0-.82-.69-1.34-1.83-1.35-2.06-.09-6.17-.05-8.49-.04-.56,0-1.57.04-1.63.35-.23,5.5-.96,49.5-1.04,53.42.02.16.08.25.26.31.33.11,1.2.1,2.83.1,5.96-.03,16.14.02,20.54,0" style="fill: #ea9905; stroke: #694507; stroke-miterlimit: 10;"/>
          <rect x="84.46" y="126.82" width="59.76" height="83.86" style="fill: #f7ba12; stroke: #694507; stroke-miterlimit: 10;"/>
          <polygon points="84.35 128.95 75.14 121.94 152.79 121.94 144.11 128.95 84.35 128.95" style="fill: #e59d20; stroke: #694507; stroke-miterlimit: 10;"/>
          <rect x="92.57" y="64.01" width="43.4" height="52.12" style="fill: #fcca49; stroke: #694507; stroke-miterlimit: 10;"/>
          <path d="M93.72,76.68v-4.48h41.62v40.15h-5.95s2.92-30.17-.56-32.55c-3.48-2.38-35.11-3.12-35.11-3.12Z" style="fill: #e99a05; stroke: #e99a05; stroke-linecap: round; stroke-linejoin: round;"/>
          <polygon points="74.77 121.94 74.77 102.76 84.43 102.76 84.43 112.35 92.92 112.35 92.92 102.76 101.61 102.76 101.61 112.35 109.91 112.35 109.91 102.76 118.99 102.76 118.99 112.35 127.29 112.35 127.29 102.76 136.18 102.76 136.18 112.35 145.07 112.35 145.07 102.76 153.17 102.76 153.17 121.94 74.77 121.94" style="fill: #fcca49; stroke: #694507; stroke-linecap: round; stroke-linejoin: round;"/>
          <g>
            <rect x="35.75" y="156.45" width="26.81" height="54.24" style="fill: #f7ba12;"/>
            <path d="M62.06,156.95v53.24h-25.81v-53.24h25.81M63.06,155.95h-27.81v55.24h27.81v-55.24h0Z" style="fill: #694507;"/>
          </g>
          <g>
            <rect x="168.23" y="156.45" width="26.81" height="54.24" style="fill: #f7ba12;"/>
            <path d="M194.53,156.95v53.24h-25.81v-53.24h25.81M195.53,155.95h-27.81v55.24h27.81v-55.24h0Z" style="fill: #694507;"/>
          </g>
          <path d="M168.34,160.33l-8.33-8.8c-.88,1.03,43.62,0,43.62,0l-7.8,8.24-27.49.56Z" style="fill: #e59d20; stroke: #694507; stroke-linejoin: round;"/>
          <path d="M101.89,210.46v-35.49c-1.03-7.85,5.14-14.55,12.07-14.55s13.1,6.71,12.07,14.55v35.49" style="fill: #ba6c11; stroke: #6f3d00; stroke-miterlimit: 10;"/>
          <path d="M63.06,157.56l-27.27.29-8.26-7.59c-.88.89,43.26,0,43.26,0l-7.73,7.11" style="fill: #e59d20; stroke: #694507; stroke-miterlimit: 10;"/>
          <polyline points="35.25 143.61 35.25 114.28 63.06 114.28 63.06 143.61" style="fill: #fcca49; stroke: #694507; stroke-miterlimit: 10;"/>
          <polyline points="168.45 145.1 168.45 115.78 196.26 115.78 196.26 145.1" style="fill: #fcca49; stroke: #694507; stroke-miterlimit: 10;"/>
          <polygon points="36.48 115.49 26.93 115.49 49.34 64.65 71.37 115.49 36.48 115.49" style="fill: #fcca49; stroke: #694507; stroke-linecap: round; stroke-linejoin: round;"/>
          <polygon points="169.69 117.45 160.13 117.45 182.54 66.61 204.58 117.45 169.69 117.45" style="fill: #fcca49; stroke: #694507; stroke-linecap: round; stroke-linejoin: round;"/>
          <polygon points="96.65 71.49 83.31 71.49 114.6 .5 145.37 71.49 96.65 71.49" style="fill: #fcca49; stroke: #694507; stroke-linecap: round; stroke-linejoin: round;"/>
          <polygon points="114.53 2.17 135.34 71.05 144.22 71.05 114.53 2.17" style="fill: #e99a05;"/>
          <rect x="106.52" y="78.32" width="9.77" height="3.5" style="fill: #e6a724; stroke: #e6a724; stroke-linecap: round; stroke-linejoin: round;"/>
          <path d="M182.74,99.88c-.25.35-.75.41-1.47.41-.86-.01-1.87.05-2.72-.05-1.18-.04-1.31-1.91-.79-2.88.63-.73,1.72-.4,2.56-.48,1.16,0,2.09-.07,2.42.48.38.67.38,1.78.04,2.45l-.04.06Z" style="fill: #e6a724; stroke: #e6a724; stroke-linecap: round; stroke-linejoin: round;"/>
          <rect x="110.93" y="39.51" width="12.29" height="3.74" style="fill: #e6a724; stroke: #e6a724; stroke-linecap: round; stroke-linejoin: round;"/>
          <rect x="120.01" y="94.84" width="12.29" height="3.74" style="fill: #e6a724; stroke: #e6a724; stroke-linecap: round; stroke-linejoin: round;"/>
          <rect x="47.27" y="100.3" width="10.68" height="2.51" style="fill: #e6a724; stroke: #e6a724; stroke-linecap: round; stroke-linejoin: round;"/>
          <rect x="180.35" y="129.85" width="9.41" height="2.47" style="fill: #e6a724; stroke: #e6a724; stroke-linecap: round; stroke-linejoin: round;"/>
          <rect x="124.49" y="82.91" width="9.77" height="4.27" style="fill: #e6a724; stroke: #e6a724; stroke-linecap: round; stroke-linejoin: round;"/>
          <rect x="97.81" y="50.29" width="12.29" height="3.74" style="fill: #e6a724; stroke: #e6a724; stroke-linecap: round; stroke-linejoin: round;"/>
          <rect x="180.17" y="179.7" width="9.77" height="2.68" style="fill: #e6a724;"/>
          <rect x="47.7" y="168.75" width="9.77" height="3.82" style="fill: #e6a724;"/>
          <rect x="175.47" y="168.75" width="9.77" height="3.27" style="fill: #e6a724;"/>
          <rect x="170.58" y="191.6" width="9.77" height="4.02" style="fill: #e6a724;"/>
          <rect x="47.76" y="187.6" width="9.7" height="2.68" style="fill: #e6a724;"/>
          <rect x="40.99" y="178.21" width="9.77" height="2.83" style="fill: #e6a724;"/>
          <path d="M85.55,138.72v-8.88h57.5v79.59h-8.21s4.03-59.81-.77-64.53c-4.8-4.72-48.52-6.19-48.52-6.19Z" style="fill: #e99a05; stroke: #e99a05; stroke-linecap: round; stroke-linejoin: round;"/>
          <path d="M53.51,158.57c4.34,0,1.78,50.87,1.78,50.87h6.14v-50.87s-12.27,0-7.93,0Z" style="fill: #e99a05; stroke: #e99a05; stroke-linecap: round; stroke-linejoin: round;"/>
          <path d="M169.6,121.97v-3.42h25.93v30.7h-3.7s1.82-23.07-.35-24.89-21.88-2.39-21.88-2.39Z" style="fill: #e99a05; stroke: #e99a05; stroke-linecap: round; stroke-linejoin: round;"/>
          <path d="M186.52,161.13c4.34,0,1.78,48.62,1.78,48.62h6.14v-48.62s-12.27,0-7.93,0Z" style="fill: #e99a05; stroke: #e99a05; stroke-linecap: round; stroke-linejoin: round;"/>
          <polyline points="159.65 151.53 159.64 139.51 169.78 139.51 169.78 145.52 175.86 145.52 175.86 139.51 185.62 139.51 185.62 145.52 193.6 145.52 193.6 139.25 203.29 139.25 203.62 151.53" style="fill: #fcca49; stroke: #694507; stroke-linejoin: round;"/>
          <path d="M36.19,119.55v-3.42h25.93v30.7h-3.7s1.82-23.07-.35-24.89-21.88-2.39-21.88-2.39Z" style="fill: #e99a05; stroke: #e99a05; stroke-linecap: round; stroke-linejoin: round;"/>
          <polyline points="27.17 150.29 27.16 138.26 37.31 138.26 37.31 144.28 43.39 144.28 43.39 138.26 53.15 138.26 53.15 144.28 61.12 144.28 61.12 138.01 70.82 138.01 71.15 150.29" style="fill: #fcca49; stroke: #694507; stroke-linecap: round; stroke-linejoin: round;"/>
          <path d="M120.01,163.23c-1.21.66-4.38,2.6-6.14,6.57-.9,2.03-1.13,3.9-1.17,5.16v35.39c-3.3.11-6.59.21-9.89.32v-36.74c-.03-1.35.1-4.2,1.77-7.16.64-1.14,1.86-3.24,4.37-4.64,3.27-1.82,6.53-1.23,7.55-1,1.17.7,2.34,1.4,3.51,2.1Z" style="fill: #a86004;"/>
          <rect x="183.05" y="103.4" width="9.41" height="2.47" style="fill: #e6a724; stroke: #e6a724; stroke-linecap: round; stroke-linejoin: round;"/>
          <polygon points="49.15 65.27 64.13 114.87 70.53 114.87 49.15 65.27" style="fill: #e99a05;"/>
          <polygon points="182.57 67.23 197.55 116.83 203.95 116.83 182.57 67.23" style="fill: #e99a05;"/>
          <rect x="38.36" y="132.66" width="9.41" height="2.47" style="fill: #e6a724; stroke: #e6a724; stroke-linecap: round; stroke-linejoin: round;"/>
          <path d="M136.61,113.2c1.11,2.58,2.23,5.17,3.34,7.75h12.29v-17.41h-6.18c.05,3.2.09,6.39.14,9.59-3.2.03-6.39.05-9.59.08Z" style="fill: #e6a724; stroke: #e6a221; stroke-miterlimit: 10;"/>
        </g>
      </g>
    </g>
    <path d="M27.89,214.67c1.93,0,1.93-3,0-3s-1.93,3,0,3h0Z" style="fill: #f4e0b0;"/>
    <path d="M25.98,213.94l.63.29c.18.08.39.15.55.27l-.3-.23s.04.04.05.06l-.23-.3.02.03-.15-.36s.02.04.02.07l-.05-.4v.04c.02-.13.04-.27.05-.4,0,.02,0,.04-.02.07l.15-.36-.02.03.23-.3-.03.02.3-.23-.04.02.36-.15h-.04c.13,0,.27-.03.4-.04-.13.02-.27.01-.4,0l.4.05c-.36-.05-.7-.16-1.07-.05-.54.16-.96.56-1.12,1.11-.13.45-.05.95.11,1.38.23.6.46,1.21.78,1.78l.9-2.2h-.04c.13-.01.27-.03.4-.05h-.04c.25.06.5.13.76.2l-.04-.02.3.23-.03-.03c-.31-.26-.64-.44-1.06-.44-.37,0-.81.16-1.06.44s-.46.66-.44,1.06c.02.38.14.81.44,1.06.25.2.42.34.73.43s.55.05.88,0c.45-.08.81-.47.97-.87.19-.44.16-.91-.08-1.33-.13-.24-.25-.48-.35-.74l.15.36c-.15-.35-.34-.72-.39-1.09l.05.4s0-.09,0-.13l-.05.4v-.03c-.04.12-.09.24-.14.36v-.03c-.06.1-.14.2-.22.3l.02-.02-.66.39h.03c-.13,0-.27.03-.4.04h.04c-.13-.02-.27-.03-.4-.05.48.11.95.16,1.43.05.54-.12,1.03-.59,1.17-1.13.1-.4.08-.77-.08-1.15s-.41-.64-.75-.85c-.1-.06-.22-.11-.33-.16l-.78-.36c-.17-.11-.36-.17-.56-.18-.2-.04-.4-.04-.6.03-.35.1-.73.36-.9.69-.18.35-.28.77-.15,1.16.11.35.34.74.69.9h0Z" style="fill: #fffae5;"/>
    <path d="M26.35,211.29c-.07.24-.15.47-.25.7l.15-.36c-.21.5-.45.98-.65,1.48-.08.19-.15.38-.21.58-.1.32-.13.64-.18.98-.05.35.2.82.44,1.06.26.26.69.46,1.06.44s.79-.14,1.06-.44l.23-.3c.14-.23.2-.49.2-.76v-.05c-.01.13-.03.27-.05.4.06-.39.19-.77.34-1.13l-.15.36c.31-.72.68-1.41.89-2.16.1-.37.04-.82-.15-1.16-.18-.31-.54-.61-.9-.69-.38-.09-.81-.07-1.16.15s-.58.51-.69.9h0Z" style="fill: #fffae5;"/>
    <path d="M28.06,210.58c-.27.13-.53.28-.77.45-.33.24-.67.49-.96.78-.27.27-.53.59-.72.93-.12.22-.22.46-.3.69s-.11.52-.14.78c0,.21.04.4.13.58.06.19.16.35.31.48.26.26.69.46,1.06.44s.79-.14,1.06-.44l.23-.3c.14-.23.2-.49.2-.76v-.04c-.01.13-.03.27-.05.4.02-.16.06-.31.13-.46l-.15.36c.08-.18.18-.35.3-.51l-.23.3c.21-.28.47-.51.74-.73l-.3.23c.3-.23.63-.43.97-.6.17-.09.32-.22.42-.39.13-.14.22-.31.27-.51.1-.36.05-.84-.15-1.16s-.51-.6-.9-.69l-.4-.05c-.27,0-.52.07-.76.2h0Z" style="fill: #fffae5;"/>
    <path d="M25.13,210.81c.58,1.56,1.27,3.08,2.08,4.53.38.69,1.38.97,2.05.54s.95-1.32.54-2.05c-.53-.95-1.01-1.93-1.44-2.94l.15.36c-.17-.41-.33-.82-.49-1.23-.14-.37-.33-.69-.69-.9-.32-.19-.8-.27-1.16-.15s-.71.34-.9.69-.29.78-.15,1.16h0Z" style="fill: #fffae5;"/>
    <path d="M26.09,211.74c.18.08.35.17.51.28.29.19-.23-.21-.02-.03.08.07.16.14.23.21.13.13.26.26.37.4.03.04.07.08.1.12l-.14-.18c.07.08.13.17.19.26.22.31.41.62.61.94.11.17.2.35.3.53.07.14.05.11-.04-.11.02.05.04.11.06.16.04.11.06.22.08.33l-.05-.4c.01.11.01.22,0,.33l.05-.4c-.01.07-.03.13-.04.2-.03.08-.01.05.03-.08.04-.13.11-.24.21-.34l.66-.39-.06.02.4-.05h-.07c.13.01.27.03.4.05.61.25.58.36.32.14-.08-.07-.16-.13-.24-.2-.13-.11-.26-.22-.39-.33-.3-.25-.6-.5-.9-.75-.59-.49-1.18-.98-1.76-1.48-.5-.42-1.23-.62-1.82-.23-.55.36-.88,1.04-.69,1.69.28.92.99,1.6,1.61,2.3.55.62,1.1,1.25,1.66,1.87.52.59,1.6.57,2.12,0,.58-.63.56-1.49,0-2.12-.51-.57-1.01-1.15-1.52-1.72-.25-.28-.5-.56-.74-.84-.05-.06-.1-.11-.15-.17-.1-.12-.14-.27.02.04-.04-.07-.09-.14-.14-.21-.14-.23.11.33.03.05l-2.51,1.46c.68.57,1.36,1.14,2.04,1.71.34.28.68.57,1.02.85.2.17.4.33.6.49.43.33.97.47,1.51.34.9-.22,1.28-1.08,1.36-1.91.05-.59-.15-1.14-.38-1.66-.29-.66-.71-1.29-1.14-1.86-.59-.78-1.25-1.51-2.16-1.92-.38-.17-.74-.27-1.16-.15-.35.1-.73.36-.9.69-.35.66-.23,1.71.54,2.05h0Z" style="fill: #fffae5;"/>
    <path d="M209.07,207.95c0,.05,0,.11-.01.16l.05-.4c-.03.2-.09.39-.17.57l.15-.36c-.21.49-.45.98-.67,1.47-.11.17-.17.36-.18.56-.04.2-.04.4.03.6.1.35.36.73.69.9.35.18.77.28,1.16.15.35-.11.74-.34.9-.69.18-.38.35-.77.53-1.15.13-.28.26-.57.37-.86s.16-.63.16-.94c0-.38-.17-.79-.44-1.06s-.69-.46-1.06-.44-.79.14-1.06.44-.43.65-.44,1.06h0Z" style="fill: #fffae5;"/>
    <path d="M209.48,207.56c-.1.4-.23.8-.39,1.18l.15-.36c-.09.2-.18.4-.28.59-.19.35-.26.76-.15,1.16.05.2.14.37.27.51.11.16.25.29.42.39.35.18.77.28,1.16.15.36-.12.71-.34.9-.69.35-.67.64-1.39.83-2.13.09-.38.05-.81-.15-1.16-.09-.17-.22-.32-.39-.42-.14-.13-.31-.22-.51-.27-.38-.09-.81-.07-1.16.15s-.6.51-.69.9h0Z" style="fill: #fffae5;"/>
    <path d="M209.43,206.96c-.22.8-.49,1.59-.81,2.36l.15-.36c-.09.2-.18.41-.27.61-.11.17-.17.36-.18.56-.04.2-.04.4.03.6.1.35.36.73.69.9.35.18.77.28,1.16.15.35-.11.74-.34.9-.69.5-1.08.92-2.19,1.23-3.33.1-.38.05-.82-.15-1.16-.18-.31-.54-.61-.9-.69-.38-.09-.81-.07-1.16.15s-.58.51-.69.9h0Z" style="fill: #fffae5;"/>
    <path d="M209.38,206.77c-.99,1.48-1.87,3.03-2.64,4.64-.18.37-.26.75-.15,1.16.1.35.36.73.69.9.67.35,1.69.22,2.05-.54.77-1.61,1.65-3.16,2.64-4.64.44-.65.15-1.69-.54-2.05-.75-.4-1.59-.16-2.05.54h0Z" style="fill: #fffae5;"/>
  </g>
  <g id="Layer_17" data-name="Layer 17">
    <path d="M27.22,218.96c-13.69-3.47-24.26,2.81-26.15,11.74C0,235.76-.11,244.15,5.63,247.06c5.37,2.72,11.71-1.35,12.17-1.65-3.89,2.54-5.55,7.08-4.21,10.75,1.03,2.84,3.82,5.09,6.74,5.34,4.8.41,7.95-4.76,9.6-3.68,1.63,1.06-1.62,6.01.43,10.26,1.6,3.3,5.54,4.43,7.74,5.06,12.8,3.68,30.85-8.49,33.55-10.35,2.64,2.8,8.16,7.81,16.58,9.91,18.08,4.51,32.68-8.59,34.02-9.83.65,1.25,4.23,7.88,12.13,10.13,7.29,2.07,16.02-.22,19.53-5.36,1.49-2.18,2.02-4.84,3.19-4.77,1.27.08,1.25,3.23,3.39,6.07,2.46,3.26,6.73,4.72,9.51,4.74,6.07.05,12.75-6.7,13.96-16.77-.34,6.63,2.32,12.46,6.99,15.03,4.26,2.34,9.6.9,12.92-.18,12.53-4.06,25.37-16.92,26.26-33.01.16-2.82.47-10.8-4.64-18.55-1.32-1.99-5.19-7.69-12.71-10.46-10.77-3.97-20.42,1.22-21.98,2.09-1.14-2.03-3.02-4.88-5.99-7.65-2.99-2.79-9.93-9.28-17.87-7.84-6.78,1.23-12.39,7.89-14.07,16.47-1.58-2.47-11.1-16.86-27.01-18.48-3.57-.37-8.97-.92-14.15,2.01-7.21,4.08-8.66,11.86-12,11.23-1.86-.35-2.1-2.83-8.31-10.75-.93-1.19-4.51-5.69-10.1-7.83-7.57-2.91-18.23-1.26-22.65,4.73-2.36,3.2-1.98,6.47-4.28,7.05-2.5.63-4.02-2.98-8.5-4.29-4.86-1.43-9.46.94-10.36,1.4-6.32,3.25-9.88,11.8-8.29,21.07Z" style="fill: #fffae5; stroke: #6f3d00; stroke-linecap: round; stroke-linejoin: round;"/>
    <path d="M228.09,241.81c-.12.6-.29,1.19-.52,1.75-.23.79-.25.99-.2,1.01.25.1,2.87-5.77,2.76-5.82-.09-.04-2.23,4.21-4.34,8.45-.24.51-.67,1.36-1.32,2.33-8.68,13.09-32.35,12.59-36.71,8.13-.42-.43-1.61-1.87-3.7-2.61-1.78-.63-4.1-.69-4.09-.69.03,0,.04,0,.05.02.05.12-1.32.75-1.48.82-2.19,1.02-5.73,5.18-7.94,6.03-1.91.73-5.26-.09-11.52-6.85-1.34,1.35-3.32,3.24-5.89,5.31-1.87,1.51-2.81,2.27-3.78,2.81-5.02,2.8-11.14,1-12.77.51-8.2-2.45-12.13-9.54-13.02-11.23-2.63,2.53-9.41,8.34-19.66,9.7-8.84,1.18-17.14-1.36-21.19-3.83-.99-.61-9.94-6.22-10.78-6.65-.06-.03-.4-.2-.82-.5-.16-.11-.33-.25-.51-.41-.59-.52-.78-.91-1.09-.99-.68-.16-1.41.56-1.59.72-1.24,1.19-17.97,15.64-24.89,13.44-5.22-1.66-3.7-12.4-9.31-13.7-3.85-.89-6.71,3.65-10.24,1.96-2.62-1.26-3.55-4.98-3.83-6.13-.58-2.33-.33-4.31-.1-5.45-3.15-.09-6.23-.91-8.62-3.13-4.36-4.05-3.21-9.85-.36-14.41.57-.92,1.29-1.54,2.07-1.92-5.21.39-9.54,5.14-11.07,9.29-1.68,5.09-1.88,12.14,2.65,15.91,2.7,2.16,6.95,2.18,10.15,1.33.86-.2,1.36-.32,1.49-.18.14.13-.08.52-.46,1.16-.66,1.14-1.52,2.65-1.76,4.03-.93,4.02,2.19,8.67,6.88,8.63,2.19.07,4.56-.94,6.51-1.59.98-.31,1.68-.39,2.1-.03.52.41.62,1.45.69,2.86.03,2.98.8,6.6,3.49,8.6,4.35,3.36,11.25,3.27,16.93,1.97,8.78-1.94,14.85-6.32,20.26-8.74.99-.21,1.87.19,3.06,1.05,1.17.86,2.65,2.09,4.42,3.18,4.55,2.94,10.61,4.9,16.3,5.1,10.5.72,20.44-4.59,26.99-9.39.81-.34,1.36.29,2.63,1.79.9,1.05,2.19,2.43,3.91,3.67,7.45,5.76,19.72,5.59,25.44-1.62,4.33-5.66,4.01-2.83,8.36,1.9,6.79,6.87,15.88,3.39,19.81-5.31.5-.61,1.65-4.87,2.34-3.84.29.68.75,2.2,1.01,3.17,1.86,7.03,8.54,10.5,15.84,8.81,12.87-2.97,23.84-12.77,27.95-26.17.45-1.43.76-3.45-.5-4.27Z" style="fill: #f4e0b0;"/>
    <path d="M31.31,203.93c.37-.33.75-.64,1.14-.95l-.3.23c.39-.3.79-.59,1.2-.87.33-.22.58-.51.69-.9.1-.36.05-.84-.15-1.16s-.51-.6-.9-.69-.82-.07-1.16.15c-.93.62-1.81,1.31-2.65,2.05-.28.25-.44.7-.44,1.06s.16.81.44,1.06.66.46,1.06.44l.4-.05c.25-.07.47-.2.66-.39h0Z" style="fill: #fffae5;"/>
    <path d="M33.81,201.55c.52-.7,1.09-1.36,1.7-1.98l-2.56-1.06c.05,1.98,2.46,3.09,3.87,1.55l-2.56-1.06c.01-.14-.21.14-.34.21-.36.19-.78.26-1.17.36-.93.23-1.82.57-2.62,1.1s-1.5,1.15-2.18,1.8c-.75.71-1.45,1.5-1.41,2.6.04,1.01.93,1.66,1.9,1.45.86-.19,1.69-.54,2.42-1.02l-2.2-1.69c-.24.86-.65,2.27-1.59,2.3-1.69.05-2.03,2.44-.4,2.95.03,0,.18.07.2.07.45-1.21.44-1.68-.03-1.4-.05.03-.1.05-.14.08-.26.12-.49.32-.68.53-.52.56-.72,1.34-.63,2.09.2,1.54,1.55,2.36,2.99,2.49.81.07,1.5-.74,1.5-1.5,0-.87-.69-1.43-1.5-1.5.14.01-.13-.03-.13-.05,0,0,.06,0,.05.03-.01.06.06.17.05.25,0,.02-.19.31-.21.29.01.01.26-.14.29-.15.33-.2.63-.45.83-.79.38-.66.37-1.46-.02-2.11s-1.06-.99-1.77-1.21l-.4,2.95c2.57-.08,3.87-2.28,4.48-4.51.34-1.22-1.09-2.42-2.2-1.69-.54.35-1.07.57-1.71.71l1.9,1.45c0,.07-.12.14.03.01s.28-.29.43-.42c.33-.32.67-.64,1.02-.93.59-.49,1.24-.91,1.99-1.12.91-.26,1.86-.41,2.66-.95.95-.65,1.47-1.51,1.59-2.65.14-1.3-1.73-1.97-2.56-1.06.17-.08.35-.07.55.03.43-.08.66.1.71.54-.03-1.27-1.63-2.01-2.56-1.06-.79.81-1.5,1.68-2.17,2.59-.48.65-.11,1.67.54,2.05.76.45,1.57.12,2.05-.54h0Z" style="fill: #fffae5;"/>
    <path d="M24.55,213.08c1.24,1.15,2.41,2.36,3.5,3.65.24.28.71.44,1.06.44s.81-.16,1.06-.44.46-.66.44-1.06-.17-.74-.44-1.06c-1.09-1.29-2.26-2.5-3.5-3.65-.29-.27-.66-.44-1.06-.44-.37,0-.81.16-1.06.44s-.46.66-.44,1.06.15.79.44,1.06h0Z" style="fill: #fffae5;"/>
    <path d="M25.98,216.15s.02.02.03.04l-.23-.3c.2.27.34.57.48.88l-.15-.36s0,.02.01.03l-.05-.4v.02c.02-.13.04-.27.06-.4v.02c.05-.12.1-.24.15-.36h0c.18-.17.36-.34.54-.52h-.01c.12-.04.24-.09.36-.14h-.01c.13-.01.27-.03.4-.05h-.02c.13.02.27.04.4.05-.01,0-.02,0-.03,0l.36.15c-.18-.08-.36-.18-.56-.21-.16-.03-.32-.06-.49-.06-.04,0-.09,0-.13,0l-.4.05-.36.15-.3.23c-.15.14-.25.3-.31.48-.07.12-.1.24-.1.38-.04.13-.04.27,0,.4,0,.14.03.26.1.38.06.19.16.35.31.48.11.1.23.19.36.28.02.02.05.03.08.04.16.08.34.14.5.21l-.36-.15c.07.03.14.06.2.1l-.3-.23s.05.04.07.07l-.23-.3h.01c.56-.72,1.13-1.46,1.69-2.19-.04-.02-.09-.03-.13-.05l.36.15c-.1-.04-.2-.09-.29-.15-.17-.11-.36-.17-.56-.18-.2-.04-.4-.04-.6.03-.2.05-.37.14-.51.27-.16.11-.29.25-.39.42l-.15.36c-.07.27-.07.53,0,.8l.15.36c.13.23.31.4.54.54.25.14.52.25.78.35l.4.05.4-.05.36-.15c.17-.09.32-.22.42-.39.09-.09.16-.2.19-.33.07-.12.1-.24.1-.38.04-.13.04-.27,0-.4,0-.2-.07-.39-.18-.56-.09-.13-.18-.26-.3-.37s-.24-.21-.38-.29c-.17-.1-.37-.16-.55-.24l.36.15c-.07-.03-.14-.06-.2-.11l.3.23s-.02-.01-.03-.02l-1.06,2.56c.07,0,.14,0,.22,0l-.4-.05c.06,0,.11.02.17.05l-.36-.15s.02.01.04.02c.12.05.26.12.38.16.05.02.36.06.41.06s.36-.04.41-.06c.07-.02.13-.04.19-.08.07-.01.14-.04.19-.08l.3-.23.23-.3h0c.05-.13.1-.25.15-.37v-.02c.02-.13.04-.27.06-.4.01-.33-.12-.59-.25-.88-.03-.06-.06-.12-.09-.19-.06-.12-.12-.23-.18-.34-.13-.22-.29-.42-.45-.61-.14-.15-.3-.25-.48-.31-.18-.09-.37-.14-.58-.13-.21,0-.4.04-.58.13-.19.06-.35.16-.48.31l-.23.3c-.14.23-.2.49-.2.76l.05.4c.07.25.2.47.39.66h0Z" style="fill: #fffae5;"/>
    <path d="M206.51,206.75c-.97.97-1.46,2.24-1.92,3.5-.13.35-.03.84.15,1.16s.54.61.9.69c.38.09.81.07,1.16-.15s.55-.51.69-.9c.13-.35.26-.7.4-1.05l-.15.36c.21-.5.46-.98.79-1.41l-.23.3c.11-.13.22-.26.34-.38.27-.27.44-.68.44-1.06s-.16-.81-.44-1.06-.66-.46-1.06-.44-.77.15-1.06.44h0Z" style="fill: #fffae5;"/>
    <path d="M209.46,207.76c-.04.15-.05.17-.01.06.04-.1.03-.08-.05.05.09-.11.1-.13.03-.05-.04.05-.09.1-.14.15-.19.19-.39.38-.57.58l2.36,1.82c.36-.77.69-1.64.71-2.5.01-.64-.35-1.23-.94-1.48-.51-.22-1.05-.16-1.57.02-.72.25-1.41.57-2.11.84-.33.13-.65.25-.98.35-.17.05-.33.1-.5.15-.11.03-.22.06-.34.09-.32.06-.22.08.3.05l.9.69-.04-.07.2.76c0-.23-.07.2.04-.19.04-.14.07-.28.12-.41.09-.3.21-.59.32-.89.46-1.17-1.18-2.46-2.2-1.69-.49.37-1.01.69-1.57.95-.33.16-.97.37-1.53.5l1.9,1.45c0,.09-.12.26-.02.16.08-.08.15-.26.21-.36.14-.22.26-.39.38-.54.49-.61.64-1.53,0-2.12-.58-.53-1.55-.61-2.12,0s-.86.83-1.59,1.21-.96,1.39-.54,2.05c.46.71,1.31.93,2.05.54.82-.43,1.57-1.01,2.2-1.68l-2.12-2.12c-.68.84-1.39,1.74-1.45,2.87-.05,1.01,1,1.66,1.9,1.45,1.37-.32,2.68-.92,3.81-1.76l-2.2-1.69c-.28.72-.58,1.5-.58,2.29,0,.69.49,1.32,1.14,1.52.47.14.92.04,1.38-.07.71-.17,1.39-.43,2.06-.69.33-.13.65-.26.97-.39.16-.07.32-.13.49-.19.11-.04.22-.08.33-.12.28-.07.21-.1-.21-.09l-1.05-1.05c-.05-.11.03-.44-.04-.28-.05.11-.06.29-.09.4-.03.11-.06.21-.1.32-.14.44.09-.16-.1.26-.32.68-.24,1.45.39,1.94.55.43,1.48.45,1.97-.12.59-.68,1.26-1.2,1.51-2.11.21-.76-.26-1.67-1.05-1.85s-1.62.24-1.85,1.05h0Z" style="fill: #fffae5;"/>
    <path d="M200.46,211.58c1.93,0,1.93-3,0-3s-1.93,3,0,3h0Z" style="fill: #fffae5;"/>
    <path d="M200.65,211.39c1.93,0,1.93-3,0-3s-1.93,3,0,3h0Z" style="fill: #fffae5;"/>
    <path d="M200.78,210.94c1.93,0,1.93-3,0-3s-1.93,3,0,3h0Z" style="fill: #fffae5;"/>
    <path d="M200.69,211.27c1.93,0,1.93-3,0-3s-1.93,3,0,3h0Z" style="fill: #fffae5;"/>
    <path d="M200.64,211.28c1.93,0,1.93-3,0-3s-1.93,3,0,3h0Z" style="fill: #fffae5;"/>
    <path d="M200.59,211.35c1.93,0,1.93-3,0-3s-1.93,3,0,3h0Z" style="fill: #fffae5;"/>
  </g>
    </symbol>
<symbol id="island-jungle" viewBox="0 0 251.89 250">
  <g id="Layer_4" data-name="Layer 4">
    <path d="M44.47,210.43c-1.18-10.51-2.36-21.01-3.54-31.52-.43-.72-1.1-1.84-1.94-3.2-1.79-2.89-3.06-4.75-5.65-8.6-.96-1.43-2.49-3.7-4.41-6.58.17-.15.33-.3.5-.44,3.77,4.92,7.54,9.84,11.31,14.77-1.16-8.13-2.33-16.27-3.49-24.4l4.94-.71c.61,3.91,1.23,7.82,1.84,11.73.31-1.08.62-2.21.91-3.39.4-1.62.73-3.18,1-4.66.2.04.4.08.61.12-.3,1.66-.61,3.35-.94,5.06-.36,1.87-.74,3.7-1.13,5.5-.12.53-.24,1.07-.36,1.6,1.35-1.79,2.96-4.27,4.38-7.51,1.45-3.3,2.25-6.36,2.71-8.74.36.5.72,1.01,1.09,1.51-.93,3.46-1.92,6.14-2.68,8-.93,2.28-1.96,4.39-3.16,8.03-.39,1.19-.69,2.18-.88,2.85,2,13.08,3.99,26.16,5.99,39.24l-7.09,1.35Z" style="fill: #ae8e3a; stroke: #ae8e3a; stroke-miterlimit: 10;"/>
    <path d="M179.62,206.77c3.09-10.11,6.19-20.22,9.28-30.33-.11-.83-.28-2.13-.51-3.71-.5-3.36-.92-5.58-1.77-10.14-.32-1.7-.81-4.39-1.43-7.79.21-.07.42-.14.64-.21,1.5,6.01,3,12.03,4.51,18.04,2.17-7.93,4.33-15.85,6.5-23.78l4.82,1.32c-.99,3.83-1.98,7.66-2.97,11.49.72-.86,1.44-1.78,2.18-2.75,1.01-1.33,1.93-2.63,2.77-3.88.17.12.34.23.51.35-.93,1.41-1.89,2.83-2.88,4.27-1.08,1.57-2.15,3.1-3.22,4.6-.32.44-.65.88-.97,1.32,1.95-1.1,4.41-2.74,7.01-5.15,2.64-2.45,4.59-4.94,5.96-6.94.13.61.26,1.21.39,1.82-2.23,2.81-4.2,4.88-5.64,6.28-1.77,1.72-3.54,3.25-6.09,6.11-.83.93-1.5,1.73-1.94,2.27-3.37,12.8-6.74,25.59-10.11,38.39l-7.04-1.58Z" style="fill: #ae8e3a; stroke: #ae8e3a; stroke-miterlimit: 10;"/>
  </g>
  <g id="Layer_3" data-name="Layer 3">
    <path d="M45.58,169.84l5.89,38.62-2.63.92c-.75-9.25-1.85-19.09-3.43-29.45-1.58-10.36-3.45-20.09-5.49-29.14.79-.14,1.58-.29,2.36-.43l1.75,11.11,1.66-6.8-1.22,9.42.42,1.51,6.57-14.68.63.72-6.53,18.2Z" style="fill: #7b521e;"/>
    <path d="M196.77,169.97l-9.95,37.78-2.78-.2c2.99-8.78,5.89-18.25,8.56-28.39,2.67-10.14,4.82-19.81,6.55-28.92.78.18,1.56.36,2.34.54l-2.81,10.89,4.23-5.58-4.86,8.16-.21,1.55,11.86-10.86.29.92-13.22,14.1Z" style="fill: #7b521e;"/>
    <path d="M111.64,204.24c.5-14.26.99-28.53,1.49-42.79-.53-1.04-1.37-2.67-2.44-4.64-2.27-4.2-3.92-6.92-7.28-12.56-1.25-2.1-3.23-5.42-5.71-9.62.31-.17.62-.33.93-.5,5.04,7.29,10.08,14.58,15.12,21.86-.02-11.09-.05-22.18-.07-33.27h8.27c.1,5.33.21,10.67.31,16.01.76-1.38,1.52-2.83,2.27-4.36,1.02-2.09,1.92-4.11,2.72-6.04.32.09.65.18.97.27-.87,2.17-1.78,4.37-2.72,6.59-1.03,2.43-2.07,4.81-3.12,7.13-.32.69-.64,1.38-.96,2.07,2.63-2.13,5.84-5.15,8.92-9.21,3.14-4.14,5.16-8.07,6.47-11.17.48.74.95,1.49,1.43,2.23-2.32,4.45-4.57,7.85-6.24,10.19-2.06,2.87-4.23,5.5-7.04,10.13-.92,1.51-1.63,2.79-2.1,3.65.25,17.86.49,35.71.74,53.57l-11.94.46Z" style="fill: #ae8e3a; stroke: #ae8e3a; stroke-miterlimit: 10;"/>
    <path d="M122.84,150.21l.72,52.73-4.53.74c.91-12.5,1.38-25.86,1.2-40-.19-14.14-1.01-27.5-2.26-39.98,1.33-.04,2.65-.09,3.98-.13l.29,15.17,4.3-8.77-4.18,12.36.35,2.1,14.17-18.38.87,1.09-14.91,23.09Z" style="fill: #7b521e;"/>
  </g>
  <g id="Layer_2" data-name="Layer 2">
    <g id="Layer_7" data-name="Layer 7">
      <circle cx="68.65" cy="191.67" r="14.58" style="fill: #e900c1; stroke: #a50087; stroke-miterlimit: 10;"/>
      <path d="M200.36,194.06l18.18,3.85,5.91,17.62c-12.12-2.57-24.24-5.13-36.36-7.7l12.27-13.77Z" style="fill: #29abe2; stroke: #127daa; stroke-miterlimit: 10;"/>
      <polygon points="40.83 190.51 28.65 190.51 22.55 201.06 28.65 211.61 40.83 211.61 46.92 201.06 40.83 190.51" style="fill: blue; stroke: #0000b3; stroke-miterlimit: 10;"/>
      <rect x="161.22" y="186.62" width="19.47" height="19.47" transform="translate(-71.74 102.12) rotate(-27.74)" style="fill: #9400d4; stroke: #61008e; stroke-miterlimit: 10;"/>
      <path d="M1.72,235.09h235.69c-1.96-3.31-5.32-8.01-10.95-12.5-10.37-8.26-22.47-11.03-31.8-12.78-24.57-4.6-48.2-5.51-75.09-5.4-22.17.1-41.29.87-63.33,3.87-17.68,2.41-31.07,5.4-42.5,14.02-6.04,4.55-9.78,9.35-12.01,12.78Z" style="fill: #95c941; stroke: #8cc63f; stroke-miterlimit: 10;"/>
      <g>
        <path d="M70.62,153.37c-3.36,3.04-8.77,4.15-12.49,2.73-1.17-.45-2.14-1.12-3.88-1.13-1.8,0-2.56.72-4.59.68-1.89-.03-2.11-.91-3.16-.66-1.75.41-1.49,2.62-3.51,4.56-1.91,1.84-5.18,2.8-7.71,2.01-2.22-.69-2.78-2.39-4.13-2.06-1.21.3-1.19,1.76-2.87,3.61-1.28,1.41-2.88,2.32-4.08,2.71-3.39,1.1-6.74-.85-8.52-1.89-5.48-3.19-7.31-8.56-7.62-9.53-.67-2.08-1.63-5.03-.57-8.2.76-2.3,2.12-3.32,1.68-4.92-.43-1.59-2.07-1.75-3.89-3.23-4.02-3.28-4.11-9.15-4.11-9.5,0-5.41,3.57-8.87,4.69-9.96,1.22-1.18,4.17-4.04,6.8-3.32.71.19,1.37.64,1.68.36.5-.45-.67-2.1-1.16-3.94-.79-2.94.35-5.63.91-6.96,2.24-5.32,7.95-7.25,10.15-7.99,1.73-.59,8.97-3.04,14.87.79,1.72,1.12,4.69,3.05,5.32,6.24.24,1.18.15,2.54.82,2.78.73.26,1.52-1.13,2.93-2.12,2.76-1.92,6.35-1.19,7.52-.95,4.35.89,6.83,4.22,8.1,5.91,5.51,7.4,3.71,16.75,3.23,18.94-.13,2.18-.21,3.58-.21,3.58h0s2.46-.17,4.02.83c.65.42,1.07,1.19,1.87,2.72,1.07,2.04,1.61,3.06,1.93,4.47.55,2.39.18,4.35-.06,5.55-.34,1.69-1.04,5.22-3.98,7.87Z" style="fill: #306b33;"/>
        <path d="M63.14,148.66c-2.66,2.41-6.94,3.28-9.88,2.16-.93-.35-1.69-.89-3.07-.89-1.43,0-2.03.57-3.63.54-1.49-.03-1.67-.72-2.5-.52-1.38.33-1.18,2.07-2.78,3.61-1.51,1.46-4.1,2.22-6.1,1.59-1.76-.55-2.2-1.89-3.27-1.63-.96.23-.94,1.39-2.27,2.86-1.01,1.12-2.28,1.83-3.23,2.14-2.68.87-5.33-.68-6.74-1.5-4.33-2.53-5.78-6.77-6.03-7.54-.53-1.65-1.29-3.98-.45-6.49.6-1.82,1.68-2.62,1.33-3.89-.34-1.26-1.64-1.38-3.08-2.55-3.18-2.6-3.25-7.24-3.25-7.52,0-4.28,2.82-7.02,3.71-7.88.96-.94,3.3-3.2,5.38-2.63.56.15,1.08.5,1.33.28.4-.36-.53-1.66-.92-3.12-.62-2.32.28-4.45.72-5.51,1.78-4.21,6.29-5.74,8.04-6.33,1.37-.46,7.1-2.4,11.77.63,1.36.88,3.71,2.41,4.21,4.94.19.94.12,2.01.65,2.2.58.21,1.2-.9,2.32-1.68,2.18-1.52,5.03-.94,5.95-.75,3.45.7,5.41,3.34,6.41,4.68,4.36,5.85,2.94,13.25,2.56,14.99-.1,1.73-.16,2.84-.16,2.84h0s1.95-.13,3.18.66c.52.33.85.94,1.48,2.15.85,1.61,1.27,2.42,1.53,3.53.44,1.89.14,3.45-.05,4.39-.27,1.34-.82,4.13-3.15,6.23Z" style="fill: #4e9c44;"/>
      </g>
      <rect x="1.84" y="110.81" width="26.15" height="11.63" transform="translate(60.31 8.17) rotate(30)" style="fill: #ff4215; stroke: #c42500; stroke-miterlimit: 10;"/>
      <path d="M30.89,132.77c-.64-.29-4.32-2.04-5.66-6.25-1.05-3.3-.3-7.01,1.83-9.46.55-.64,2.44-2.81,5.09-2.73,1.53.05,2.74.83,3.18,1.11,1.33.86,2.06,1.95,2.4,2.55" style="fill: #4e9c44; stroke: #006837;"/>
      <g>
        <path d="M159.17,133.31c-5.53,3.21-13.32,3.14-18.03.1-1.48-.96-2.62-2.18-5.02-2.7-2.48-.54-3.75.24-6.53-.41-2.59-.6-2.64-1.87-4.16-1.83-2.53.06-2.82,3.17-6.18,5.26-3.17,1.98-7.97,2.34-11.23.51-2.87-1.61-3.13-4.11-5.09-4.05-1.75.05-2.15,2.07-5.01,4.14-2.18,1.57-4.65,2.35-6.43,2.54-4.99.52-9.04-3.16-11.19-5.11-6.61-6.01-7.57-13.95-7.72-15.38-.32-3.07-.77-7.42,1.61-11.48,1.73-2.95,3.89-3.95,3.76-6.29-.13-2.32-2.35-3.02-4.42-5.59-4.58-5.71-2.98-13.82-2.88-14.31,1.58-7.46,7.52-11.19,9.39-12.36,2.03-1.27,6.93-4.35,10.35-2.59.92.47,1.7,1.28,2.21.98.82-.47-.3-3.09-.44-5.77-.22-4.28,2.13-7.66,3.3-9.33,4.65-6.68,13.1-7.67,16.35-8.05,2.56-.3,13.27-1.56,20.27,5.46,2.04,2.04,5.57,5.58,5.51,10.16-.02,1.7-.54,3.55.31,4.07.93.58,2.43-1.12,4.67-2.06,4.37-1.84,9.11.22,10.65.89,5.75,2.5,8.19,7.82,9.43,10.53,5.43,11.82.2,24.19-1.1,27.07-.81,2.97-1.33,4.88-1.33,4.88h0s3.44.49,5.3,2.33c.78.77,1.12,1.96,1.78,4.3.88,3.12,1.32,4.68,1.35,6.73.06,3.46-1.03,6.06-1.71,7.64-.96,2.23-2.97,6.89-7.8,9.69Z" style="fill: #57b248;"/>
        <path d="M151.58,125.14c-4.51,2.61-10.85,2.56-14.69.08-1.21-.78-2.14-1.77-4.09-2.2-2.02-.44-3.05.2-5.33-.33-2.11-.49-2.15-1.52-3.39-1.49-2.06.05-2.3,2.59-5.03,4.29-2.59,1.61-6.5,1.91-9.15.42-2.34-1.31-2.55-3.35-4.15-3.3-1.43.04-1.75,1.69-4.08,3.37-1.77,1.28-3.79,1.92-5.24,2.07-4.07.43-7.37-2.57-9.12-4.16-5.39-4.9-6.17-11.37-6.29-12.53-.26-2.5-.63-6.04,1.31-9.36,1.41-2.4,3.17-3.22,3.07-5.13-.1-1.89-1.91-2.46-3.6-4.56-3.74-4.65-2.43-11.26-2.35-11.66,1.29-6.08,6.13-9.12,7.65-10.07,1.65-1.04,5.65-3.55,8.44-2.11.75.39,1.38,1.04,1.8.8.67-.39-.25-2.52-.36-4.7-.18-3.49,1.74-6.24,2.69-7.61,3.79-5.44,10.67-6.25,13.33-6.56,2.09-.24,10.82-1.27,16.52,4.45,1.66,1.66,4.54,4.55,4.49,8.28-.02,1.39-.44,2.89.25,3.32.76.47,1.98-.91,3.8-1.68,3.56-1.5,7.43.18,8.68.73,4.68,2.04,6.67,6.37,7.69,8.58,4.43,9.63.16,19.71-.9,22.07-.66,2.42-1.09,3.98-1.09,3.98h0s2.81.4,4.32,1.9c.63.63.92,1.6,1.45,3.51.72,2.55,1.08,3.82,1.1,5.48.05,2.82-.84,4.94-1.4,6.23-.78,1.82-2.42,5.62-6.35,7.9Z" style="fill: #95c941;"/>
      </g>
      <polygon points="175.28 72.62 157.78 75.48 140.33 78.61 146.38 62.21 152.17 45.72 163.62 59.26 175.28 72.62" style="fill: #e99a05; stroke: #a76b00; stroke-miterlimit: 10;"/>
      <path d="M128.74,76.22c.4-.57,2.77-3.89,7.15-4.47,3.44-.45,6.95.94,8.99,3.48.53.66,2.33,2.9,1.79,5.49-.31,1.5-1.3,2.55-1.66,2.94-1.08,1.16-2.28,1.68-2.94,1.91" style="fill: #95c941; stroke: #4e9c44; stroke-miterlimit: 10;"/>
      <g>
        <path d="M221.7,172.16c-4.49.63-9.59-1.49-11.87-4.75-.72-1.03-1.14-2.13-2.58-3.11-1.49-1.02-2.53-.84-4.18-2.01-1.54-1.09-1.23-1.93-2.24-2.32-1.68-.64-2.7,1.33-5.46,1.81-2.61.45-5.86-.59-7.51-2.66-1.45-1.82-.96-3.54-2.26-4.02-1.17-.43-1.97.79-4.4,1.38-1.85.45-3.68.3-4.9-.05-3.42-.99-5.1-4.49-5.99-6.35-2.74-5.72-1.24-11.19-.96-12.16.61-2.1,1.48-5.08,4.13-7.11,1.92-1.47,3.61-1.56,4.15-3.13.54-1.56-.74-2.61-1.41-4.85-1.49-4.97,1.73-9.87,1.93-10.17,3.03-4.48,7.93-5.34,9.47-5.61,1.67-.29,5.72-1.01,7.49,1.06.48.56.77,1.29,1.19,1.24.67-.09.63-2.11,1.25-3.91,1-2.87,3.45-4.46,4.66-5.25,4.84-3.14,10.65-1.54,12.89-.92,1.76.49,9.13,2.52,11.86,9,.79,1.89,2.17,5.15.91,8.15-.47,1.11-1.3,2.19-.88,2.76.46.63,1.89-.09,3.62-.11,3.36-.04,5.93,2.58,6.76,3.43,3.11,3.18,3.29,7.32,3.38,9.44.41,9.22-6.33,15.94-7.96,17.49-1.33,1.74-2.18,2.85-2.18,2.85h0s2.13,1.24,2.86,2.94c.31.71.22,1.59.02,3.3-.26,2.29-.38,3.43-.91,4.78-.89,2.29-2.3,3.7-3.17,4.56-1.23,1.21-3.79,3.73-7.71,4.29Z" style="fill: #306b33;"/>
        <path d="M218.15,164.06c-3.55.5-7.59-1.18-9.39-3.76-.57-.81-.9-1.69-2.04-2.46-1.18-.8-2-.67-3.31-1.59-1.22-.86-.98-1.53-1.78-1.83-1.33-.51-2.14,1.05-4.32,1.43-2.07.36-4.64-.47-5.95-2.11-1.15-1.44-.76-2.8-1.79-3.18-.92-.34-1.56.62-3.48,1.09-1.46.36-2.91.24-3.88-.04-2.71-.78-4.03-3.55-4.74-5.02-2.17-4.52-.98-8.85-.76-9.62.48-1.66,1.17-4.02,3.27-5.63,1.52-1.17,2.86-1.23,3.29-2.47.42-1.23-.58-2.06-1.11-3.84-1.18-3.94,1.37-7.81,1.53-8.05,2.4-3.54,6.28-4.23,7.49-4.44,1.32-.23,4.52-.8,5.93.84.38.44.61,1.02.94.98.53-.07.5-1.67.99-3.09.79-2.27,2.73-3.53,3.69-4.15,3.83-2.49,8.43-1.22,10.2-.73,1.4.39,7.23,2,9.39,7.12.63,1.49,1.72,4.08.72,6.45-.37.88-1.03,1.73-.7,2.18.36.5,1.5-.07,2.86-.09,2.66-.03,4.69,2.04,5.35,2.72,2.46,2.52,2.6,5.8,2.68,7.47.32,7.29-5.01,12.62-6.3,13.84-1.05,1.37-1.73,2.26-1.73,2.26h0s1.69.98,2.26,2.33c.24.56.17,1.25.02,2.61-.2,1.81-.3,2.71-.72,3.78-.7,1.81-1.82,2.93-2.51,3.61-.97.96-3,2.96-6.1,3.39Z" style="fill: #4e9c44;"/>
      </g>
      <circle cx="229.55" cy="119.63" r="14.58" style="fill: #d4145a; stroke: #950036;"/>
      <path d="M206.27,124.38c.47-.52,3.28-3.48,7.69-3.45,3.47.02,6.76,1.88,8.43,4.67.43.72,1.91,3.19,1.02,5.68-.52,1.44-1.63,2.35-2.05,2.68-1.23,1-2.49,1.36-3.17,1.5" style="fill: #4e9c44; stroke: #006837;"/>
      <path d="M114.56,110.83c-.08-.83-3.04-.37-8.17-2.34-4.25-1.63-5.83-3.33-6.37-2.81-.79.76,1.13,5.7,5.1,7.31,4.32,1.75,9.56-1.05,9.45-2.17Z" style="fill: #4c9d42;"/>
      <path d="M40.61,145.83c-.11-.29-4.15,2.3-9.37,1.37-5.1-.91-7.99-4.59-8.25-4.29-.27.32,2.38,4.69,7,5.85,5.53,1.39,10.74-2.61,10.61-2.94Z" style="fill: #306b33; stroke: #306b33;"/>
      <path d="M204.71,149.48c.12-.32-4.28-.95-7.7-4.83-3.54-4.02-3.57-8.72-4.03-8.63-.47.09-1.15,5.15,1.67,8.97,3.38,4.58,9.92,4.87,10.06,4.49Z" style="fill: #306b33; stroke: #306b33;"/>
      <g>
        <path d="M76.25,202.13c-.22-.51-.72-.64-1.49-.91-1.9-.68-3.2-2.35-3.7-3.25-1.06-1.93-1.02-4.88.35-6.57,1.36-1.67,3.79-1.86,3.7-2.41-.05-.29-.72-.2-1.61-.89-.17-.13-.7-.56-1.04-1.23-.41-.81-.33-1.57-.19-2.71.18-1.49.62-2.64.95-3.34.29-.63.67-1.42,1.42-2.26.41-.46,1-1.11,1.99-1.57.39-.18,1.64-.76,3.13-.47,1.01.19,1.43.65,1.68.42.39-.34-.49-1.45-.49-3.08,0-1.57.82-2.75,1.13-3.19,1.23-1.78,3.02-2.32,4.12-2.66.99-.3,3.12-.95,5.54,0,.23.09,3.63,1.48,4.55,4.72.47,1.64.28,3.74.02,4.12,0,.01-.03.05-.02.08.09.3,2.49-.91,4.38-.27,2.07.7,2.85,3.41,2.94,3.73.06.21.62,2.38-.35,4.5-.57,1.23-1.47,2.05-1.21,2.44.16.23.6,0,1.05.07,1.79.26,3.22,2.76,3.57,4.87.36,2.19-.43,4.04-1.14,5.68-.43,1-.72,1.09-.99,1.92-.72,2.16.87,3.71.07,4.72-.39.49-1.1.61-1.85.74-.87.15-1.55.03-1.71,0-2.21-.37-9.12.04-10.95.15-4.09.24-8.23.03-12.29.66-.29.05-2.17.33-2.56-.44-.45-.89,1.5-2.41.99-3.59Z" style="fill: #39b54a; stroke: #39b54a;"/>
        <g>
          <path d="M78.74,201.69c-.18-.45-.57-.57-1.19-.82-1.51-.6-2.55-2.1-2.95-2.9-.85-1.72-.81-4.36.28-5.87,1.08-1.49,3.02-1.66,2.95-2.15-.04-.26-.58-.17-1.28-.79-.13-.12-.56-.5-.83-1.09-.32-.72-.26-1.4-.15-2.42.14-1.33.49-2.36.76-2.99.23-.56.53-1.27,1.13-2.02.33-.41.8-.99,1.59-1.41.31-.16,1.31-.68,2.49-.42.8.17,1.14.58,1.34.38.31-.3-.39-1.29-.39-2.75,0-1.4.65-2.45.9-2.85.98-1.59,2.41-2.08,3.29-2.37.79-.27,2.49-.85,4.42,0,.19.08,2.9,1.32,3.63,4.22.37,1.47.23,3.34.02,3.68,0,.01-.03.04-.02.08.07.27,1.98-.81,3.49-.24,1.65.63,2.28,3.04,2.35,3.33.05.19.49,2.12-.28,4.02-.45,1.1-1.17,1.84-.96,2.18.13.21.48,0,.84.07,1.42.23,2.57,2.47,2.84,4.35.29,1.95-.35,3.61-.91,5.07-.34.89-.57.98-.79,1.71-.58,1.93.7,3.31.06,4.22-.31.44-.88.55-1.47.66-.69.13-1.24.02-1.36,0-1.76-.33-7.27.04-8.73.14-3.26.22-6.56.03-9.8.59-.23.04-1.73.29-2.04-.39-.36-.8,1.2-2.15.79-3.2Z" style="fill: #95c941;"/>
          <line x1="83.22" y1="193.95" x2="89.26" y2="204.37" style="fill: none; stroke: #4e9c44; stroke-linecap: round; stroke-linejoin: round; stroke-width: .75px;"/>
          <line x1="94.84" y1="193.95" x2="89.8" y2="204.36" style="fill: none; stroke: #4e9c44; stroke-linecap: round; stroke-linejoin: round; stroke-width: .75px;"/>
          <line x1="89" y1="183.54" x2="89.52" y2="204.37" style="fill: none; stroke: #4e9c44; stroke-linecap: round; stroke-linejoin: round; stroke-width: .75px;"/>
        </g>
      </g>
      <g>
        <path d="M208.36,210.79c.04-.45-.26-.73-.71-1.23-1.09-1.22-1.37-2.91-1.38-3.74-.01-1.78,1.16-3.87,2.8-4.54,1.61-.66,3.42.15,3.57-.29.08-.23-.44-.42-.8-1.25-.07-.16-.29-.67-.27-1.28.02-.73.38-1.24.91-2,.7-.99,1.46-1.64,1.97-2.02.45-.33,1.03-.75,1.89-1.06.47-.17,1.14-.4,2.03-.35.35.02,1.46.1,2.41.87.64.53.76,1.01,1.03.95.41-.09.21-1.22.84-2.38.61-1.12,1.65-1.64,2.04-1.84,1.57-.79,3.05-.48,3.96-.3.82.17,2.59.53,3.95,2.15.13.15,2.01,2.46,1.41,5.12-.31,1.35-1.24,2.77-1.58,2.95-.01,0-.04.02-.05.05-.05.25,2.12.32,3.22,1.51,1.2,1.3.71,3.53.65,3.8-.04.17-.48,1.93-2,3.07-.88.66-1.84.9-1.8,1.27.02.23.42.24.72.46,1.17.88,1.22,3.21.66,4.85-.59,1.7-1.88,2.71-3.01,3.61-.69.55-.93.5-1.45.98-1.35,1.26-.81,2.98-1.78,3.39-.47.2-1.02,0-1.6-.19-.68-.23-1.12-.58-1.22-.66-1.43-1.12-6.52-3.5-7.86-4.13-3.01-1.41-5.88-3.17-9.01-4.29-.22-.08-1.67-.61-1.65-1.31.03-.81,2-1.14,2.09-2.17Z" style="fill: #39b54a; stroke: #39b54a;"/>
        <g>
          <path d="M210.3,211.45c.05-.39-.19-.63-.53-1.04-.84-1.02-1.01-2.48-.98-3.21.06-1.55,1.11-3.42,2.47-4.07,1.35-.64,2.8-.01,2.93-.39.07-.2-.34-.35-.61-1.06-.05-.13-.21-.57-.17-1.1.05-.64.36-1.1.83-1.78.61-.89,1.27-1.49,1.7-1.84.38-.31.87-.7,1.59-1,.39-.16.95-.39,1.67-.39.28,0,1.2.03,1.94.66.51.43.58.85.81.79.34-.1.22-1.07.79-2.11.54-1,1.41-1.5,1.74-1.69,1.32-.75,2.52-.55,3.26-.42.67.11,2.1.36,3.15,1.71.1.13,1.55,2.06.95,4.41-.3,1.19-1.13,2.47-1.41,2.63,0,0-.04.02-.04.05-.05.22,1.73.19,2.58,1.18.93,1.09.44,3.05.38,3.28-.04.15-.47,1.7-1.76,2.75-.75.61-1.54.85-1.53,1.18,0,.2.34.19.57.37.92.72.87,2.75.34,4.2-.55,1.5-1.65,2.44-2.61,3.26-.59.5-.79.47-1.23.91-1.16,1.15-.79,2.63-1.59,3.03-.39.19-.84.05-1.3-.1-.55-.18-.89-.46-.97-.53-1.13-.92-5.2-2.79-6.27-3.28-2.41-1.11-4.69-2.52-7.21-3.37-.18-.06-1.35-.46-1.3-1.07.05-.71,1.69-1.07,1.8-1.98Z" style="fill: #95c941;"/>
          <line x1="216.49" y1="207.67" x2="216.76" y2="217.43" style="fill: none; stroke: #4e9c44; stroke-linecap: round; stroke-linejoin: round; stroke-width: .75px;"/>
          <line x1="224.76" y1="212.17" x2="217.14" y2="217.63" style="fill: none; stroke: #4e9c44; stroke-linecap: round; stroke-linejoin: round; stroke-width: .75px;"/>
          <line x1="224.64" y1="202.49" x2="216.94" y2="217.52" style="fill: none; stroke: #4e9c44; stroke-linecap: round; stroke-linejoin: round; stroke-width: .75px;"/>
        </g>
      </g>
      <g>
        <path d="M134.18,199.52c-.17-.52-.66-.7-1.4-1.04-1.83-.84-2.98-2.63-3.39-3.56-.89-2.01-.58-4.95.94-6.51,1.5-1.54,3.94-1.51,3.9-2.07-.03-.29-.7-.26-1.53-1.02-.15-.14-.65-.62-.93-1.31-.33-.84-.18-1.59.05-2.72.31-1.47.85-2.57,1.24-3.25.34-.6.79-1.36,1.62-2.13.45-.42,1.1-1.01,2.12-1.39.4-.15,1.7-.61,3.16-.19.99.28,1.36.77,1.64.57.41-.3-.36-1.48-.21-3.11.14-1.57,1.06-2.66,1.41-3.08,1.39-1.66,3.22-2.05,4.34-2.28,1.01-.21,3.19-.67,5.52.49.22.11,3.49,1.8,4.11,5.11.32,1.68-.05,3.75-.34,4.11,0,.01-.04.05-.03.08.06.31,2.56-.68,4.38.12,2,.89,2.54,3.65,2.6,3.98.04.22.41,2.42-.75,4.45-.67,1.18-1.64,1.92-1.42,2.32.14.25.59.06,1.04.17,1.76.42,2.96,3.04,3.12,5.17.16,2.21-.79,3.99-1.64,5.56-.52.96-.81,1.02-1.16,1.82-.91,2.09.54,3.77-.35,4.71-.43.46-1.15.51-1.91.57-.88.07-1.55-.11-1.7-.15-2.17-.57-9.09-.77-10.92-.82-4.1-.12-8.2-.7-12.3-.43-.29.02-2.19.13-2.51-.67-.37-.93,1.71-2.27,1.3-3.49Z" style="fill: #399c4a; stroke: #399c4a;"/>
        <g>
          <path d="M137.03,200.64c-.13-.47-.52-.62-1.11-.92-1.45-.74-2.36-2.32-2.68-3.15-.69-1.79-.42-4.41.8-5.82,1.21-1.39,3.16-1.38,3.13-1.88-.02-.26-.56-.23-1.21-.9-.12-.13-.52-.54-.73-1.16-.26-.75-.13-1.42.06-2.42.26-1.31.7-2.3,1.02-2.91.28-.54.64-1.22,1.31-1.91.36-.38.88-.91,1.71-1.26.32-.14,1.36-.56,2.52-.2.79.24,1.08.68,1.3.5.33-.28-.27-1.32-.14-2.77.13-1.4.87-2.39,1.15-2.76,1.12-1.5,2.59-1.85,3.48-2.07.81-.2,2.55-.62,4.4.39.18.1,2.77,1.58,3.24,4.52.24,1.5-.07,3.34-.31,3.67,0,.01-.03.04-.03.07.05.27,2.05-.63,3.5.07,1.59.77,2,3.23,2.04,3.53.03.19.3,2.16-.64,3.98-.55,1.06-1.33,1.72-1.15,2.08.11.22.47.05.83.14,1.4.36,2.34,2.69,2.45,4.59.11,1.97-.67,3.57-1.35,4.97-.42.86-.66.92-.94,1.64-.75,1.87.4,3.36-.32,4.21-.35.41-.92.47-1.53.53-.7.07-1.24-.09-1.35-.12-1.73-.49-7.25-.61-8.71-.64-3.27-.07-6.54-.56-9.81-.28-.23.02-1.75.14-2-.58-.28-.83,1.38-2.04,1.07-3.12Z" style="fill: #6eba41;"/>
          <line x1="142.18" y1="193.34" x2="147.26" y2="204.24" style="fill: none; stroke: #4e9c44; stroke-linecap: round; stroke-linejoin: round; stroke-width: .75px;"/>
          <line x1="153.75" y1="194.37" x2="147.8" y2="204.29" style="fill: none; stroke: #4e9c44; stroke-linecap: round; stroke-linejoin: round; stroke-width: .75px;"/>
          <line x1="148.86" y1="183.48" x2="147.52" y2="204.27" style="fill: none; stroke: #4e9c44; stroke-linecap: round; stroke-linejoin: round; stroke-width: .75px;"/>
        </g>
      </g>
      <g>
        <path d="M12.17,219.23c-.32-.32-.74-.28-1.42-.26-1.66.05-3.16-.85-3.81-1.39-1.39-1.16-2.24-3.44-1.69-5.15.54-1.69,2.36-2.56,2.12-2.96-.13-.21-.61.07-1.5-.2-.17-.05-.71-.22-1.17-.63-.55-.5-.72-1.11-.96-2.02-.31-1.2-.31-2.21-.27-2.85.04-.57.09-1.29.41-2.16.18-.47.44-1.15,1.06-1.81.24-.26,1.04-1.07,2.26-1.3.83-.15,1.29.07,1.42-.18.19-.38-.81-.97-1.3-2.22-.47-1.21-.2-2.36-.09-2.79.41-1.74,1.63-2.69,2.37-3.28.67-.53,2.11-1.66,4.26-1.66.21,0,3.23.05,4.91,2.26.85,1.12,1.34,2.79,1.25,3.16,0,.01-.01.05,0,.07.16.2,1.64-1.44,3.28-1.52,1.8-.08,3.21,1.76,3.38,1.99.11.14,1.19,1.64,1.08,3.56-.07,1.12-.51,2.02-.2,2.23.19.13.46-.17.83-.26,1.45-.33,3.3,1.16,4.2,2.67.93,1.57.88,3.24.83,4.71-.03.9-.22,1.05-.19,1.77.09,1.88,1.78,2.59,1.47,3.61-.15.49-.66.8-1.2,1.12-.62.37-1.19.49-1.31.51-1.81.38-7,2.77-8.37,3.4-3.07,1.41-6.32,2.49-9.24,4.19-.21.12-1.57.9-2.1.43-.61-.55.43-2.3-.31-3.05Z" style="fill: #399c4a; stroke: #399c4a;"/>
        <g>
          <path d="M14.68,219.01c-.27-.29-.61-.27-1.16-.27-1.34-.01-2.59-.85-3.13-1.34-1.17-1.07-1.93-3.1-1.54-4.59.38-1.47,1.83-2.18,1.62-2.54-.11-.19-.5.04-1.22-.22-.14-.05-.58-.21-.97-.59-.46-.46-.62-1-.84-1.81-.29-1.06-.33-1.96-.31-2.52.01-.5.03-1.13.26-1.89.13-.41.32-1,.8-1.56.19-.22.8-.91,1.79-1.07.67-.11,1.05.11,1.14-.11.15-.33-.69-.88-1.12-2-.42-1.08-.24-2.08-.17-2.46.28-1.52,1.23-2.32,1.81-2.81.53-.44,1.66-1.4,3.4-1.32.17,0,2.62.15,4.05,2.15.72,1.02,1.17,2.5,1.12,2.82,0,.01,0,.04,0,.06.14.19,1.28-1.22,2.61-1.23,1.46-.01,2.66,1.66,2.8,1.86.09.13,1.02,1.48.99,3.17-.02.98-.35,1.76-.09,1.96.16.12.37-.14.66-.2,1.16-.25,2.71,1.13,3.49,2.49.81,1.42.82,2.88.82,4.17,0,.79-.15.92-.1,1.55.13,1.65,1.53,2.34,1.31,3.22-.11.43-.51.68-.93.95-.49.31-.95.39-1.04.41-1.45.27-5.58,2.21-6.67,2.72-2.44,1.15-5.03,1.99-7.35,3.39-.17.1-1.24.74-1.69.31-.51-.51.27-2.01-.35-2.7Z" style="fill: #6eba41;"/>
          <line x1="15.8" y1="211.72" x2="23.56" y2="217.91" style="fill: none; stroke: #4e9c44; stroke-linecap: round; stroke-linejoin: round; stroke-width: .75px;"/>
          <line x1="24.73" y1="208.24" x2="23.97" y2="217.75" style="fill: none; stroke: #4e9c44; stroke-linecap: round; stroke-linejoin: round; stroke-width: .75px;"/>
          <line x1="17.12" y1="201.99" x2="23.76" y2="217.84" style="fill: none; stroke: #4e9c44; stroke-linecap: round; stroke-linejoin: round; stroke-width: .75px;"/>
        </g>
      </g>
    </g>
  </g>
</symbol>


     <symbol id="island-labyrinth" viewBox="0 0 251.89 250">
<polyline points="64.15 135.87 58.87 142.65 58.87 161.79 64.15 161.79" style="fill: #d06e61; stroke: #333; stroke-miterlimit: 10;"/>
  <polyline points="73.27 170.43 68.47 176.19 33.91 176.19 33.91 170.43" style="fill: #d06e61; stroke: #333; stroke-miterlimit: 10;"/>
  <polyline points="118.39 146.43 114.07 152.19 96.79 152.19 96.79 146.43" style="fill: #d06e61; stroke: #333; stroke-miterlimit: 10;"/>
  <polyline points="85.75 171.63 80.47 176.19 80.47 182.77 85.75 182.77" style="fill: #d06e61; stroke: #333; stroke-miterlimit: 10;"/>
  <polyline points="108.31 84.03 102.96 91.71 102.96 135.87 108.31 135.87" style="fill: #d06e61; stroke: #333; stroke-miterlimit: 10;"/>
  <polyline points="20.95 .51 15.45 6.71 15.45 56.03 37.05 56.03 37.05 67.73 47.35 67.73 50.71 63.87 42.55 63.87 42.55 49.95 21.75 49.95" style="fill: #d06e61; stroke: #333; stroke-miterlimit: 10;"/>
  <polyline points="168.79 93.63 168.79 115.99 164.61 115.99 164.61 98.03 158.23 98.03 158.23 93.63" style="fill: #d06e61; stroke: #333; stroke-miterlimit: 10;"/>
  <polyline points="149.59 127.46 145.21 131.55 138.55 131.55 138.55 127.46" style="fill: #d06e61; stroke: #333; stroke-miterlimit: 10;"/>
  <polyline points="149.59 72.51 144.79 78.27 138.55 78.27 138.55 72.99" style="fill: #d06e61; stroke: #333; stroke-miterlimit: 10;"/>
  <polyline points="116.47 49.95 116.47 55.43 124.95 55.43 124.95 83.66 129.91 83.55 129.91 49.95" style="fill: #d06e61; stroke: #333; stroke-miterlimit: 10;"/>
  <polyline points="149.59 84.03 144.79 89.79 144.79 95.55 149.59 95.55" style="fill: #d06e61; stroke: #333; stroke-miterlimit: 10;"/>
  <polyline points="158.23 115.99 155.83 120.99 155.83 132.99 175.51 132.99 179.35 127.71" style="fill: #d06e61; stroke: #333; stroke-miterlimit: 10;"/>
  <polyline points="159.67 63.87 155.83 68.36 155.83 78.27 183.48 78.27 183.48 110.39 195 110.39 198.07 105.63 188.95 105.63 188.95 72.99 159.67 72.99" style="fill: #d06e61; stroke: #333; stroke-miterlimit: 10;"/>
  <polyline points="190.63 192.03 199.03 192.03 195.99 195.71 186.73 195.71 186.73 150.71 179.35 150.71 179.35 146.43 190.63 146.43" style="fill: #d06e61; stroke: #333; stroke-miterlimit: 10;"/>
  <polyline points="168.79 176.19 165.43 179.31 165.43 182.77 168.79 182.77" style="fill: #d06e61; stroke: #333; stroke-miterlimit: 10;"/>
  <polyline points="128.95 115.99 125.79 121.55 125.97 152.19 143.23 152.19 143.23 182.77 147.19 182.77 147.19 146.43 129.91 146.43" style="fill: #d06e61; stroke: #333; stroke-miterlimit: 10;"/>
  <polygon points="102.96 63.87 102.96 34.59 96.79 34.59 96.79 29.31 108.31 29.31 108.31 63.87 102.96 63.87" style="fill: #d06e61; stroke: #333; stroke-miterlimit: 10;"/>
  <polyline points="64.15 63.87 59.35 70.59 59.35 74.91 64.15 74.91" style="fill: #d06e61; stroke: #333; stroke-miterlimit: 10;"/>
  <polyline points="54.31 107.55 50.71 111.87 33.91 111.87 33.91 107.55" style="fill: #d06e61; stroke: #333; stroke-miterlimit: 10;"/>
  <polyline points="58.87 89.79 64.15 85.95 30.55 85.95 30.55 89.79 58.87 89.79 58.87 115.99 64.15 115.99 64.15 85.95" style="fill: #d06e61; stroke: #333; stroke-miterlimit: 10;"/>
  <polyline points="54.31 124.58 54.31 130.34 92.31 130.34 96.79 124.58" style="fill: #d06e61; stroke: #333; stroke-miterlimit: 10;"/>
  <polyline points="169.99 138.27 165.43 142.65 165.43 170.43 175.75 170.43 179.35 163.23" style="fill: #d06e61; stroke: #333; stroke-miterlimit: 10;"/>
  <polyline points="109.27 9.15 102.96 14.43 109.27 9.15 109.27 22.11 102.96 22.11 102.96 14.43 92.47 14.43 92.47 6.27 96.79 .51" style="fill: #d06e61; stroke: #333; stroke-miterlimit: 10;"/>
  <polyline points="42.55 22.11 38.23 27.87 38.23 36.51 69.91 36.51 73.27 29.79" style="fill: #d06e61; stroke: #333; stroke-miterlimit: 10;"/>
  <polyline points="64.15 41.31 58.87 47.55 58.87 57.15 93.91 57.15 96.79 49.95" style="fill: #d06e61; stroke: #333; stroke-miterlimit: 10;"/>
  <polyline points="86.23 63.87 82.39 71.55 82.39 109.71 94.63 109.71 96.79 105.63" style="fill: #d06e61; stroke: #333; stroke-miterlimit: 10;"/>
  <polyline points="85.75 135.87 80.47 142.65 80.47 166.59 92.47 166.59 96.79 161.79" style="fill: #d06e61; stroke: #333; stroke-miterlimit: 10;"/>
  <polyline points="44.71 182.77 39.19 189.39 39.19 199.23 89.59 199.23 95.59 191.79" style="fill: #d06e61; stroke: #333; stroke-miterlimit: 10;"/>
  <polyline points="33.91 192.99 30.55 199.23 19.03 199.23 17.11 70.11 20.95 61.95" style="fill: #d06e61; stroke: #333; stroke-miterlimit: 10;"/>
  <polyline points="54.31 146.43 50.71 152.19 38.23 152.19 37.75 121.47 42.55 115.99" style="fill: #d06e61; stroke: #333; stroke-miterlimit: 10;"/>
  <path d="M20.95.51c.27,16.48.53,32.96.8,49.44h20.8v13.92h8.16v-22.56h-20.16V8.19h33.6v13.92h-21.6v7.68h30.72V9.15h14.4V.51S20.95.99,20.95.51Z" style="fill: #c44a3a; stroke: #333; stroke-miterlimit: 10;"/>
  <polygon points="59.35 14.43 59.35 14.43 59.35 22.11 64.15 22.11 64.15 8.19 30.55 8.19 30.55 14.43 59.35 14.43" style="fill: #d06e61; stroke: #333; stroke-miterlimit: 10;"/>
  <polygon points="73.27 14.43 83.83 14.43 87.67 9.15 73.27 9.15 73.27 14.43" style="fill: #d06e61; stroke: #333; stroke-miterlimit: 10;"/>
  <line x1="42.55" y1="29.79" x2="38.23" y2="36.51" style="fill: #d06e61; stroke: #333; stroke-miterlimit: 10;"/>
  <path d="M30.55,61.95h-9.6l1.92,131.04h11.04v-22.56h39.36v-34.56h-9.12v25.92h-30.24v-54.24h20.4v-10.08h-23.76v-11.52h33.6v30.04h-21.6v30.44h11.76v-21.6h42.48v-8.84h-23.52v-52.12h-9.12v11.04H30.55s.48-13.44,0-12.96Z" style="fill: #c44a3a; stroke: #333; stroke-miterlimit: 10;"/>
  <line x1="42.55" y1="146.43" x2="38.23" y2="152.19" style="fill: #d06e61; stroke: #333; stroke-miterlimit: 10;"/>
  <line x1="22.87" y1="192.99" x2="19.03" y2="199.23" style="fill: #d06e61; stroke: #333; stroke-miterlimit: 10;"/>
  <line x1="64.15" y1="49.95" x2="58.87" y2="57.15" style="fill: #d06e61; stroke: #333; stroke-miterlimit: 10;"/>
  <polyline points="87.67 22.11 82.39 29.31 82.39 41.31 87.67 41.31" style="fill: #d06e61; stroke: #333; stroke-miterlimit: 10;"/>
  <path d="M96.79,9.15l-4.32,5.28,4.32-5.28Z" style="fill: #d06e61; stroke: #333; stroke-miterlimit: 10;"/>
  <line x1="86.23" y1="105.63" x2="82.39" y2="109.71" style="fill: #d06e61; stroke: #333; stroke-miterlimit: 10;"/>
  <polyline points="116.47 72.99 113.59 78.27 96.79 78.27 96.79 72.99" style="fill: #d06e61; stroke: #333; stroke-miterlimit: 10;"/>
  <line x1="108.31" y1="29.31" x2="102.96" y2="34.59" style="fill: #d06e61; stroke: #333; stroke-miterlimit: 10;"/>
  <polygon points="183.67 14.43 183.67 14.43 138.55 14.43 138.55 9.15 188.95 9.15 188.95 63.87 183.75 63.87 183.67 14.43" style="fill: #d06e61; stroke: #333; stroke-miterlimit: 10;"/>
  <polygon points="64.15 41.31 64.15 49.95 96.79 49.95 96.79 29.31 108.31 29.31 108.31 63.87 86.23 63.87 86.23 105.63 96.79 105.63 96.79 72.51 116.47 72.99 116.47 49.95 129.91 49.95 129.91 83.55 108.31 84.03 108.31 135.87 85.75 135.87 85.75 161.79 96.79 161.79 96.79 146.43 118.39 146.43 118.39 95.55 129.91 95.55 129.91 105.63 158.23 105.15 158.23 93.63 168.79 93.63 168.79 115.99 158.23 115.99 158.23 127.46 179.35 127.71 179.35 84.03 149.59 84.03 149.59 95.55 138.55 95.55 138.55 72.99 149.59 72.51 149.59 63.87 139.03 63.87 138.55 41.31 117.91 41.79 117.91 9.15 128.95 9.15 129.43 29.31 138.55 29.31 138.55 9.15 188.95 9.15 188.95 63.87 159.67 63.87 159.67 72.99 188.95 72.99 188.95 105.63 198.07 105.63 198.07 2.43 96.79 .51 96.79 9.15 109.27 9.15 109.27 22.11 87.67 22.11 87.67 41.31 64.15 41.31" style="fill: #c44a3a; stroke: #333; stroke-miterlimit: 10;"/>
  <line x1="85.75" y1="161.79" x2="80.47" y2="166.59" style="fill: #d06e61; stroke: #333; stroke-miterlimit: 10;"/>
  <path d="M158.23,105.15l-4.8,6.72c-9.15-.13-18.31-.26-27.46-.4-.09-3.55-.18-7.1-.27-10.64h-7.31v-5.28h11.52v10.08l28.32-.48Z" style="fill: #d06e61; stroke: #333; stroke-miterlimit: 10;"/>
  <polygon points="149.59 115.99 128.95 115.99 129.91 146.43 147.19 146.43 147.19 182.77 116.47 182.77 116.47 170.43 138.55 170.43 138.31 161.79 107.59 161.79 106.63 192.99 179.83 192.99 179.83 176.19 168.79 176.19 168.79 182.77 157.75 182.77 158.23 138.27 138.55 138.27 138.55 127.46 149.59 127.46 149.59 115.99" style="fill: #c44a3a; stroke: #333; stroke-miterlimit: 10;"/>
  <line x1="158.23" y1="127.46" x2="155.83" y2="132.99" style="fill: #d06e61; stroke: #333; stroke-miterlimit: 10;"/>
  <polyline points="138.55 170.43 134.17 176.19 116.47 176.19 116.47 170.43" style="fill: #d06e61; stroke: #333; stroke-miterlimit: 10;"/>
  <polygon points="190.63 115.99 199.03 115.99 199.03 192.03 190.63 192.03 190.63 146.43 179.35 146.43 179.35 163.23 169.99 163.23 169.99 138.27 188.95 138.27 188.95 115.99 190.63 115.99" style="fill: #c44a3a; stroke: #333; stroke-miterlimit: 10;"/>
  <line x1="169.99" y1="163.23" x2="165.43" y2="170.43" style="fill: #d06e61; stroke: #333; stroke-miterlimit: 10;"/>
  <polyline points="188.95 115.99 184.51 121.95 184.51 138.27 188.95 138.27" style="fill: #d06e61; stroke: #333; stroke-miterlimit: 10;"/>
  <polygon points="85.75 171.63 85.75 182.77 44.71 182.77 44.11 192.99 95.59 191.79 95.59 171.63 85.75 171.63" style="fill: #c44a3a; stroke: #333; stroke-miterlimit: 10;"/>
  <line x1="44.11" y1="192.99" x2="39.19" y2="199.23" style="fill: #d06e61; stroke: #333; stroke-miterlimit: 10;"/>
  <polyline points="138.55 29.31 135.19 34.59 126.55 34.59 126.55 14.43 117.91 14.43 117.91 9.15 128.95 9.15 129.43 29.31" style="fill: #d06e61; stroke: #333; stroke-miterlimit: 10;"/>
  <line x1="129.43" y1="29.31" x2="126.55" y2="34.59" style="fill: #d06e61; stroke: #333; stroke-miterlimit: 10;"/>
  <line x1="128.95" y1="9.15" x2="126.55" y2="14.43" style="fill: #d06e61; stroke: #333; stroke-miterlimit: 10;"/>
  <polygon points="107.59 161.79 102.96 166.83 102.21 199.23 175.29 199.23 179.83 192.99 106.63 192.99 107.59 161.79" style="fill: #d06e61; stroke: #333; stroke-miterlimit: 10;"/>
  <line x1="125.79" y1="100.62" x2="129.91" y2="95.81" style="fill: #d06e61; stroke: #333; stroke-miterlimit: 10;"/>
  <line x1="125.97" y1="111.47" x2="130.2" y2="105.62" style="fill: #d06e61; stroke: #333; stroke-miterlimit: 10;"/>
  <line x1="125.97" y1="152.19" x2="129.91" y2="146.43" style="fill: #d06e61; stroke: #333; stroke-miterlimit: 10;"/>
  <line x1="143.23" y1="152.19" x2="146.88" y2="146.8" style="fill: #d06e61; stroke: #333; stroke-miterlimit: 10;"/>
  <line x1="190.63" y1="192.03" x2="186.73" y2="195.71" style="fill: #d06e61; stroke: #333; stroke-miterlimit: 10;"/>
  <line x1="190.63" y1="146.43" x2="186.73" y2="150.71" style="fill: #d06e61; stroke: #333; stroke-miterlimit: 10;"/>
  <line x1="159.67" y1="72.99" x2="155.83" y2="78.27" style="fill: #d06e61; stroke: #333; stroke-miterlimit: 10;"/>
  <line x1="188.95" y1="72.99" x2="183.48" y2="78.27" style="fill: #d06e61; stroke: #333; stroke-miterlimit: 10;"/>
  <line x1="188.95" y1="105.63" x2="183.48" y2="110.39" style="fill: #d06e61; stroke: #333; stroke-miterlimit: 10;"/>
  <line x1="129.43" y1="50.51" x2="124.95" y2="55.43" style="fill: #d06e61; stroke: #333; stroke-miterlimit: 10;"/>
  <line x1="164.61" y1="98.03" x2="168.79" y2="93.63" style="fill: #d06e61; stroke: #333; stroke-miterlimit: 10;"/>
  <line x1="15.45" y1="56.03" x2="21.75" y2="49.95" style="fill: #d06e61; stroke: #333; stroke-miterlimit: 10;"/>
  <line x1="36.83" y1="56.03" x2="42.32" y2="50.18" style="fill: #d06e61; stroke: #333; stroke-miterlimit: 10;"/>
  <line x1="37.05" y1="67.73" x2="42.55" y2="63.87" style="fill: #d06e61; stroke: #333; stroke-miterlimit: 10;"/>
  <line x1="59.35" y1="14.43" x2="64.15" y2="8.19" style="fill: #d06e61; stroke: #333; stroke-miterlimit: 10;"/>
  <polygon points="159.67 17.44 164.41 32.01 179.72 32.01 167.33 41.01 172.06 55.58 159.67 46.58 147.28 55.58 152.01 41.01 139.62 32.01 154.94 32.01 159.67 17.44" style="fill: #fbb040; stroke: #f7941d; stroke-linecap: round; stroke-linejoin: round;"/>

    </symbol>
    <defs>
</svg>