<svg xmlns="http://www.w3.org/2000/svg" style="display: none">
      <defs>
        <symbol id="icon-plus" viewBox="0 0 24 24">
          <path
            d="M12 5v14M5 12h14"
            fill="none"
            stroke="#E25921"
            stroke-width="2.5"
            stroke-linecap="round"
            stroke-linejoin="round"
          />
        </symbol>
        <symbol id="icon-minus" viewBox="0 0 24 24">
          <path
            d="M5 12h14"
            fill="none"
            stroke="#8b5cf6"
            stroke-width="2.5"
            stroke-linecap="round"
            stroke-linejoin="round"
          />
        </symbol>
        <symbol id="icon-times" viewBox="0 0 24 24">
          <path
            d="M6.5 6.5l11 11M17.5 6.5l-11 11"
            fill="none"
            stroke="#10b981"
            stroke-width="2.5"
            stroke-linecap="round"
            stroke-linejoin="round"
          />
        </symbol>
        <symbol id="icon-divide" viewBox="0 0 24 24">
          <path
            d="M5 12h14"
            fill="none"
            stroke="#3b82f6"
            stroke-width="2.5"
            stroke-linecap="round"
            stroke-linejoin="round"
          />
          <circle cx="12" cy="6.5" r="1.8" fill="#3b82f6" />
          <circle cx="12" cy="17.5" r="1.8" fill="#3b82f6" />
        </symbol>
        <symbol id="icon-equals" viewBox="0 0 24 24">
          <path
            d="M5 9h14M5 15h14"
            fill="none"
            stroke="currentColor"
            stroke-width="2.5"
            stroke-linecap="round"
            stroke-linejoin="round"
          />
        </symbol>

        <symbol id="icon-rocket" viewBox="0 0 24 24">
          <path
            d="M4.5 16.5c-1.5 1.26-2 5-2 5s3.74-.5 5-2c.71-.84.7-2.13-.09-2.91a2.18 2.18 0 00-2.91-.09z"
            fill="none"
            stroke="currentColor"
            stroke-width="2.5"
            stroke-linecap="round"
            stroke-linejoin="round"
          />
          <path
            d="M12 15l-3-3a22 22 0 012-3.95A12.88 12.88 0 0122 2c0 2.72-.78 7.5-6 11a22.35 22.35 0 01-4 2z"
            fill="none"
            stroke="currentColor"
            stroke-width="2.5"
            stroke-linecap="round"
            stroke-linejoin="round"
          />
          <path
            d="M9 12H4s.55-3.03 2-4c1.62-1.08 5 0 5 0M12 15v5s3.03-.55 4-2c1.08-1.62 0-5 0-5"
            fill="none"
            stroke="currentColor"
            stroke-width="2.5"
            stroke-linecap="round"
            stroke-linejoin="round"
          />
        </symbol>
        <symbol id="icon-star" viewBox="0 0 24 24">
          <path
            d="M12 2.5l2.7 5.5 6.1.9-4.4 4.2 1 6.1-5.4-2.8-5.4 2.8 1-6.1-4.4-4.2 6.1-.9L12 2.5z"
            fill="none"
            stroke="#fcc419"
            stroke-width="1.5"
            stroke-linecap="round"
            stroke-linejoin="round"
          />
        </symbol>
        <symbol id="icon-trophy" viewBox="0 0 24 24">
          <path
            d="M8 21h8M12 17v4M7 3H5C4 3 3 4 3 5v2a4 4 0 003 4M17 3h2c1 0 2 1 2 2v2a4 4 0 01-3 4"
            fill="none"
            stroke="#B23A14"
            stroke-width="1"
            stroke-linecap="round"
            stroke-linejoin="round"
          />
          <path
            d="M8 3h8v7a4 4 0 01-8 0V3z"
            fill="none"
            stroke="#B23A14"
            stroke-width="1"
            stroke-linecap="round"
            stroke-linejoin="round"
          />
        </symbol>
        <symbol id="icon-chart" viewBox="0 0 24 24">
          <path
            d="M3 18l5-6 4 4 5-6.5 4-3.5"
            fill="none"
            stroke="#B23A14"
            stroke-width="1"
            stroke-linecap="round"
            stroke-linejoin="round"
          />
          <path
            d="M17 7h4v4"
            fill="none"
            stroke="#B23A14"
            stroke-width="1"
            stroke-linecap="round"
            stroke-linejoin="round"
          />
        </symbol>
<symbol id="icon-game" viewBox="0 0 92.85 70.43">
  <g fill="none" stroke="#B23A14" stroke-miterlimit="10">
    <path d="M12.05,69.14C1.51,65.45.31,45.46.26,35.86.2,24.34.13,10.86,8.99,3.74c6.87-5.53,12.16-1.67,39.27-2.18,22.79-.43,27.08-3.31,33.4,1.17,9.11,6.45,9.92,19.56,10.66,32.12.43,7.35,1.69,28.69-9.32,34.01-.89.43-4.18,2.03-7.82.97-11.02-3.2-6.76-25.42-19.7-32.86-5-2.88-12.61-3.56-17.96-.5-11.85,6.77-6.95,28.68-18.29,32.73-3.28,1.17-6.28.26-7.18-.05Z" stroke-width="4"/>
    
    <circle cx="69.91" cy="10.49" r="2.85" stroke-width="3"/>
    <circle cx="79.31" cy="18" r="2.85" stroke-width="3"/>
    <circle cx="60.68" cy="18" r="2.85" stroke-width="3"/>
    <circle cx="69.91" cy="26.18" r="2.85" stroke-width="3"/>
    
    <line x1="20.9" y1="10.49" x2="20.9" y2="29.04" stroke-width="3"/>
    <line x1="11.84" y1="19.76" x2="29.97" y2="19.76" stroke-width="3"/>
  </g>
</symbol>

        <symbol id="icon-game-2" viewBox="0 0 92.85 70.43">
  <g fill="none" stroke="#fff" stroke-miterlimit="10">
 <path d="M12.05,69.14C1.51,65.45.31,45.46.26,35.86.2,24.34.13,10.86,8.99,3.74c6.87-5.53,12.16-1.67,39.27-2.18,22.79-.43,27.08-3.31,33.4,1.17,9.11,6.45,9.92,19.56,10.66,32.12.43,7.35,1.69,28.69-9.32,34.01-.89.43-4.18,2.03-7.82.97-11.02-3.2-6.76-25.42-19.7-32.86-5-2.88-12.61-3.56-17.96-.5-11.85,6.77-6.95,28.68-18.29,32.73-3.28,1.17-6.28.26-7.18-.05Z" stroke-width="4"/>
    
    <circle cx="69.91" cy="10.49" r="2.85" stroke-width="3"/>
    <circle cx="79.31" cy="18" r="2.85" stroke-width="3"/>
    <circle cx="60.68" cy="18" r="2.85" stroke-width="3"/>
    <circle cx="69.91" cy="26.18" r="2.85" stroke-width="3"/>
    
    <line x1="20.9" y1="10.49" x2="20.9" y2="29.04" stroke-width="3"/>
    <line x1="11.84" y1="19.76" x2="29.97" y2="19.76" stroke-width="3"/>
  </g>
        </symbol>

        <symbol id="icon-school" viewBox="0 0 24 24">
          <path
            d="M3 10l9-7 9 7v11a1 1 0 01-1 1H4a1 1 0 01-1-1V10z"
            fill="none"
            stroke="currentColor"
            stroke-width="2.5"
            stroke-linecap="round"
            stroke-linejoin="round"
          />
          <path
            d="M9 21V12h6v9M12 3v3"
            fill="none"
            stroke="currentColor"
            stroke-width="2.5"
            stroke-linecap="round"
            stroke-linejoin="round"
          />
        </symbol>
        <symbol id="icon-pencil" viewBox="0 0 24 24">
          <path
            d="M11 4H4a2 2 0 00-2 2v14a2 2 0 002 2h14a2 2 0 002-2v-7"
            fill="none"
            stroke="#ffffff"
            stroke-width="1.5"
            stroke-linecap="round"
            stroke-linejoin="round"
          />
          <path
            d="M18.5 2.5a2.121 2.121 0 013 3L12 15l-4 1 1-4 9.5-9.5z"
            fill="none"
            stroke="#ffffff"
            stroke-width="1.5"
            stroke-linecap="round"
            stroke-linejoin="round"
          />
        </symbol>
        <symbol id="icon-target" viewBox="0 0 24 24">
          <circle
            cx="12"
            cy="12"
            r="10"
            fill="none"
            stroke="#ffffff"
            stroke-width="1.5"
            stroke-linecap="round"
            stroke-linejoin="round"
          />
          <circle
            cx="12"
            cy="12"
            r="6"
            fill="none"
            stroke="#ffffff"
            stroke-width="1.5"
            stroke-linecap="round"
            stroke-linejoin="round"
          />
          <circle
            cx="12"
            cy="12"
            r="2"
            fill="none"
            stroke="#ffffff"
            stroke-width="1.5"
            stroke-linecap="round"
            stroke-linejoin="round"
          />
        </symbol>
        <symbol id="icon-person" viewBox="0 0 24 24">
          <circle
            cx="12"
            cy="8"
            r="4"
            fill="none"
            stroke="currentColor"
            stroke-width="2.5"
            stroke-linecap="round"
            stroke-linejoin="round"
          />
          <path
            d="M4 20c0-4 3.6-7 8-7s8 3 8 7"
            fill="none"
            stroke="currentColor"
            stroke-width="2.5"
            stroke-linecap="round"
            stroke-linejoin="round"
          />
        </symbol>
        <symbol id="icon-planet-ui" viewBox="0 0 23.7 15.26">
  <path fill="#e25921" d="M12.06.75c3.86,0,7,3.09,7,6.88s-3.14,6.88-7,6.88-7-3.09-7-6.88c0-.13,0-.31.02-.53.21-2.44,1.88-4.76,4.17-5.78.49-.22,1.5-.58,2.81-.58M12.06,0c-1.59,0-2.75.48-3.11.64-2.52,1.11-4.39,3.67-4.62,6.4-.02.25-.02.44-.02.59,0,4.21,3.47,7.63,7.75,7.63s7.75-3.42,7.75-7.63S16.34,0,12.06,0h0Z"/>
  
  <path fill="none" stroke="#e25921" stroke-miterlimit="10" stroke-width="0.75" d="M19.37,5.76c.45-.01,1.19.02,2.02.33.44.16,1.88.7,1.94,1.49.04.61-.78,1.18-1.71,1.65-2.86,1.45-6.02,1.66-9.43,1.77,0,0-6.56.21-10.22-1.28-1.34-.55-1.56-1.06-1.59-1.36-.01-.12-.03-.51.58-1.13,1.2-1.22,2.97-1.47,3.93-1.52"/>
</symbol>
        <symbol id="icon-arrow-right" viewBox="0 0 24 24">
          <path
            d="M5 12h14M13 6l6 6-6 6"
            fill="none"
            stroke="currentColor"
            stroke-width="2.5"
            stroke-linecap="round"
            stroke-linejoin="round"
          />
        </symbol>

<symbol id="planet-grade-1" viewBox="0 0 140.31 132.91">
  <g>
    <path fill="#fee8d5" d="M70.11,131.91c-23.95-.15-47.28-13.07-59.45-32.92C1.91,84.69,1.06,70.15,1.01,66.03c-.17-13.23,3.83-23.1,5.56-26.73,7.29-15.31,19.62-22.97,25.54-26.66,4.63-2.88,18.72-11.65,38.47-11.65h.52c7.78.06,27.64,1.76,43.86,16.19,9.24,8.22,13.88,17.59,16.38,22.62,2.84,5.73,7.14,14.39,7.87,25.53.62,9.53-1.22,24.25-13.57,40.19-19.85,25.63-51.8,26.37-55.38,26.37h-.15Z"/>
    <path fill="#e25921" d="M70.58,2h0,.52c7.67.06,27.24,1.73,43.2,15.94,9.09,8.09,13.68,17.35,16.15,22.32,2.81,5.66,7.05,14.21,7.76,25.16.61,9.36-1.21,23.81-13.37,39.51-19.56,25.25-51.06,25.98-54.59,25.98h-.14c-23.61-.15-46.61-12.88-58.6-32.45-8.62-14.07-9.46-28.39-9.51-32.44-.17-13.02,3.76-22.72,5.46-26.29,7.16-15.04,19.32-22.6,25.16-26.24,4.57-2.84,18.48-11.49,37.95-11.49M70.58,0c-19.63,0-33.48,8.36-39,11.8-6.7,4.17-18.65,11.82-25.91,27.08C4.63,41.03-.18,51.51,0,66.05c.04,2.76.42,18.14,9.81,33.46,11.94,19.48,34.98,33.24,60.29,33.4.04,0,.09,0,.15,0,3.63,0,36.01-.73,56.17-26.76,2.83-3.66,15.17-19.59,13.78-40.86-.74-11.35-5.13-20.19-7.97-25.91-2.76-5.56-7.41-14.74-16.61-22.92C98.32,1.04,77.29.05,71.11,0,70.93,0,70.75,0,70.58,0h0Z"/>
  </g>
  <g>
    <path fill="#fee8d5" d="M38.2,69.63c-5.92,0-10.64-2.88-10.98-6.71-.18-2.01.87-4.03,2.94-5.67,2.13-1.69,5.08-2.78,8.31-3.06.54-.05,1.08-.07,1.62-.07,5.92,0,10.64,2.88,10.98,6.71.18,2.01-.87,4.03-2.94,5.67-2.13,1.69-5.08,2.78-8.31,3.06-.54.05-1.08.07-1.62.07Z"/>
    <path fill="#f3b695" d="M40.09,54.62h0c5.66,0,10.17,2.69,10.48,6.25.35,3.96-4.49,7.64-10.79,8.19-.53.05-1.06.07-1.58.07-5.66,0-10.17-2.69-10.48-6.25-.35-3.96,4.49-7.64,10.79-8.19.53-.05,1.06-.07,1.58-.07M40.09,53.62c-.55,0-1.1.02-1.66.07-6.86.6-12.1,4.75-11.7,9.27.36,4.15,5.35,7.16,11.48,7.16.55,0,1.1-.02,1.66-.07,6.86-.6,12.1-4.75,11.7-9.27-.36-4.15-5.35-7.16-11.48-7.16h0Z"/>
  </g>
  <g>
    <ellipse fill="#fee8d5" cx="75.97" cy="43.71" rx="5.32" ry="3.74"/>
    <path fill="#f3b695" d="M75.97,40.47c2.61,0,4.82,1.48,4.82,3.24s-2.21,3.24-4.82,3.24-4.82-1.48-4.82-3.24,2.21-3.24,4.82-3.24M75.97,39.47c-3.21,0-5.82,1.9-5.82,4.24s2.6,4.24,5.82,4.24,5.82-1.9,5.82-4.24-2.6-4.24-5.82-4.24h0Z"/>
  </g>
  <g>
    <path fill="#fee8d5" d="M95.51,88.08c-4.02,0-7.29-2.2-7.29-4.9s3.27-4.9,7.29-4.9,7.29,2.2,7.29,4.9-3.27,4.9-7.29,4.9Z"/>
    <path fill="#f3b695" d="M95.51,78.78c3.68,0,6.79,2.01,6.79,4.4s-3.11,4.4-6.79,4.4-6.79-2.01-6.79-4.4,3.11-4.4,6.79-4.4M95.51,77.78c-4.3,0-7.79,2.42-7.79,5.4s3.49,5.4,7.79,5.4,7.79-2.42,7.79-5.4-3.49-5.4-7.79-5.4h0Z"/>
  </g>
  <g>
    <path fill="#f6c1a4" d="M48.48,97.05c-.75,0-1.37-.61-1.37-1.37s.61-1.37,1.37-1.37,1.37.61,1.37,1.37-.61,1.37-1.37,1.37Z"/>
    <path fill="#f6c1a4" d="M48.48,94.81c.48,0,.87.39.87.87s-.39.87-.87.87-.87-.39-.87-.87.39-.87.87-.87M48.48,93.81c-1.03,0-1.87.84-1.87,1.87s.84,1.87,1.87,1.87,1.87-.84,1.87-1.87-.84-1.87-1.87-1.87h0Z"/>
  </g>
  <path fill="none" stroke="#f6c1a4" stroke-miterlimit="10" d="M18.78,52.87c12.7-2.76,29.91-5.29,50.33-4.88,20.88.42,38.3,3.79,51,7.16"/>
  <g>
    <path fill="#f6c1a4" d="M101.51,54.65c-.71,0-1.29-.58-1.29-1.29s.58-1.29,1.29-1.29,1.29.58,1.29,1.29-.58,1.29-1.29,1.29Z"/>
    <path fill="#f6c1a4" d="M101.51,52.58c.43,0,.79.35.79.79s-.35.7F9-.79.79-.79-.35-.79-.79.35-.79.79-.79M101.51,51.58c-.99,0-1.79.8-1.79,1.79s.8,1.79,1.79,1.79,1.79-.8,1.79-1.79-.8-1.79-1.79-1.79h0Z"/>
  </g>
  <path fill="none" stroke="#f6c1a4" stroke-miterlimit="10" d="M14.8,76.72c14.96-3.62,34.25-6.75,56.76-6.58,22.9.17,42.45,3.7,57.52,7.64"/>
  <path fill="none" stroke="#fff" stroke-linecap="round" stroke-linejoin="round" stroke-width="2" d="M22.88,30.65c1.52-2.42,5.13-7.43,11.77-10.96,7.54-4.01,14.61-3.76,17.43-3.51"/>
</symbol>
<symbol id="planet-grade-2" viewBox="0 0 149.17 130.34">
  <g id="Layer_9">
    <g>
      <path fill="#dbeafe" d="M73.31,129.34c-23.36-.15-46.13-12.82-57.99-32.28-8.54-14-9.37-28.27-9.42-32.3-.17-12.97,3.74-22.65,5.42-26.21,7.11-15.01,19.14-22.52,24.91-26.13C40.75,9.59,54.5,1,73.76,1h.51c7.59.06,26.96,1.73,42.78,15.88,9.02,8.06,13.55,17.24,15.98,22.18,2.77,5.62,6.96,14.11,7.67,25.04.61,9.34-1.19,23.76-13.24,39.4-19.37,25.13-50.53,25.85-54.02,25.85h-.14Z"/>
      <path fill="#3b82f6" d="M73.77,0v2h.5c7.48.06,26.56,1.7,42.13,15.62,8.87,7.93,13.35,17,15.75,21.87,2.74,5.55,6.87,13.93,7.57,24.66.6,9.17-1.18,23.34-13.04,38.72-19.08,24.75-49.79,25.46-53.23,25.46h-.13c-23.02-.15-45.45-12.63-57.14-31.8-8.41-13.79-9.23-27.82-9.28-31.8-.16-12.77,3.67-22.27,5.33-25.77,6.99-14.74,18.84-22.15,24.54-25.71,4.46-2.79,18.02-11.26,37-11.26V0M73.76,0c-19.16,0-32.67,8.2-38.06,11.57-6.54,4.09-18.2,11.59-25.29,26.55-1,2.12-5.7,12.39-5.52,26.65.03,2.71.41,17.79,9.57,32.81,11.65,19.11,34.14,32.6,58.84,32.76.04,0,.09,0,.15,0,3.54,0,35.14-.72,54.81-26.24,2.77-3.59,14.81-19.21,13.45-40.07-.72-11.13-5-19.8-7.78-25.41-2.69-5.45-7.24-14.45-16.21-22.48C100.83,1.02,80.32.05,74.28,0,74.11,0,73.94,0,73.76,0h0Z"/>
    </g>
  </g>
  <g id="Layer_8">
    <path fill="#dbeafe" stroke="#b8d4fc" stroke-miterlimit="10" d="M7.08,63.1c16.63-5.78,39.18-11.1,65.93-10.23,27.35.89,50.16,7.95,66.8,15.02"/>
  </g>
  <g id="Layer_7">
    <path fill="#dbeafe" stroke="#b8d4fc" stroke-miterlimit="10" d="M13.73,92.51c15.64-3.86,35.8-7.18,59.32-7,23.93.18,44.36,3.94,60.11,8.13"/>
  </g>
  <g id="Layer_6">
    <path fill="#dbeafe" stroke="#fff" stroke-width="2" stroke-linecap="round" stroke-linejoin="round" d="M28.3,32.29c1.52-2.42,5.13-7.43,11.77-10.96,7.54-4.01,14.61-3.76,17.43-3.51"/>
  </g>
  <g id="Layer_5">
    <g>
      <path fill="#dbeafe" d="M101.93,81.19c-.56,0-1.14-.03-1.7-.07-3.61-.31-6.92-1.58-9.3-3.57-2.34-1.94-3.51-4.34-3.3-6.75.4-4.6,5.77-8.07,12.49-8.07.56,0,1.14.02,1.7.07,3.61.31,6.92,1.58,9.3,3.57,2.34,1.94,3.51,4.34,3.3,6.75-.4,4.6-5.77,8.07-12.49,8.07Z"/>
      <path fill="#afcdfc" d="M100.11,62.23v1c.55,0,1.11.02,1.66.07,7.11.62,12.56,5,12.15,9.78-.38,4.34-5.53,7.61-11.99,7.61-.55,0-1.11-.02-1.66-.07-7.11-.62-12.56-5-12.15-9.78.38-4.34,5.53-7.61,11.99-7.61v-1M100.11,62.23c-6.9,0-12.56,3.6-12.99,8.53-.46,5.33,5.38,10.2,13.06,10.86.59.05,1.17.08,1.75.08,6.9,0,12.56-3.6,12.99-8.53.46-5.33-5.38-10.2-13.06-10.86-.59-.05-1.17-.08-1.75-.08h0Z"/>
    </g>
  </g>
  <g id="Layer_3">
    <path fill="none" stroke="#83b2fa" stroke-width="2" stroke-miterlimit="10" d="M22.2,105.6c-1.56-.27-20.33-3.67-21.17-11.29-.77-6.94,13.78-13.44,20.5-16.45,45.07-20.14,89.06-3.88,108.61,3.35,8.03,2.97,15.66,6.49,15.8,11.27.22,7.36-17.53,12.99-19.21,13.5"/>
  </g>
</symbol>
<symbol id="planet-grade-3" viewBox="0 0 139.5 130.34">
  <g>
    <path fill="#d1fae5" d="M68.42,129.34c-23.36-.15-46.12-12.82-57.99-32.28C1.89,83.06,1.06,68.79,1.01,64.76c-.17-12.97,3.74-22.65,5.42-26.21,7.11-15,19.14-22.52,24.91-26.13,4.52-2.82,18.26-11.42,37.53-11.42h.51c7.59.06,26.96,1.72,42.78,15.87,9.01,8.06,13.55,17.24,15.98,22.18,2.77,5.62,6.96,14.11,7.67,25.04.61,9.35-1.2,23.77-13.24,39.4-19.37,25.13-50.53,25.85-54.02,25.85h-.14Z"/>
    <path fill="#10b981" d="M68.88,0v2h.5c7.48.06,26.56,1.7,42.13,15.62,8.87,7.93,13.35,17,15.75,21.87,2.74,5.55,6.87,13.93,7.57,24.66.6,9.17-1.18,23.34-13.04,38.72-19.08,24.75-49.79,25.46-53.23,25.46h-.13c-23.02-.15-45.45-12.63-57.14-31.8-8.41-13.79-9.23-27.82-9.28-31.8-.16-12.77,3.67-22.27,5.33-25.77,6.99-14.74,18.84-22.15,24.54-25.71,4.46-2.79,18.02-11.26,37-11.26V0M68.87,0c-19.16,0-32.67,8.2-38.06,11.57-6.54,4.09-18.2,11.59-25.29,26.55C4.52,40.24-.18,50.52,0,64.77c.03,2.71.41,17.79,9.57,32.81,11.65,19.11,34.14,32.6,58.84,32.76.04,0,.09,0,.15,0,3.54,0,35.14-.72,54.81-26.24,2.77-3.59,14.81-19.21,13.45-40.07-.72-11.13-5-19.8-7.78-25.41-2.69-5.45-7.24-14.45-16.21-22.48C95.94,1.02,75.43.05,69.39,0,69.22,0,69.05,0,68.87,0h0Z"/>
  </g>

  <path fill="none" stroke="#a2eacd" stroke-miterlimit="10" d="M2.11,65.17c4.81-2.8,11.42-5.51,19.46-5.7,8.22-.19,15.26,2.34,20.46,4.99"/>
  <path fill="none" stroke="#a2eacd" stroke-miterlimit="10" d="M103.07,92.91c4.9-1.81,11.16-3.24,18.33-2.71,7.3.54,13.41,2.96,18.07,5.53"/>

  <path fill="none" stroke="#fff" stroke-width="2" stroke-linecap="round" stroke-linejoin="round" d="M23.41,32.29c1.52-2.42,5.13-7.43,11.77-10.96,7.54-4.01,14.61-3.76,17.43-3.51"/>

  <g fill="#a7eccf" stroke="#10b981" stroke-miterlimit="10">
    <path d="M27.47,74.69c.24,1.8.46,2.82.96,5.36.6,3.07.72,3.84,1.19,5.27.4,1.23.58,1.86.91,2.27,1.33,1.68,4,2.02,5.98,1.61,1.86-.39,1.73-1.15,4.9-2.76,2.75-1.4,3.1-.95,5.16-2.22,1.97-1.22,1.7-1.66,4.05-3.26,2.5-1.71,3.12-1.42,4.32-2.72,1.29-1.39,2.45-3.74,1.66-4.98-.38-.6-.99-.58-3.45-1.26-2.1-.58-2.45-.82-3.7-1.17-2.85-.81-4.1-.43-10.3-.76-3.52-.18-4.82-.39-7.23,0-3.78.62-4.45,1.76-4.64,2.25-.21.54-.01.91.18,2.37Z"/>
    <path d="M43.72,34.3c.24,1.8.46,2.82.96,5.36.6,3.07.72,3.84,1.19,5.27.39,1.19.57,1.8.91,2.27,1.21,1.66,3.49,2.35,5.28,2.21,2.02-.15,2.76-1.29,5.6-3.37,5.15-3.76,5.99-2.4,9.22-5.48,2.32-2.23,1.63-2.69,4.9-6.08.59-.62,1.06-1.06,1.05-1.7-.03-1.81-3.82-3.46-6.98-3.99-4.41-.74-4.8,1.17-10.43.87-3.03-.16-4.47-.8-7.51-.2-1.25.25-3.75.77-4.37,2.45-.2.56,0,.95.18,2.37Z"/>
    <path d="M65.52,100.43c.18,1.44.35,2.25.73,4.27.46,2.45.55,3.06.9,4.2.26.85.57,1.58.69,1.81.57,1.12,2.58,2.04,4.33,1.76,1.78-.29,1.61-1.57,3.94-2.68,2.25-1.07,3.21-.27,4.87-1.47.83-.6.81-.96,2.13-2.9,2.59-3.79,3.78-4.04,3.74-5.39-.06-1.81-2.25-3.49-4.2-4.07-3.01-.9-4.01,1.26-8.23.78-2.33-.26-2.86-1.01-4.89-.71-.31.05-3.53.56-4.12,2.51-.07.22-.05.39.14,1.89Z"/>
    <path d="M89.12,56.89c.24,1.8.46,2.82.96,5.36.28,1.41.64,3.09,1.19,5.27.69,2.75.85,3,1.12,3.22.96.79,2.05.26,6.7-.46,3.2-.49,3.45-.36,4.76-.81.38-.13,1.61-.58,4.25-2.33,2.3-1.52,3.61-2.38,5.05-3.82,2.27-2.27,4.5-4.5,4.04-6.94-.54-2.83-4.38-4.19-4.87-4.36-1.7-.6-2.01-.12-5.15-.58-3.8-.55-3.83-1.33-6.31-1.41-1.77-.06-3.4.46-6.64,1.48-4.43,1.4-5.06,2.32-5.28,2.98-.13.4-.04.66.18,2.37Z"/>
  </g>
</symbol>
<symbol id="planet-grade-4" viewBox="0 0 136.93 130.34">
  <g>
    <path fill="#ede9fe" d="M68.42,129.34c-23.36-.15-46.13-12.82-57.99-32.28C1.89,83.06,1.06,68.79,1.01,64.76c-.17-12.97,3.74-22.65,5.42-26.21,7.11-15.01,19.14-22.52,24.91-26.13C35.86,9.59,49.61,1,68.87,1h.51c7.59.06,26.96,1.73,42.78,15.88,9.02,8.06,13.55,17.24,15.98,22.18,2.77,5.62,6.96,14.11,7.67,25.04.61,9.34-1.19,23.76-13.24,39.4-19.37,25.13-50.53,25.85-54.02,25.85h-.14Z"/>
    <path fill="#8b5cf6" d="M68.88,0v2h.5c7.48.06,26.56,1.7,42.13,15.62,8.87,7.93,13.35,17,15.75,21.87,2.74,5.55,6.87,13.93,7.57,24.66.6,9.17-1.18,23.34-13.04,38.72-19.08,24.75-49.79,25.46-53.23,25.46h-.13c-23.02-.15-45.45-12.63-57.14-31.8-8.41-13.79-9.23-27.82-9.28-31.8-.16-12.77,3.67-22.27,5.33-25.77,6.99-14.74,18.84-22.15,24.54-25.71,4.46-2.79,18.02-11.26,37-11.26V0M68.87,0c-19.16,0-32.67,8.2-38.06,11.57-6.54,4.09-18.2,11.59-25.29,26.55C4.52,40.24-.18,50.52,0,64.77c.03,2.71.41,17.79,9.57,32.81,11.65,19.11,34.14,32.6,58.84,32.76.04,0,.09,0,.15,0,3.54,0,35.14-.72,54.81-26.24,2.77-3.59,14.81-19.21,13.45-40.07-.72-11.13-5-19.8-7.78-25.41-2.69-5.45-7.24-14.45-16.21-22.48C95.94,1.02,75.43.05,69.39,0,69.22,0,69.05,0,68.87,0h0Z"/>
  </g>

  <path fill="none" stroke="#a689f1" stroke-miterlimit="10" d="M37.56,61.08c5.05-3.6,11.2-6.6,18.4-7.36,9.89-1.05,12.13,3.15,24.34,2.6,10.52-.47,11.33-3.7,20.27-2.69,7.7.87,9.95,3.58,15.4,2.72,6.46-1.03,11.14-6.1,14.14-10.37"/>

  <path fill="none" stroke="#fff" stroke-width="2" stroke-linecap="round" stroke-linejoin="round" d="M21.86,32.84c1.52-2.42,5.13-7.43,11.77-10.96,7.54-4.01,14.61-3.76,17.43-3.51"/>

  <circle fill="none" stroke="#a689f1" stroke-miterlimit="10" cx="48.87" cy="51.52" r="8.43"/>
  <circle fill="none" stroke="#a689f1" stroke-miterlimit="10" cx="80.97" cy="82.72" r="4.86"/>
  <circle fill="none" stroke="#a689f1" stroke-miterlimit="10" cx="68.3" cy="93.31" r="3.32"/>

  <g fill="none" stroke="#a689f1" stroke-linecap="round" stroke-linejoin="round">
    <polygon points="11.6 3.41 14.58 7.95 20.01 6.53 16.42 10.76 19.4 15.3 14.21 13.37 10.63 17.6 11 12.18 5.8 10.25 11.23 8.83 11.6 3.41"/>
    <polygon points="16.71 119.13 12.7 121.89 14.07 126.9 10.22 123.6 6.21 126.36 7.84 121.56 4 118.26 8.85 118.59 10.49 113.79 11.86 118.8 16.71 119.13"/>
    <polygon points="128.2 115.29 127.99 120.65 133.27 122.69 127.87 123.96 127.67 129.31 124.53 124.74 119.13 126.01 122.6 121.91 119.46 117.34 124.74 119.38 128.2 115.29"/>
  </g>
</symbol>

        <symbol id="icon-edit" viewBox="0 0 24 24">
          <path
            d="M12 20h9M16.5 3.5a2.12 2.12 0 013 3L7 19l-4 1 1-4L16.5 3.5z"
            fill="none"
            stroke="currentColor"
            stroke-width="2.5"
            stroke-linecap="round"
            stroke-linejoin="round"
          />
          <path
            d="M14.5 5.5l3 3"
            fill="none"
            stroke="currentColor"
            stroke-width="2.5"
            stroke-linecap="round"
            stroke-linejoin="round"
          />
        </symbol>
        <symbol id="icon-chart-profile" viewBox="0 0 24 24">
          <path
            d="M3 18l5-6 4 4 5-6.5 4-3.5"
            fill="none"
            stroke-width="2"
            stroke-linecap="round"
            stroke-linejoin="round"
          />
          <path
            d="M17 7h4v4"
            fill="none"
            stroke-width="2"
            stroke-linecap="round"
            stroke-linejoin="round"
          />
        </symbol>
        <symbol id="icon-trophy-profile" viewBox="0 0 24 24">
          <path
            d="M8 21h8M12 17v4M7 3H5C4 3 3 4 3 5v2a4 4 0 003 4M17 3h2c1 0 2 1 2 2v2a4 4 0 01-3 4"
            fill="none"
            stroke="currentColor"
            stroke-width="2"
            stroke-linecap="round"
            stroke-linejoin="round"
          />
          <path
            d="M8 3h8v7a4 4 0 01-8 0V3z"
            stroke="currentColor"
            fill="none"
            stroke-width="2"
            stroke-linecap="round"
            stroke-linejoin="round"
          />
        </symbol>
        <symbol id="icon-leaderboard" viewBox="0 0 24 24">
          <path
            d="M18 20V10M12 20V4M6 20v-6"
            fill="none"
            stroke="currentColor"
            stroke-width="2.5"
            stroke-linecap="round"
            stroke-linejoin="round"
          />
        </symbol>
        <symbol id="icon-log-out" viewBox="0 0 24 24">
          <path
            d="M9 21H5a2 2 0 01-2-2V5a2 2 0 012-2h4"
            fill="none"
            stroke="currentColor"
            stroke-width="2.5"
            stroke-linecap="round"
            stroke-linejoin="round"
          />
          <path
            d="M16 17l5-5-5-5"
            fill="none"
            stroke="currentColor"
            stroke-width="2.5"
            stroke-linecap="round"
            stroke-linejoin="round"
          />
          <path
            d="M21 12H9"
            fill="none"
            stroke="currentColor"
            stroke-width="2.5"
            stroke-linecap="round"
            stroke-linejoin="round"
          />
        </symbol>
        <symbol id="icon-star-2" viewBox="0 0 24 24">
          <path
            d="M12 2.5l2.7 5.5 6.1.9-4.4 4.2 1 6.1-5.4-2.8-5.4 2.8 1-6.1-4.4-4.2 6.1-.9L12 2.5z"
            fill="none"
            stroke="currentColor"
            stroke-width="2.5"
            stroke-linecap="round"
            stroke-linejoin="round"
          />
        </symbol>
        <symbol id="icon-school" viewBox="0 0 24 24">
          <path
            d="M3 10l9-7 9 7v11a1 1 0 01-1 1H4a1 1 0 01-1-1V10z"
            fill="none"
            stroke="currentColor"
            stroke-width="2.5"
            stroke-linecap="round"
            stroke-linejoin="round"
          />
          <path
            d="M9 21V12h6v9"
            fill="none"
            stroke="currentColor"
            stroke-width="2.5"
            stroke-linecap="round"
            stroke-linejoin="round"
          />
        </symbol>
        <symbol id="icon-rocket" viewBox="0 0 24 24">
          <path
            d="M4.5 16.5c-1.5 1.26-2 5-2 5s3.74-.5 5-2c.71-.84.7-2.13-.09-2.91a2.18 2.18 0 00-2.91-.09z"
            fill="none"
            stroke="currentColor"
            stroke-width="2.5"
            stroke-linecap="round"
            stroke-linejoin="round"
          />
          <path
            d="M12 15l-3-3a22 22 0 012-3.95A12.88 12.88 0 0122 2c0 2.72-.78 7.5-6 11a22.35 22.35 0 01-4 2z"
            fill="none"
            stroke="currentColor"
            stroke-width="2.5"
            stroke-linecap="round"
            stroke-linejoin="round"
          />
          <path
            d="M9 12H4s.55-3.03 2-4c1.62-1.08 5 0 5 0M12 15v5s3.03-.55 4-2c1.08-1.62 0-5 0-5"
            fill="none"
            stroke="currentColor"
            stroke-width="2.5"
            stroke-linecap="round"
            stroke-linejoin="round"
          />
        </symbol>
        <symbol id="icon-flash" viewBox="0 0 24 24">
          <path
            d="M13 2L4 14h7l-1 8 9-12h-7l1-8z"
            fill="none"
            stroke="currentColor"
            stroke-width="2"
            stroke-linecap="round"
            stroke-linejoin="round"
          />
        </symbol>
        <symbol id="icon-target-profile" viewBox="0 0 24 24">
          <circle
            cx="12"
            cy="12"
            r="10"
            fill="none"
            stroke="currentColor"
            stroke-width="2.5"
            stroke-linecap="round"
            stroke-linejoin="round"
          />
          <circle
            cx="12"
            cy="12"
            r="6"
            fill="none"
            stroke="currentColor"
            stroke-width="2.5"
            stroke-linecap="round"
            stroke-linejoin="round"
          />
          <circle
            cx="12"
            cy="12"
            r="2"
            fill="none"
            stroke="currentColor"
            stroke-width="2.5"
            stroke-linecap="round"
            stroke-linejoin="round"
          />
        </symbol>
        <symbol id="icon-game-console" viewBox="0 0 92.85 70.43">
          <g fill="none" stroke="#e25921" stroke-miterlimit="10">
            <path
              d="M12.05,69.14C1.51,65.45.31,45.46.26,35.86.2,24.34.13,10.86,8.99,3.74c6.87-5.53,12.16-1.67,39.27-2.18,22.79-.43,27.08-3.31,33.4,1.17,9.11,6.45,9.92,19.56,10.66,32.12.43,7.35,1.69,28.69-9.32,34.01-.89.43-4.18,2.03-7.82.97-11.02-3.2-6.76-25.42-19.7-32.86-5-2.88-12.61-3.56-17.96-.5-11.85,6.77-6.95,28.68-18.29,32.73-3.28,1.17-6.28.26-7.18-.05Z"
              stroke-width="6"
            />

            <circle cx="69.91" cy="10.49" r="2.85" stroke-width="3.5" />
            <circle cx="79.31" cy="18" r="2.85" stroke-width="3.5" />
            <circle cx="60.68" cy="18" r="2.85" stroke-width="3.5" />
            <circle cx="69.91" cy="26.18" r="2.85" stroke-width="3.5" />

            <line x1="20.9" y1="10.49" x2="20.9" y2="29.04" stroke-width="4" />
            <line
              x1="11.84"
              y1="19.76"
              x2="29.97"
              y2="19.76"
              stroke-width="4"
            />
          </g>
        </symbol>
      </defs>
    </svg>


    